<svg width="47" height="48" viewBox="0 0 47 48" fill="none" xmlns="http://www.w3.org/2000/svg">
<path d="M23 10C30.7109 10 37 16.2891 37 24C37 31.7656 30.7109 38 23 38C15.2344 38 9 31.7656 9 24C9 16.2891 15.2344 10 23 10ZM23 35.375C29.2344 35.375 34.375 30.2891 34.375 24C34.375 17.7656 29.2344 12.625 23 12.625C16.7109 12.625 11.625 17.7656 11.625 24C11.625 30.2891 16.7109 35.375 23 35.375ZM23 28.375C23.9297 28.375 24.75 29.1406 24.75 30.125C24.75 31.1094 23.9297 31.875 23 31.875C21.9609 31.875 21.25 31.1094 21.25 30.125C21.25 29.1406 22.0156 28.375 23 28.375ZM24.8047 17C26.9922 17 28.6875 18.6953 28.6328 20.8281C28.6328 22.1406 27.9219 23.3984 26.7734 24.1094L24.3125 25.6406V25.75C24.3125 26.4609 23.7109 27.0625 23 27.0625C22.2891 27.0625 21.6875 26.4609 21.6875 25.75V24.875C21.6875 24.4375 21.9062 24 22.3438 23.7266L25.4609 21.8672C25.8438 21.6484 26.0625 21.2656 26.0625 20.8281C26.0625 20.1719 25.4609 19.625 24.75 19.625H21.9609C21.3047 19.625 20.8125 20.1719 20.8125 20.8281C20.8125 21.5391 20.2109 22.1406 19.5 22.1406C18.7891 22.1406 18.1875 21.5391 18.1875 20.8281C18.1875 18.6953 19.8828 17 22.0156 17H24.8047Z" fill="#4E69ED"/>
</svg>
