<svg width="47" height="48" viewBox="0 0 47 48" fill="none" xmlns="http://www.w3.org/2000/svg">
<path d="M23 22.25C23.9297 22.25 24.75 23.0703 24.75 24C24.75 24.9844 23.9297 25.75 23 25.75C22.0156 25.75 21.25 24.9844 21.25 24C21.25 23.0703 22.0156 22.25 23 22.25ZM28.25 25.75C27.2656 25.75 26.5 24.9844 26.5 24C26.5 23.0703 27.2656 22.25 28.25 22.25C29.1797 22.25 30 23.0703 30 24C30 24.9844 29.1797 25.75 28.25 25.75ZM17.75 22.25C18.6797 22.25 19.5 23.0703 19.5 24C19.5 24.9844 18.6797 25.75 17.75 25.75C16.7656 25.75 16 24.9844 16 24C16 23.0703 16.7656 22.25 17.75 22.25ZM23 38C15.2344 38 9 31.7656 9 24C9 16.2891 15.2344 10 23 10C30.7109 10 37 16.2891 37 24C37 31.7656 30.7109 38 23 38ZM34.375 24C34.375 17.7656 29.2344 12.625 23 12.625C16.7109 12.625 11.625 17.7656 11.625 24C11.625 30.2891 16.7109 35.375 23 35.375C29.2344 35.375 34.375 30.2891 34.375 24Z" fill="#4E69ED"/>
</svg>
