<svg width="47" height="48" viewBox="0 0 47 48" fill="none" xmlns="http://www.w3.org/2000/svg">
<path d="M24.0938 18.0938C24.6406 18.1484 25.1875 18.3125 25.6797 18.4766C25.7891 18.4766 25.8984 18.5312 26.0078 18.5312C26.6094 18.75 26.9922 19.4062 26.8281 20.0078C26.6641 20.6641 26.0078 20.9922 25.3516 20.8281C25.2969 20.8281 25.1875 20.7734 25.1328 20.7734C24.75 20.6641 24.3672 20.5547 23.9844 20.4453C23.2188 20.3359 22.3984 20.3906 21.7422 20.6641C21.1406 20.9375 20.6484 21.5938 21.3047 22.0312C21.8516 22.3594 22.5078 22.5234 23.1094 22.6875C23.2734 22.7422 23.3828 22.7969 23.4922 22.7969C24.3672 23.0703 25.4609 23.3438 26.2812 23.9453C27.3203 24.6562 27.8125 25.8594 27.5938 27.1172C27.375 28.3203 26.5 29.1406 25.5156 29.5234C25.0781 29.7422 24.5859 29.8516 24.0938 29.9062V30.7266C24.0938 31.3828 23.6016 31.875 22.9453 31.875C22.2891 31.875 21.7422 31.3828 21.7422 30.7266V29.7422C20.9766 29.5781 20.1562 29.3594 19.3906 29.0859C18.7891 28.8672 18.4609 28.2109 18.6797 27.6094C18.8438 26.9531 19.5547 26.625 20.1562 26.8438C20.2656 26.8984 20.4297 26.9531 20.5391 26.9531C21.1953 27.1719 21.7969 27.3906 22.4531 27.5C23.3828 27.6641 24.0938 27.5547 24.5859 27.3359C25.2422 27.1172 25.5703 26.2969 24.9141 25.8594C24.3672 25.4766 23.7109 25.3125 23.0547 25.1484C22.8906 25.0938 22.7812 25.0938 22.6719 25.0391C21.8516 24.8203 20.8125 24.4922 20.0469 24C18.9531 23.3438 18.4062 22.1953 18.6797 20.9375C18.8984 19.7344 19.8281 18.9688 20.8125 18.5312C21.0859 18.3672 21.4141 18.3125 21.7422 18.2031V17.3281C21.7422 16.6719 22.2891 16.125 22.9453 16.125C23.6016 16.125 24.0938 16.6719 24.0938 17.3281V18.0938ZM37 24C37 31.7656 30.7109 38 23 38C15.2344 38 9 31.7656 9 24C9 16.2891 15.2344 10 23 10C30.7109 10 37 16.2891 37 24ZM23 12.625C16.7109 12.625 11.625 17.7656 11.625 24C11.625 30.2891 16.7109 35.375 23 35.375C29.2344 35.375 34.375 30.2891 34.375 24C34.375 17.7656 29.2344 12.625 23 12.625Z" fill="#4E69ED"/>
</svg>
