<svg xmlns="http://www.w3.org/2000/svg" width="21" height="21" viewBox="0 0 21 21" fill="none">
<path d="M15.3633 0.3125C16.4863 0.3125 17.5195 0.986328 17.9688 2.06445L19.8555 6.24219C20.0352 6.60156 20.125 7.00586 20.125 7.41016V17.5625C20.125 19.1797 18.8223 20.4375 17.25 20.4375H2.875C1.25781 20.4375 0 19.1797 0 17.5625V7.41016C0 7.00586 0.0449219 6.60156 0.224609 6.24219L2.11133 2.06445C2.56055 0.986328 3.59375 0.3125 4.7168 0.3125H15.3633ZM15.3633 1.75H10.7812V6.0625H18.1934L16.666 2.60352C16.4414 2.10938 15.9473 1.75 15.3633 1.75ZM18.6875 7.5H1.4375V17.5625C1.4375 18.3711 2.06641 19 2.875 19H17.25C18.0137 19 18.6875 18.3711 18.6875 17.5625V7.5ZM1.88672 6.0625H9.34375V1.75H4.7168C4.13281 1.75 3.63867 2.10938 3.41406 2.60352L1.88672 6.0625Z" fill="currentColor" />
</svg>