<svg width="47" height="48" viewBox="0 0 47 48" fill="none" xmlns="http://www.w3.org/2000/svg">
<path d="M23 10C30.8203 10 36.7266 16.5625 37 24V31.875C37 34.5547 34.8125 36.6875 32.1875 36.6875H26.1172C25.6797 37.5078 24.8047 38 23.875 38H22.0703C20.6484 38 19.5 36.8516 19.5 35.375C19.5 33.9531 20.6484 32.75 22.125 32.75H23.875C24.8047 32.75 25.6797 33.2969 26.1172 34.0625H32.1875C33.3906 34.0625 34.375 33.1328 34.375 31.875V30.7812C33.9375 30.9453 33.4453 31 32.9531 31H31.9688C30.875 31 30 30.125 30 28.9766V21.7031C30 20.5547 30.875 19.625 31.9688 19.625H32.9531C33.1719 19.625 33.3359 19.6797 33.5 19.6797C31.8047 15.5781 27.7031 12.6797 23 12.6797C18.2422 12.6797 14.1406 15.5781 12.4453 19.7344C12.6094 19.6797 12.7734 19.625 12.9922 19.625H13.9766C15.0703 19.625 16 20.5547 16 21.7031V28.9766C16 30.125 15.0703 31 13.9766 31H12.9922C10.75 31 9 29.1953 9 26.9531V24C9.21875 16.5625 15.125 10 23 10ZM12.9922 22.25C12.2266 22.25 11.6797 22.8516 11.625 23.6172C11.625 23.7812 11.625 23.8906 11.625 24V26.9531C11.625 27.7188 12.2266 28.375 12.9922 28.375H13.375V22.25H12.9922ZM32.9531 28.375C33.7188 28.375 34.375 27.7188 34.375 26.9531V24C34.375 23.8906 34.3203 23.7812 34.3203 23.6172C34.2656 22.9062 33.7188 22.25 32.9531 22.25H32.625V28.375H32.9531Z" fill="#4E69ED"/>
</svg>
