<svg xmlns="http://www.w3.org/2000/svg" width="24" height="21" viewBox="0 0 24 21" fill="none">
<path d="M15.5547 5.97266C15.0605 5.20898 13.8027 5.20898 13.2637 5.97266L9.98438 10.959L9.26562 9.92578C8.72656 9.20703 7.51367 9.20703 7.01953 9.92578L4.09961 13.9688C3.83008 14.373 3.78516 14.9121 4.00977 15.4062C4.23438 15.8555 4.72852 16.125 5.22266 16.125H19.7324C20.2266 16.125 20.7207 15.8555 20.9453 15.4062C21.1699 14.957 21.1699 14.418 20.8555 14.0137L15.5547 5.97266ZM5.26758 14.6875L8.09766 10.7793L9.44531 12.6211C9.58008 12.8457 9.80469 12.9805 10.0293 12.9355C10.2539 12.9355 10.4785 12.8008 10.6133 12.6211L14.3867 6.78125L19.6426 14.6875H5.26758ZM21.0801 0.3125H3.83008C2.25781 0.3125 0.955078 1.61523 0.955078 3.1875V17.5625C0.955078 19.1797 2.25781 20.4375 3.83008 20.4375H21.0801C22.6523 20.4375 23.9551 19.1797 23.9551 17.5625V3.1875C23.9551 1.61523 22.6973 0.3125 21.0801 0.3125ZM22.5625 17.5625C22.5625 18.3711 21.8887 19 21.125 19H3.875C3.06641 19 2.4375 18.3711 2.4375 17.5625V3.1875C2.4375 2.42383 3.06641 1.75 3.875 1.75H21.125C21.8887 1.75 22.5625 2.42383 22.5625 3.1875V17.5625ZM7.46875 7.5C8.63672 7.5 9.625 6.55664 9.625 5.34375C9.625 4.17578 8.63672 3.1875 7.46875 3.1875C6.25586 3.1875 5.3125 4.17578 5.3125 5.34375C5.3125 6.55664 6.25586 7.5 7.46875 7.5ZM7.46875 4.625C7.82812 4.625 8.14258 4.98438 8.14258 5.34375C8.14258 5.74805 7.82812 6.0625 7.46875 6.0625C7.06445 6.0625 6.75 5.74805 6.75 5.34375C6.75 4.98438 7.06445 4.625 7.46875 4.625Z" fill="currentColor" />
</svg>