<svg xmlns="http://www.w3.org/2000/svg" width="23" height="21" viewBox="0 0 23 21" fill="none">
<path d="M0 3.1875C0 1.61523 1.25781 0.3125 2.875 0.3125H20.125C21.6973 0.3125 23 1.61523 23 3.1875V17.5625C23 19.1797 21.6973 20.4375 20.125 20.4375H2.875C1.25781 20.4375 0 19.1797 0 17.5625V3.1875ZM7.1875 4.625H21.5625V3.1875C21.5625 2.42383 20.8887 1.75 20.125 1.75H7.1875V4.625ZM5.75 1.75H2.875C2.06641 1.75 1.4375 2.42383 1.4375 3.1875V4.625H5.75V1.75ZM1.4375 6.0625V17.5625C1.4375 18.3711 2.06641 19 2.875 19H20.125C20.8887 19 21.5625 18.3711 21.5625 17.5625V6.0625H1.4375Z" fill="currentColor" />
</svg>