<svg width="47" height="48" viewBox="0 0 47 48" fill="none" xmlns="http://www.w3.org/2000/svg">
<path d="M35.6875 28.8125C36.3984 28.8125 37 29.4141 37 30.125C37 30.8906 36.3984 31.4375 35.6875 31.4375H13.3203L17.3672 35.8125C17.8594 36.3594 17.8594 37.1797 17.3125 37.6719C17.0391 37.8906 16.7109 38 16.4375 38C16.0547 38 15.7266 37.8906 15.4531 37.6172L9.32812 31.0547C8.83594 30.5625 8.83594 29.7422 9.32812 29.25L15.4531 22.6875C15.9453 22.1406 16.7656 22.1406 17.3125 22.6328C17.8594 23.125 17.8594 23.9453 17.3672 24.4922L13.3203 28.8125H35.6875ZM10.3125 19.1875C9.54688 19.1875 9 18.6406 9 17.875C9 17.1641 9.54688 16.5625 10.3125 16.5625H32.625L28.5781 12.2422C28.0859 11.6953 28.0859 10.875 28.6328 10.3828C28.9062 10.1641 29.2344 10 29.5625 10C29.8906 10 30.2188 10.1641 30.4922 10.4375L36.6172 17C37.1094 17.4922 37.1094 18.3125 36.6172 18.8047L30.4922 25.3672C30 25.9141 29.1797 25.9141 28.6328 25.4219C28.0859 24.9297 28.0859 24.1094 28.5781 23.5625L32.625 19.1875H10.3125Z" fill="#4E69ED"/>
</svg>
