<svg xmlns="http://www.w3.org/2000/svg" width="36" height="37" viewBox="0 0 36 37" fill="none">
<path d="M0 18.5C0 8.58594 8.01562 0.5 18 0.5C27.9141 0.5 36 8.58594 36 18.5C36 28.4844 27.9141 36.5 18 36.5C8.01562 36.5 0 28.4844 0 18.5ZM18 32C25.4531 32 31.5 25.9531 31.5 18.5C31.5 11.0469 25.4531 5 18 5C10.4766 5 4.5 11.0469 4.5 18.5C4.5 25.9531 10.4766 32 18 32Z" fill="#6D7175" />
<path d="M10.125 7.53125L28.9688 26.375C28.125 27.5703 27 28.6953 25.8047 29.5391L6.96094 10.6953C7.80469 9.5 8.92969 8.375 10.125 7.53125Z" fill="#BABFC3" />
</svg>