<svg xmlns="http://www.w3.org/2000/svg" width="32" height="33" viewBox="0 0 32 33" fill="none">
<path d="M29.25 7.5C30.4453 7.5 31.5 8.55469 31.5 9.75C31.5 10.9453 30.4453 12 29.25 12H24.3984L25.1016 7.5H29.25ZM0 23.25C0 22.0547 0.984375 21 2.25 21H7.03125L6.32812 25.5H2.25C0.984375 25.5 0 24.5156 0 23.25ZM27 21C28.1953 21 29.25 22.0547 29.25 23.25C29.25 24.4453 28.1953 25.5 27 25.5H10.8984L11.6016 21H27ZM4.5 12C3.23438 12 2.25 11.0156 2.25 9.75C2.25 8.48438 3.23438 7.5 4.5 7.5H20.5312L19.8281 12H4.5Z" fill="#6D7175" />
<path d="M23.9765 0.820467C25.1718 1.0314 26.0155 2.1564 25.8046 3.42203L22.8515 21.0705H18.2812L21.3749 2.64859C21.5858 1.45328 22.7108 0.60953 23.9765 0.820467ZM16.8749 29.6486L17.578 25.5002H22.1483L21.3046 30.422C21.0937 31.4767 20.1796 32.2502 19.1249 32.2502C18.9843 32.2502 18.8437 32.2502 18.703 32.2502C17.5077 32.0392 16.664 30.9142 16.8749 29.6486ZM5.62491 29.6486L8.57804 12.0002H13.1483L10.0546 30.422C9.84366 31.4767 8.9296 32.2502 7.87491 32.2502C7.73429 32.2502 7.59366 32.2502 7.45304 32.2502C6.25772 32.0392 5.41397 30.9142 5.62491 29.6486ZM12.7265 0.820467C13.9218 1.0314 14.7655 2.1564 14.5546 3.35172L13.8515 7.50015H9.28116L10.1249 2.64859C10.3358 1.45328 11.4608 0.60953 12.7265 0.820467Z" fill="#BABFC3" />
</svg>