<svg xmlns="http://www.w3.org/2000/svg" width="27" height="37" viewBox="0 0 27 37" fill="none">
<path d="M0 14C0 12.8047 0.984375 11.75 2.25 11.75H24.75C25.9453 11.75 27 12.8047 27 14C27 15.2656 25.9453 16.25 24.75 16.25V18.5C24.75 23.9844 20.8828 28.4844 15.75 29.5391V36.5H11.25V29.5391C6.04688 28.4844 2.25 23.9844 2.25 18.5V16.25C0.984375 16.25 0 15.2656 0 14Z" fill="#6D7175" />
<path d="M9 11.75H4.5V2.75C4.5 1.55469 5.48438 0.5 6.75 0.5C7.94531 0.5 9 1.55469 9 2.75V11.75ZM22.5 11.75H18V2.75C18 1.55469 18.9844 0.5 20.25 0.5C21.4453 0.5 22.5 1.55469 22.5 2.75V11.75Z" fill="#BABFC3" />
</svg>