<svg xmlns="http://www.w3.org/2000/svg" width="41" height="27" viewBox="0 0 41 27" fill="none">
<path d="M27 0C34.4531 0 40.5 6.04688 40.5 13.5C40.5 20.9531 34.4531 27 27 27H13.5C5.97656 27 0 20.9531 0 13.5C0 6.04688 5.97656 0 13.5 0H27ZM27 20.25C30.7266 20.25 33.75 17.2266 33.75 13.5C33.75 9.77344 30.7266 6.75 27 6.75C23.2031 6.75 20.25 9.77344 20.25 13.5C20.25 17.2266 23.2031 20.25 27 20.25Z" fill="#BABFC3" />
<path d="M33.75 13.5C33.75 17.2266 30.7266 20.25 27 20.25C23.2031 20.25 20.25 17.2266 20.25 13.5C20.25 9.77344 23.2031 6.75 27 6.75C30.7266 6.75 33.75 9.77344 33.75 13.5Z" fill="#6D7175" />
</svg>