<svg xmlns="http://www.w3.org/2000/svg" width="45" height="27" viewBox="0 0 45 27" fill="none">
<path d="M45.0001 22.5C45.0001 25.0312 42.961 27 40.5001 27H22.5001V0H40.5001C42.961 0 45.0001 2.03906 45.0001 4.5V22.5ZM35.1564 8.4375C35.1564 7.66406 34.5235 7.03125 33.7501 7.03125C32.9064 7.03125 32.3439 7.66406 32.3439 8.4375V8.71875H28.6876C27.8439 8.71875 27.2814 9.35156 27.2814 10.125C27.2814 10.8984 27.8439 11.5312 28.6876 11.5312H36.211C35.6485 12.7266 34.9454 13.7812 34.1017 14.6953H34.0314L33.047 13.6406C32.4845 13.0781 31.5704 13.0781 31.0079 13.6406C30.5157 14.2031 30.5157 15.1172 31.0079 15.6797L31.922 16.5234C31.5001 16.7344 31.0079 17.0156 30.586 17.2266L30.3048 17.2969C29.6017 17.6484 29.3204 18.4219 29.6017 19.1953C29.9532 19.8984 30.797 20.1797 31.5001 19.8984L31.711 19.7578C32.5548 19.4062 33.3985 18.9141 34.1017 18.4219C34.3829 18.6328 34.7345 18.8438 35.0157 18.9844L36.3517 19.8281C37.0548 20.1797 37.8985 19.9688 38.3204 19.3359C38.672 18.6328 38.461 17.7891 37.8282 17.3672L36.4923 16.5938C36.422 16.5234 36.3517 16.5234 36.2814 16.4531C37.4767 15.1875 38.461 13.5703 39.0939 11.8828L39.2345 11.5312H39.3751C40.1485 11.5312 40.7814 10.8984 40.7814 10.125C40.7814 9.35156 40.1485 8.71875 39.3751 8.71875H35.1564V8.4375ZM11.2501 7.03125C11.7423 7.03125 12.3048 7.38281 12.5157 7.875L17.0157 18C17.297 18.7031 17.0157 19.5469 16.3126 19.8984C15.6095 20.1797 14.7657 19.8984 14.4142 19.1953L13.7814 17.7188H8.64855L8.01573 19.1953C7.66417 19.8984 6.82042 20.1797 6.1173 19.8984C5.41417 19.5469 5.13292 18.7031 5.41417 18L9.91417 7.875C10.1251 7.38281 10.6876 7.03125 11.2501 7.03125ZM9.84386 14.9062H12.586L11.2501 11.9531L9.84386 14.9062Z" fill="#6D7175" />
<path d="M11.25 11.9531L12.5859 14.9062H9.84375L11.25 11.9531ZM0 4.5C0 2.03906 1.96875 0 4.5 0H22.5V27H4.5C1.96875 27 0 25.0312 0 22.5V4.5ZM9.91406 7.875L5.41406 18C5.13281 18.7031 5.41406 19.5469 6.11719 19.8984C6.82031 20.1797 7.66406 19.8984 8.01562 19.1953L8.64844 17.7188H13.7812L14.4141 19.1953C14.7656 19.8984 15.6094 20.1797 16.3125 19.8984C17.0156 19.5469 17.2969 18.7031 17.0156 18L12.5156 7.875C12.3047 7.38281 11.7422 7.03125 11.25 7.03125C10.6875 7.03125 10.125 7.38281 9.91406 7.875Z" fill="#BABFC3" />
</svg>