<svg xmlns="http://www.w3.org/2000/svg" width="36" height="33" viewBox="0 0 36 33" fill="none">
<path d="M9 30C9 31.2656 7.94531 32.25 6.75 32.1094H2.25C0.984375 32.1094 0 31.125 0 29.9297V14.25C0 13.0547 0.984375 12 2.25 12H6.75C7.94531 12 9 12.9844 9 14.25V30Z" fill="#6D7175" />
<path d="M36 14.3203C36 16.0781 34.5938 17.5547 32.8359 17.625C33.3984 18.2578 33.75 19.0312 33.75 19.9453C33.75 21.5625 32.5547 22.8984 30.9375 23.25C31.2891 23.7422 31.5 24.3047 31.5 24.9375C31.5 26.4844 30.5156 27.75 29.1094 28.1719C29.1797 28.3828 29.25 28.6641 29.25 28.9453C29.25 30.7734 27.7031 32.25 25.875 32.25H21.7266C19.2656 32.25 16.9453 31.4766 14.9766 30L12.5859 28.2422C11.7422 27.6094 11.25 26.625 11.25 25.5V14.25C11.25 14.3203 11.25 14.25 11.25 14.25C11.25 13.2656 11.6719 12.3516 12.5156 11.6484L13.6406 10.7344C19.4062 6.16406 16.8047 0.75 21.2344 0.75C23.4141 0.75 24.75 2.50781 24.75 4.19531C24.75 5.25 23.9062 8.27344 22.2891 10.9453H32.625C34.4531 10.9453 36 12.4219 36 14.3203Z" fill="#BABFC3" />
</svg>