<svg width="20" height="20" viewBox="0 0 20 20" fill="none" xmlns="http://www.w3.org/2000/svg">
<path d="M10.5625 4.0625H9.4375V16.4375H10.5625V4.0625ZM9.4375 2.375H10.5625C11.4766 2.375 12.25 3.14844 12.25 4.0625V16.4375C12.25 17.3867 11.4766 18.125 10.5625 18.125H9.4375C8.48828 18.125 7.75 17.3867 7.75 16.4375V4.0625C7.75 3.14844 8.48828 2.375 9.4375 2.375ZM4.9375 10.8125H3.8125V16.4375H4.9375V10.8125ZM3.8125 9.125H4.9375C5.85156 9.125 6.625 9.89844 6.625 10.8125V16.4375C6.625 17.3867 5.85156 18.125 4.9375 18.125H3.8125C2.86328 18.125 2.125 17.3867 2.125 16.4375V10.8125C2.125 9.89844 2.86328 9.125 3.8125 9.125ZM15.0625 6.3125V16.4375H16.1875V6.3125H15.0625ZM13.375 6.3125C13.375 5.39844 14.1133 4.625 15.0625 4.625H16.1875C17.1016 4.625 17.875 5.39844 17.875 6.3125V16.4375C17.875 17.3867 17.1016 18.125 16.1875 18.125H15.0625C14.1133 18.125 13.375 17.3867 13.375 16.4375V6.3125Z" fill="currentColor"/>
</svg>
