<svg width="20" height="20" viewBox="0 0 20 20" fill="none" xmlns="http://www.w3.org/2000/svg">
<path d="M5.34375 5.21875V8.03125H8.15625V5.21875H5.34375ZM3.9375 5.21875C3.9375 4.45703 4.55273 3.8125 5.34375 3.8125H8.15625C8.91797 3.8125 9.5625 4.45703 9.5625 5.21875V8.03125C9.5625 8.82227 8.91797 9.4375 8.15625 9.4375H5.34375C4.55273 9.4375 3.9375 8.82227 3.9375 8.03125V5.21875ZM5.34375 12.7188V15.5312H8.15625V12.7188H5.34375ZM3.9375 12.7188C3.9375 11.957 4.55273 11.3125 5.34375 11.3125H8.15625C8.91797 11.3125 9.5625 11.957 9.5625 12.7188V15.5312C9.5625 16.3223 8.91797 16.9375 8.15625 16.9375H5.34375C4.55273 16.9375 3.9375 16.3223 3.9375 15.5312V12.7188ZM15.6562 5.21875H12.8438V8.03125H15.6562V5.21875ZM12.8438 3.8125H15.6562C16.418 3.8125 17.0625 4.45703 17.0625 5.21875V8.03125C17.0625 8.82227 16.418 9.4375 15.6562 9.4375H12.8438C12.0527 9.4375 11.4375 8.82227 11.4375 8.03125V5.21875C11.4375 4.45703 12.0527 3.8125 12.8438 3.8125ZM12.8438 12.7188V15.5312H15.6562V12.7188H12.8438ZM11.4375 12.7188C11.4375 11.957 12.0527 11.3125 12.8438 11.3125H15.6562C16.418 11.3125 17.0625 11.957 17.0625 12.7188V15.5312C17.0625 16.3223 16.418 16.9375 15.6562 16.9375H12.8438C12.0527 16.9375 11.4375 16.3223 11.4375 15.5312V12.7188Z" fill="currentColor"/>
</svg>
