<svg xmlns="http://www.w3.org/2000/svg" width="24" height="24" viewBox="0 0 24 24">
<g id="Group_4474" data-name="Group 4474" transform="translate(10951 -4712)">
<rect id="Rectangle_2094" data-name="Rectangle 2094" width="24" height="24" transform="translate(-10951 4712)" fill="none" opacity="0" />
<g id="Group_1" data-name="Group 1" transform="translate(-10950 4715)">
<path id="Path_17" data-name="Path 17" d="M17.617,40.968a6.864,6.864,0,0,1-3.843,1.155,6.966,6.966,0,0,1-6.929-6.059H8a1.027,1.027,0,0,0,.869-.474.9.9,0,0,0,0-.967L6.656,30.974a1,1,0,0,0-.869-.474h0a1.027,1.027,0,0,0-.869.474c-.778,1.25-1.933,3.277-2.122,3.556a1.344,1.344,0,0,0-.189.566.916.916,0,0,0,.961.967H4.814a8.994,8.994,0,0,0,8.962,7.993,8.833,8.833,0,0,0,4.9-1.438.955.955,0,0,0,.283-1.344,1.02,1.02,0,0,0-1.342-.307Z" transform="translate(-2.605 -26.138)" fill="currentColor" />
<path id="Path_18" data-name="Path 18" d="M42.874,19.993h-1.25A8.993,8.993,0,0,0,32.666,12a8.833,8.833,0,0,0-4.9,1.438.971.971,0,1,0,1.061,1.626,6.864,6.864,0,0,1,3.843-1.155A6.966,6.966,0,0,1,39.6,19.969H38.444a1.027,1.027,0,0,0-.869.474.9.9,0,0,0,0,.967l2.213,3.654a1,1,0,0,0,.869.474h0a1.027,1.027,0,0,0,.869-.474c.778-1.25,1.933-3.277,2.122-3.556a1.344,1.344,0,0,0,.189-.566.923.923,0,0,0-.963-.949Z" transform="translate(-21.494 -12)" fill="currentColor" />
</g>
</g> 
</svg>