<svg width="50" height="45" viewBox="0 0 50 45" fill="none" xmlns="http://www.w3.org/2000/svg">
<path d="M1.58984 34.5664C0.613281 33.6875 0.613281 32.2227 1.58984 31.2461C2.46875 30.3672 3.93359 30.3672 4.91016 31.2461L10.2812 36.7148V3.21875C10.2812 1.94922 11.2578 0.875 12.625 0.875C13.8945 0.875 14.9688 1.94922 14.9688 3.21875V36.7148L20.3398 31.3438C21.2188 30.3672 22.6836 30.3672 23.5625 31.3438C24.5391 32.2227 24.5391 33.6875 23.5625 34.5664L14.1875 43.9414C13.3086 44.918 11.8438 44.918 10.9648 43.9414L1.58984 34.5664ZM35.9648 1.55859C36.8438 0.679688 38.3086 0.679688 39.2852 1.55859L48.5625 10.9336C49.5391 11.9102 49.5391 13.375 48.5625 14.2539C47.6836 15.2305 46.2188 15.2305 45.2422 14.2539L39.8711 8.88281V42.2812C39.8711 43.6484 38.8945 44.625 37.5273 44.625C36.2578 44.625 35.1836 43.6484 35.1836 42.2812V8.88281L29.8125 14.2539C28.9336 15.2305 27.4688 15.2305 26.5898 14.2539C25.6133 13.375 25.6133 11.9102 26.5898 10.9336L35.9648 1.55859Z" fill="#696868"/>
</svg>
