<svg xmlns="http://www.w3.org/2000/svg" width="14" height="14" viewBox="0 0 14 14" fill="currentColor">
<g><path d="M1.8125 4.6875H9.91211V6.51563C9.91211 6.76953 10.0645 6.99805 10.293 7.07422C10.5215 7.17578 10.7754 7.15039 10.9531 6.97266L13.7969 4.33203C14.0508 4.10352 14.0508 3.67188 13.7969 3.44336L10.9531 0.802736C10.7754 0.625002 10.5215 0.599611 10.293 0.675783C10.0645 0.777346 9.91211 1.00586 9.91211 1.23438V3.0625H1.8125C1.35547 3.0625 1 3.44336 1 3.875C1 4.28125 1.35547 4.6875 1.8125 4.6875ZM13.1875 9.5625H5.0625V7.73438C5.0625 7.48047 4.91016 7.25196 4.68164 7.17578C4.45312 7.09961 4.19922 7.125 4.02148 7.30274L1.17773 9.94336C0.923828 10.1719 0.923828 10.6035 1.17773 10.832L4.02148 13.4727C4.19922 13.6504 4.45312 13.6758 4.68164 13.5742C4.91016 13.498 5.0625 13.2695 5.0625 13.0156V11.1875H13.1875C13.6191 11.1875 14 10.832 14 10.375C14 9.94336 13.6191 9.5625 13.1875 9.5625Z" fill="currontColor" /></g>
</svg>