<svg xmlns="http://www.w3.org/2000/svg" width="33.5" height="33.5" viewBox="0 0 33.5 33.5"><g id="Group_6628" data-name="Group 6628" transform="translate(-166.946 -241.539)"><path id="Path_5640" data-name="Path 5640" d="M183.7,241.539a16.75,16.75,0,1,0,16.75,16.75A16.769,16.769,0,0,0,183.7,241.539Zm0,32a15.25,15.25,0,1,1,15.25-15.25A15.268,15.268,0,0,1,183.7,273.539Z" fill="currentColor"></path><g id="Path_5639" data-name="Path 5639"><path id="Path_5641" data-name="Path 5641" d="M187.624,254.808v1.5h-1.5v-1.5h-4.775v1.5h-1.5v-1.5h-1.217l-1.182,10.25h12.676l-1.181-10.25h-1.321Zm-7.775-1.5V252.6a3.9,3.9,0,1,1,7.775,0v.712h1.765a1,1,0,0,1,.994.885l1.3,11.251a1,1,0,0,1-.878,1.108.9.9,0,0,1-.116.007h-13.8a1,1,0,0,1-1-1,.878.878,0,0,1,.007-.115l1.3-11.255a1,1,0,0,1,.993-.885Zm1.5,0h4.775V252.6a2.4,2.4,0,1,0-4.775,0Z" fill="currentColor"></path></g></g></svg>