<svg xmlns="http://www.w3.org/2000/svg" width="12" height="17" viewBox="0 0 12 17" fill="none">
    <path d="M3.5 14.7188V13.5H8.5L8.46875 14.7188C8.46875 14.875 8.40625 15.125 8.3125 15.25L7.78125 16.0625C7.625 16.3125 7.25 16.5 6.9375 16.5H5.03125C4.71875 16.5 4.34375 16.3125 4.1875 16.0625L3.65625 15.25C3.53125 15.0938 3.5 14.9062 3.5 14.7188ZM6 0.5C9.03125 0.53125 11.5 2.96875 11.5 6C11.5 7.40625 10.9688 8.65625 10.125 9.59375C9.59375 10.1875 8.8125 11.4375 8.5 12.4688C8.5 12.4688 8.5 12.4688 8.5 12.5H3.46875C3.46875 12.4688 3.46875 12.4688 3.46875 12.4688C3.15625 11.4375 2.375 10.1875 1.84375 9.59375C1 8.625 0.5 7.375 0.5 6C0.5 3.09375 2.8125 0.53125 6 0.5ZM9 8.65625C9.625 7.90625 10 6.96875 10 6C10 3.8125 8.1875 2 5.96875 2C3.5 2.03125 2 4.0625 2 6C2 6.96875 2.34375 7.90625 2.96875 8.65625C3.46875 9.1875 4.0625 10.0938 4.5 11H7.46875C7.90625 10.0938 8.5 9.1875 9 8.65625ZM5.5 3C5.75 3 6 3.25 6 3.53125C6 3.78125 5.75 4 5.5 4C4.65625 4 4 4.6875 4 5.5C4 5.78125 3.75 6 3.5 6C3.21875 6 3 5.78125 3 5.5C3 4.125 4.09375 3 5.5 3Z" fill="currentColor" />
</svg>