<svg xmlns="http://www.w3.org/2000/svg" width="16" height="17" viewBox="0 0 16 17" fill="none"><path d="M5.53906 9.5625H4.21094C3.94531 9.5625 3.8125 9.42969 3.8125 9.16406V7.83594C3.8125 7.57031 3.94531 7.4375 4.21094 7.4375H5.53906C5.80469 7.4375 5.9375 7.57031 5.9375 7.83594V9.16406C5.9375 9.42969 5.80469 9.5625 5.53906 9.5625ZM9.125 9.16406C9.125 9.42969 8.99219 9.5625 8.72656 9.5625H7.39844C7.13281 9.5625 7 9.42969 7 9.16406V7.83594C7 7.57031 7.13281 7.4375 7.39844 7.4375H8.72656C8.99219 7.4375 9.125 7.57031 9.125 7.83594V9.16406ZM12.3125 9.16406C12.3125 9.42969 12.1797 9.5625 11.9141 9.5625H10.5859C10.3203 9.5625 10.1875 9.42969 10.1875 9.16406V7.83594C10.1875 7.57031 10.3203 7.4375 10.5859 7.4375H11.9141C12.1797 7.4375 12.3125 7.57031 12.3125 7.83594V9.16406ZM9.125 12.3516C9.125 12.6172 8.99219 12.75 8.72656 12.75H7.39844C7.13281 12.75 7 12.6172 7 12.3516V11.0234C7 10.7578 7.13281 10.625 7.39844 10.625H8.72656C8.99219 10.625 9.125 10.7578 9.125 11.0234V12.3516ZM5.9375 12.3516C5.9375 12.6172 5.80469 12.75 5.53906 12.75H4.21094C3.94531 12.75 3.8125 12.6172 3.8125 12.3516V11.0234C3.8125 10.7578 3.94531 10.625 4.21094 10.625H5.53906C5.80469 10.625 5.9375 10.7578 5.9375 11.0234V12.3516ZM12.3125 12.3516C12.3125 12.6172 12.1797 12.75 11.9141 12.75H10.5859C10.3203 12.75 10.1875 12.6172 10.1875 12.3516V11.0234C10.1875 10.7578 10.3203 10.625 10.5859 10.625H11.9141C12.1797 10.625 12.3125 10.7578 12.3125 11.0234V12.3516ZM15.5 3.71875V15.4062C15.5 15.849 15.3451 16.2253 15.0352 16.5352C14.7253 16.8451 14.349 17 13.9062 17H2.21875C1.77604 17 1.39974 16.8451 1.08984 16.5352C0.779948 16.2253 0.625 15.849 0.625 15.4062V3.71875C0.625 3.27604 0.779948 2.89974 1.08984 2.58984C1.39974 2.27995 1.77604 2.125 2.21875 2.125H3.8125V0.398438C3.8125 0.132812 3.94531 0 4.21094 0H5.53906C5.80469 0 5.9375 0.132812 5.9375 0.398438V2.125H10.1875V0.398438C10.1875 0.132812 10.3203 0 10.5859 0H11.9141C12.1797 0 12.3125 0.132812 12.3125 0.398438V2.125H13.9062C14.349 2.125 14.7253 2.27995 15.0352 2.58984C15.3451 2.89974 15.5 3.27604 15.5 3.71875ZM13.9062 15.207V5.3125H2.21875V15.207C2.21875 15.3398 2.28516 15.4062 2.41797 15.4062H13.707C13.8398 15.4062 13.9062 15.3398 13.9062 15.207Z" fill="currentColor"></path></svg>