<svg className="check-icon" width="16" height="16" viewBox="0 0 17 18" fill="none" xmlns="http://www.w3.org/2000/svg">
<path d="M8.06836 11.4141C7.70312 11.7793 7.13867 11.7793 6.77344 11.4141L4.64844 9.28906C4.2832 8.92383 4.2832 8.35938 4.64844 7.99414C5.01367 7.62891 5.57812 7.62891 5.94336 7.99414L7.4375 9.45508L11.0234 5.86914C11.3887 5.50391 11.9531 5.50391 12.3184 5.86914C12.6836 6.23438 12.6836 6.79883 12.3184 7.16406L8.06836 11.4141ZM17 8.625C17 13.3398 13.1816 17.125 8.5 17.125C3.78516 17.125 0 13.3398 0 8.625C0 3.94336 3.78516 0.125 8.5 0.125C13.1816 0.125 17 3.94336 17 8.625ZM8.5 1.71875C4.68164 1.71875 1.59375 4.83984 1.59375 8.625C1.59375 12.4434 4.68164 15.5312 8.5 15.5312C12.2852 15.5312 15.4062 12.4434 15.4062 8.625C15.4062 4.83984 12.2852 1.71875 8.5 1.71875Z" fill="currentColor"></path>
</svg>