<svg xmlns="http://www.w3.org/2000/svg" width="20" height="20" viewBox="0 0 20 20" fill="none">
    <path d="M19.457 18.8906C19.1055 19.2422 18.4609 19.2422 18.1094 18.8906L10.375 11.0977L2.58203 18.8906C2.23047 19.2422 1.58594 19.2422 1.23438 18.8906C0.882812 18.5391 0.882812 17.8945 1.23438 17.543L9.02734 9.75L1.23438 2.01562C0.882812 1.66406 0.882812 1.01953 1.23438 0.667969C1.58594 0.316406 2.23047 0.316406 2.58203 0.667969L10.375 8.46094L18.1094 0.667969C18.4609 0.316406 19.1055 0.316406 19.457 0.667969C19.8086 1.01953 19.8086 1.66406 19.457 2.01562L11.6641 9.75L19.457 17.543C19.8086 17.8945 19.8086 18.5391 19.457 18.8906Z" fill="currentColor"></path>
</svg>