<svg width="20" height="20" viewBox="0 0 20 20" fill="none" xmlns="http://www.w3.org/2000/svg">
<path d="M16 4.5H4C3.71875 4.5 3.5 4.75 3.5 5V15V15.0312L3.625 14.8438L6.125 11.3438C6.28125 11.125 6.5 11 6.75 11C6.96875 11 7.21875 11.125 7.34375 11.3125L8.3125 12.6562L10.9062 9.3125C11.0312 9.125 11.25 9 11.5 9C11.7188 9 11.9375 9.125 12.0938 9.3125L16.3438 14.8125L16.5 15V5C16.5 4.75 16.25 4.5 16 4.5ZM4 3H16C17.0938 3 18 3.90625 18 5V15C18 16.125 17.0938 17 16 17H4C2.875 17 2 16.125 2 15V5C2 3.90625 2.875 3 4 3ZM6.5 9C5.9375 9 5.46875 8.71875 5.1875 8.25C4.90625 7.8125 4.90625 7.21875 5.1875 6.75C5.46875 6.3125 5.9375 6 6.5 6C7.03125 6 7.5 6.3125 7.78125 6.75C8.0625 7.21875 8.0625 7.8125 7.78125 8.25C7.5 8.71875 7.03125 9 6.5 9Z" fill="currentColor"/>
</svg>
