<svg xmlns="http://www.w3.org/2000/svg" width="32" height="32" viewBox="0 0 32 32" fill="none"><g clip-path="url(#clip0_5503_11199)"><path d="M27 9.875V20.1875C27 21.3477 26.0547 22.25 24.9375 22.25H16.6875C15.5273 22.25 14.625 21.3477 14.625 20.1875V7.8125C14.625 6.69531 15.5273 5.75 16.6875 5.75H22.875V9.875H27Z" fill="currentColor" opacity="0.7"></path><path d="M13.25 20.875C13.25 22.4219 14.4531 23.625 16 23.625H17.375V25.6875C17.375 26.8477 16.4297 27.75 15.3125 27.75H7.0625C5.90234 27.75 5 26.8477 5 25.6875V13.3125C5 12.1953 5.90234 11.25 7.0625 11.25H13.25V20.875ZM22.875 5.75L27 9.875H22.875V5.75Z" fill="currentColor"></path></g><defs><clipPath id="clip0_5503_11199"><rect width="32" height="32" fill="white"></rect></clipPath></defs></svg>