<svg xmlns="http://www.w3.org/2000/svg" width="18.17" height="18.17" viewBox="0 0 18.17 18.17">
<g id="Group_7224" data-name="Group 7224" transform="translate(-32 -32)">
<path id="Path_7006" data-name="Path 7006" d="M124.005,112H114.92a2.92,2.92,0,0,0-2.92,2.92v9.085a2.92,2.92,0,0,0,2.92,2.92h9.085a2.92,2.92,0,0,0,2.92-2.92V114.92A2.92,2.92,0,0,0,124.005,112Z" transform="translate(-76.755 -80)" fill="currentColor"></path>
<path id="Path_7007" data-name="Path 7007" d="M37.191,44.811h9.567a2.925,2.925,0,0,1-2.753,1.947H34.92A2.92,2.92,0,0,1,32,43.838V34.753A2.925,2.925,0,0,1,33.947,32v9.567A3.245,3.245,0,0,0,37.191,44.811Z" transform="translate(0 3.412)" fill="currentColor"></path>
</g>
</svg>