<svg width="20" height="20" viewBox="0 0 20 20" fill="none" xmlns="http://www.w3.org/2000/svg">
<path d="M7.6875 4.28125C6.83789 4.28125 6.07617 4.75 5.63672 5.45312C5.22656 6.18555 5.22656 7.09375 5.63672 7.79688C6.07617 8.5293 6.83789 8.96875 7.6875 8.96875C8.50781 8.96875 9.26953 8.5293 9.70898 7.79688C10.1191 7.09375 10.1191 6.18555 9.70898 5.45312C9.26953 4.75 8.50781 4.28125 7.6875 4.28125ZM7.6875 10.375C6.33984 10.375 5.10938 9.67188 4.43555 8.5C3.76172 7.35742 3.76172 5.92188 4.43555 4.75C5.10938 3.60742 6.33984 2.875 7.6875 2.875C9.00586 2.875 10.2363 3.60742 10.9102 4.75C11.584 5.92188 11.584 7.35742 10.9102 8.5C10.2363 9.67188 9.00586 10.375 7.6875 10.375ZM6.33984 13.1875C4.40625 13.1875 2.82422 14.623 2.56055 16.4688H12.7852C12.5215 14.623 10.9395 13.1875 9.00586 13.1875H6.33984ZM6.33984 11.7812H9.00586C11.9062 11.7812 14.25 14.125 14.25 17.0254C14.25 17.4941 13.8398 17.875 13.3711 17.875H1.97461C1.50586 17.875 1.125 17.4941 1.125 17.0254C1.125 14.125 3.43945 11.7812 6.33984 11.7812ZM18.9668 17.875H14.9531C15.0996 17.6406 15.1875 17.3477 15.1875 17.0254C15.1875 15.1211 14.3086 13.4219 12.9609 12.2793C13.0781 12.2793 13.1953 12.25 13.3418 12.25H15.1289C17.7363 12.25 19.875 14.3887 19.875 16.9961C19.875 17.4941 19.4648 17.875 18.9668 17.875ZM13.7812 10.375C12.873 10.375 12.0527 10.0234 11.4375 9.4375C12.0234 8.64648 12.375 7.67969 12.375 6.625C12.375 5.86328 12.1699 5.10156 11.8184 4.45703C12.375 4.07617 13.0488 3.8125 13.7812 3.8125C15.5684 3.8125 17.0625 5.30664 17.0625 7.09375C17.0625 8.91016 15.5684 10.375 13.7812 10.375Z" fill="currentColor"/>
</svg>
