<svg xmlns="http://www.w3.org/2000/svg" width="36" height="35" viewBox="0 0 36 35">
  <g id="Group_7453" data-name="Group 7453" transform="translate(-938 -526)">
    <rect id="Rectangle_2850" data-name="Rectangle 2850" width="36" height="35" rx="4" transform="translate(938 526)" fill="#121212"/>
    <g id="Group_3785" data-name="Group 3785" transform="translate(945 534)">
      <g id="Group_3784" data-name="Group 3784">
        <g id="Group_3783" data-name="Group 3783">
          <path id="Path_2328" data-name="Path 2328" d="M13.459,16.346V5.657A.66.66,0,0,1,14.108,5a.653.653,0,0,1,.649.657V16.33l2.552-2.552a.652.652,0,0,1,.922.922L14.61,18.322a.634.634,0,0,1-.046.051.66.66,0,0,1-.928,0,.634.634,0,0,1-.046-.051L9.968,14.7a.652.652,0,0,1,.922-.922ZM3,22.883a.62.62,0,0,1,.617-.617H24.583a.617.617,0,1,1,0,1.233H3.617A.623.623,0,0,1,3,22.883Z" transform="translate(-3 -5)" fill="#fff" stroke="#fff" stroke-width="1" fill-rule="evenodd"/>
        </g>
      </g>
    </g>
  </g>
</svg>
