<svg width="17" height="16" viewBox="0 0 17 16" fill="none" xmlns="http://www.w3.org/2000/svg">
<path d="M11.6055 1.46094C12.3379 0.728516 13.5391 0.728516 14.2715 1.46094L15.4141 2.60352C16.1465 3.33594 16.1465 4.53711 15.4141 5.26953L14.0078 6.67578L10.1992 2.86719L11.6055 1.46094ZM13.334 7.34961L6.50781 14.1758C6.21484 14.4688 5.83398 14.7031 5.42383 14.8203L1.87891 15.8457C1.64453 15.9336 1.38086 15.875 1.20508 15.6699C1 15.4941 0.941406 15.2305 1 14.9961L2.05469 11.4512C2.17188 11.041 2.40625 10.6602 2.69922 10.3672L9.52539 3.54102L13.334 7.34961Z" fill="currentColor"/>
</svg>
