<svg xmlns="http://www.w3.org/2000/svg" width="14" height="4" viewBox="0 0 14 4" fill="none">
<path d="M10.6562 1.625C10.6562 0.761719 11.3535 0.03125 12.25 0.03125C13.1133 0.03125 13.8438 0.761719 13.8438 1.625C13.8438 2.52148 13.1133 3.21875 12.25 3.21875C11.3535 3.21875 10.6562 2.52148 10.6562 1.625ZM5.34375 1.625C5.34375 0.761719 6.04102 0.03125 6.9375 0.03125C7.80078 0.03125 8.53125 0.761719 8.53125 1.625C8.53125 2.52148 7.80078 3.21875 6.9375 3.21875C6.04102 3.21875 5.34375 2.52148 5.34375 1.625ZM3.21875 1.625C3.21875 2.52148 2.48828 3.21875 1.625 3.21875C0.728516 3.21875 0.03125 2.52148 0.03125 1.625C0.03125 0.761719 0.728516 0.03125 1.625 0.03125C2.48828 0.03125 3.21875 0.761719 3.21875 1.625Z" fill="currentColor"/>
</svg>