<svg width="20" height="20" viewBox="0 0 20 20" fill="none" xmlns="http://www.w3.org/2000/svg">
<path d="M15.6562 5.04297L15.334 5.36523C13.6641 7.03516 11.4375 7.97266 9.09375 8.03125V11.7812V11.8105C11.4375 11.8398 13.6641 12.8066 15.334 14.4766L15.6562 14.7988V5.04297ZM7.6875 6.625H8.85938C10.9102 6.625 12.873 5.83398 14.3379 4.36914L15.4512 3.25586C16.0371 2.66992 17.0625 3.08008 17.0625 3.92969V8.14844C17.5898 8.41211 18 9.11523 18 9.90625C18 10.7266 17.5898 11.4297 17.0625 11.6934V15.9121C17.0625 16.7617 16.0371 17.1719 15.4512 16.5859L14.3379 15.4727C12.9316 14.0664 11.0566 13.2461 9.09375 13.2168V16.2344C9.09375 17.1426 8.33203 17.875 7.45312 17.875H6.51562C5.60742 17.875 4.875 17.1426 4.875 16.2344V13.1875C3.82031 13.1875 3 12.3672 3 11.3125V8.5C3 7.47461 3.82031 6.625 4.875 6.625H7.6875ZM6.28125 13.1875V16.2344C6.28125 16.3809 6.36914 16.4688 6.51562 16.4688H7.45312C7.57031 16.4688 7.6875 16.3809 7.6875 16.2344V13.1875H6.28125ZM4.875 8.03125C4.61133 8.03125 4.40625 8.26562 4.40625 8.5V11.3125C4.40625 11.5762 4.61133 11.7812 4.875 11.7812H6.28125H7.6875V8.03125H4.875Z" fill="currentColor"/>
</svg>
