<svg width="12" height="12" viewBox="0 0 12 12" fill="none" xmlns="http://www.w3.org/2000/svg">
<path d="M7.10938 1.65625C6.75391 1.65625 6.5 1.40234 6.5 1.04688C6.5 0.716797 6.75391 0.4375 7.10938 0.4375H10.7656C11.0957 0.4375 11.375 0.716797 11.375 1.04688V4.70312C11.375 5.05859 11.0957 5.3125 10.7656 5.3125C10.4102 5.3125 10.1562 5.05859 10.1562 4.70312V2.51953L5.07812 7.57227C4.84961 7.82617 4.46875 7.82617 4.24023 7.57227C3.98633 7.34375 3.98633 6.96289 4.24023 6.70898L9.29297 1.65625H7.10938ZM0 2.67188C0 1.91016 0.634766 1.25 1.42188 1.25H4.26562C4.5957 1.25 4.875 1.5293 4.875 1.85938C4.875 2.21484 4.5957 2.46875 4.26562 2.46875H1.42188C1.29492 2.46875 1.21875 2.57031 1.21875 2.67188V10.3906C1.21875 10.5176 1.29492 10.5938 1.42188 10.5938H9.14062C9.24219 10.5938 9.34375 10.5176 9.34375 10.3906V7.54688C9.34375 7.2168 9.59766 6.9375 9.95312 6.9375C10.2832 6.9375 10.5625 7.2168 10.5625 7.54688V10.3906C10.5625 11.1777 9.90234 11.8125 9.14062 11.8125H1.42188C0.634766 11.8125 0 11.1777 0 10.3906V2.67188Z" fill="currentColor"/>
</svg>
