<svg width="20" height="20" viewBox="0 0 20 20" fill="none" xmlns="http://www.w3.org/2000/svg">
<path d="M7.5 4.5H4.5V7.5H7.5V4.5ZM4.5 3H7.5C8.3125 3 9 3.6875 9 4.5V7.5C9 8.34375 8.3125 9 7.5 9H4.5C3.65625 9 3 8.34375 3 7.5V4.5C3 3.6875 3.65625 3 4.5 3ZM7.5 12.5H4.5V15.5H7.5V12.5ZM4.5 11H7.5C8.3125 11 9 11.6875 9 12.5V15.5C9 16.3438 8.3125 17 7.5 17H4.5C3.65625 17 3 16.3438 3 15.5V12.5C3 11.6875 3.65625 11 4.5 11ZM12.5 4.5V7.5H15.5V4.5H12.5ZM11 4.5C11 3.6875 11.6562 3 12.5 3H15.5C16.3125 3 17 3.6875 17 4.5V7.5C17 8.34375 16.3125 9 15.5 9H12.5C11.6562 9 11 8.34375 11 7.5V4.5ZM14 10.5C14.4062 10.5 14.75 10.8438 14.75 11.25V13.25H16.75C17.1562 13.25 17.5 13.5938 17.5 14C17.5 14.4375 17.1562 14.75 16.75 14.75H14.75V16.75C14.75 17.1875 14.4062 17.5 14 17.5C13.5625 17.5 13.25 17.1875 13.25 16.75V14.75H11.25C10.8125 14.75 10.5 14.4375 10.5 14C10.5 13.5938 10.8125 13.25 11.25 13.25H13.25V11.25C13.25 10.8438 13.5625 10.5 14 10.5Z" fill="currentColor"/>
</svg>
