<svg width="17" height="23" viewBox="0 0 17 23" fill="none" xmlns="http://www.w3.org/2000/svg">
<path d="M14.6875 20V7.625H11.25C10.4766 7.625 9.875 7.02344 9.875 6.25V2.8125H3C2.61328 2.8125 2.3125 3.15625 2.3125 3.5V20C2.3125 20.3867 2.61328 20.6875 3 20.6875H14C14.3438 20.6875 14.6875 20.3867 14.6875 20ZM0.25 3.5C0.25 1.99609 1.45312 0.75 3 0.75H10.0898C10.8203 0.75 11.5078 1.05078 12.0234 1.56641L15.9336 5.47656C16.4492 5.99219 16.75 6.67969 16.75 7.41016V20C16.75 21.5469 15.5039 22.75 14 22.75H3C1.45312 22.75 0.25 21.5469 0.25 20V3.5ZM8.5 10.0312C8.97266 10.0312 9.35938 10.418 9.35938 10.8906V11.3203C9.66016 11.3633 9.96094 11.4492 10.2188 11.4922C10.6914 11.6211 10.9922 12.0938 10.8633 12.5234C10.7773 12.9961 10.3047 13.2969 9.83203 13.168C9.35938 13.082 8.88672 12.9961 8.45703 12.9961C8.11328 12.9531 7.76953 13.0391 7.51172 13.168C7.29688 13.2969 7.29688 13.3828 7.29688 13.4258C7.29688 13.4688 7.33984 13.5117 7.46875 13.5977C7.72656 13.7266 8.15625 13.8555 8.71484 13.9844C9.1875 14.1133 9.83203 14.2852 10.3047 14.5859C10.8203 14.8867 11.3789 15.4023 11.3789 16.2617C11.4219 17.1641 10.9062 17.7656 10.3047 18.0664C10.0039 18.2383 9.66016 18.3672 9.31641 18.4102V18.8398C9.31641 19.3125 8.92969 19.6992 8.45703 19.6992C7.98438 19.6992 7.59766 19.3125 7.59766 18.8398V18.3672C7.16797 18.2812 6.78125 18.1523 6.4375 18.0664C6.35156 18.0234 6.26562 18.0234 6.17969 17.9805C5.70703 17.8516 5.44922 17.3789 5.57812 16.9062C5.70703 16.4336 6.22266 16.1758 6.65234 16.3477C6.78125 16.3477 6.86719 16.3906 6.95312 16.4336C7.55469 16.6055 8.02734 16.7344 8.5 16.7344C8.88672 16.7773 9.23047 16.6914 9.48828 16.5625C9.66016 16.4766 9.70312 16.3906 9.70312 16.2617C9.70312 16.2617 9.70312 16.1758 9.48828 16.0469C9.1875 15.918 8.80078 15.7891 8.24219 15.6602L8.19922 15.6172C7.72656 15.4883 7.125 15.3164 6.65234 15.1016C6.13672 14.8008 5.57812 14.2852 5.57812 13.4258C5.53516 12.5234 6.13672 11.9648 6.69531 11.6641C6.99609 11.4922 7.29688 11.4062 7.64062 11.3203V10.8906C7.64062 10.418 8.02734 10.0312 8.5 10.0312ZM4.375 4.875H7.8125C8.15625 4.875 8.5 5.21875 8.5 5.5625C8.5 5.94922 8.15625 6.25 7.8125 6.25H4.375C3.98828 6.25 3.6875 5.94922 3.6875 5.5625C3.6875 5.21875 3.98828 4.875 4.375 4.875ZM4.375 7.625H7.8125C8.15625 7.625 8.5 7.96875 8.5 8.3125C8.5 8.69922 8.15625 9 7.8125 9H4.375C3.98828 9 3.6875 8.69922 3.6875 8.3125C3.6875 7.96875 3.98828 7.625 4.375 7.625Z" fill="currentColor"/>
</svg>
