<svg xmlns="http://www.w3.org/2000/svg" width="32" height="32" viewBox="0 0 32 32" fill="none"><g clip-path="url(#clip0_5503_11199)">
<path d="M16.75 5.75C18.2539 5.75 19.5 6.99609 19.5 8.5V14.3008C16.3203 15.2031 14 18.125 14 21.5625C14 24.1406 15.2461 26.375 17.1367 27.75C17.0078 27.75 16.8789 27.75 16.75 27.75H5.75C4.20312 27.75 3 26.5469 3 25V8.5C3 6.99609 4.20312 5.75 5.75 5.75H16.75ZM6.4375 11.25C6.05078 11.25 5.75 11.5938 5.75 11.9375C5.75 12.3242 6.05078 12.625 6.4375 12.625H16.0625C16.4062 12.625 16.75 12.3242 16.75 11.9375C16.75 11.5938 16.4062 11.25 16.0625 11.25H6.4375ZM6.4375 16.75H13.3125C13.6562 16.75 14 16.4492 14 16.0625C14 15.7188 13.6562 15.375 13.3125 15.375H6.4375C6.05078 15.375 5.75 15.7188 5.75 16.0625C5.75 16.4492 6.05078 16.75 6.4375 16.75ZM6.4375 20.875H10.5625C10.9062 20.875 11.25 20.5742 11.25 20.1875C11.25 19.8438 10.9062 19.5 10.5625 19.5H6.4375C6.05078 19.5 5.75 19.8438 5.75 20.1875C5.75 20.5742 6.05078 20.875 6.4375 20.875Z" fill="currentColor" opacity="0.7"></path><path d="M27.75 21.5625C27.75 25 24.957 27.75 21.5625 27.75C18.125 27.75 15.375 25 15.375 21.5625C15.375 18.168 18.125 15.375 21.5625 15.375C24.957 15.375 27.75 18.168 27.75 21.5625ZM21.5625 17.4375C20.9609 17.4375 20.5312 17.9102 20.5312 18.4688C20.5312 19.0703 20.9609 19.5 21.5625 19.5C22.1211 19.5 22.5938 19.0703 22.5938 18.4688C22.5938 17.9102 22.1211 17.4375 21.5625 17.4375ZM20.875 20.875C20.4883 20.875 20.1875 21.2188 20.1875 21.5625C20.1875 21.9492 20.4883 22.25 20.875 22.25V24.3125C20.4883 24.3125 20.1875 24.6562 20.1875 25C20.1875 25.3867 20.4883 25.6875 20.875 25.6875H22.25C22.5938 25.6875 22.9375 25.3867 22.9375 25C22.9375 24.6562 22.5938 24.3125 22.25 24.3125V21.5625C22.25 21.2188 21.9062 20.875 21.5625 20.875H20.875Z" fill="currentColor"></path></g><defs><clipPath id="clip0_5503_11199">
<rect width="32" height="32" fill="white"></rect></clipPath></defs></svg>