<svg xmlns="http://www.w3.org/2000/svg" width="13" height="18" viewBox="0 0 13 18" fill="none">
<path d="M9.5957 0.158203C10.2266 0.158203 10.6914 0.755859 10.5254 1.35352L8.73242 7.5625H11.5879C12.2188 7.5625 12.75 8.09375 12.75 8.72461C12.75 9.08984 12.584 9.38867 12.3184 9.62109L3.71875 16.9258C3.55273 17.0586 3.35352 17.125 3.12109 17.125C2.49023 17.125 2.02539 16.5273 2.19141 15.9297L3.98438 9.6875H1.0957C0.498047 9.6875 0 9.18945 0 8.5918C0 8.25977 0.132812 7.92773 0.365234 7.72852L8.99805 0.357422C9.16406 0.224609 9.36328 0.125 9.5957 0.125V0.158203ZM8.40039 2.94727L2.39062 8.09375H5.04688C5.2793 8.09375 5.51172 8.22656 5.67773 8.42578C5.81055 8.625 5.87695 8.89062 5.81055 9.12305L4.31641 14.3359L10.3926 9.15625H7.70312C7.4375 9.15625 7.20508 9.05664 7.03906 8.85742C6.90625 8.6582 6.83984 8.39258 6.90625 8.16016L8.40039 2.94727Z" fill="currentColor"/>
</svg>