<svg xmlns="http://www.w3.org/2000/svg" width="15" height="13" viewBox="0 0 15 13" fill="none">
<path d="M0.400391 1.77344C0.400391 1.14453 0.892578 0.625 1.52148 0.625H13.252C13.8809 0.625 14.4004 1.14453 14.4004 1.77344C14.4004 2.04688 14.291 2.29297 14.127 2.48438L9.58789 8.08984V12C9.58789 12.4922 9.17773 12.875 8.68555 12.875C8.49414 12.875 8.30273 12.8203 8.13867 12.6836L5.62305 10.6875C5.34961 10.4688 5.21289 10.168 5.21289 9.83984V8.08984L0.646484 2.48438C0.482422 2.29297 0.400391 2.04688 0.400391 1.77344ZM1.87695 1.9375L6.36133 7.43359C6.4707 7.57031 6.52539 7.70703 6.52539 7.84375V9.73047L8.27539 11.125V7.84375C8.27539 7.70703 8.30273 7.57031 8.41211 7.43359L12.8965 1.9375H1.87695Z" fill="currentColor"/>
</svg>