<svg xmlns="http://www.w3.org/2000/svg" width="32" height="32" viewBox="0 0 32 32" fill="none"><path d="M12.25 7.5C12.25 5.99609 13.4531 4.75 15 4.75H26C27.5039 4.75 28.75 5.99609 28.75 7.5V24C28.75 25.5469 27.5039 26.75 26 26.75H15C13.4531 26.75 12.25 25.5469 12.25 24V7.5ZM13.625 7.5V24C13.625 24.7734 14.2266 25.375 15 25.375H26C26.7305 25.375 27.375 24.7734 27.375 24V7.5C27.375 6.76953 26.7305 6.125 26 6.125H15C14.2266 6.125 13.625 6.76953 13.625 7.5ZM8.125 7.5C8.125 7.15625 8.42578 6.8125 8.8125 6.8125C9.15625 6.8125 9.5 7.15625 9.5 7.5V24C9.5 24.3867 9.15625 24.6875 8.8125 24.6875C8.42578 24.6875 8.125 24.3867 8.125 24V7.5ZM4 9.5625C4 9.21875 4.30078 8.875 4.6875 8.875C5.03125 8.875 5.375 9.21875 5.375 9.5625V21.9375C5.375 22.3242 5.03125 22.625 4.6875 22.625C4.30078 22.625 4 22.3242 4 21.9375V9.5625Z" fill="currentColor"></path></svg>