<svg xmlns="http://www.w3.org/2000/svg" width="32" height="32" viewBox="0 0 32 32" fill="none">
<g clipPath="url(#clip0_5503_11199)">
<path d="M20.6523 7.16797C21.3828 7.29688 21.8984 7.98438 21.7695 8.75781L19.9648 19.543H17.1719L19.0625 8.28516C19.1914 7.55469 19.8789 7.03906 20.6523 7.16797ZM16.3125 24.7852L16.7422 22.25H19.5352L19.0195 25.2578C18.8906 25.9023 18.332 26.375 17.6875 26.375C17.6016 26.375 17.5156 26.375 17.4297 26.375C16.6992 26.2461 16.1836 25.5586 16.3125 24.7852ZM9.4375 24.7852L11.2422 14H14.0352L12.1445 25.2578C12.0156 25.9023 11.457 26.375 10.8125 26.375C10.7266 26.375 10.6406 26.375 10.5547 26.375C9.82422 26.2461 9.30859 25.5586 9.4375 24.7852ZM13.7773 7.16797C14.5078 7.29688 15.0234 7.98438 14.8945 8.71484L14.4648 11.25H11.6719L12.1875 8.28516C12.3164 7.55469 13.0039 7.03906 13.7773 7.16797Z" fill="currentColor" opacity="0.5" />
<path d="M23.875 11.25C24.6055 11.25 25.25 11.8945 25.25 12.625C25.25 13.3555 24.6055 14 23.875 14H20.9102L21.3398 11.25H23.875ZM6 20.875C6 20.1445 6.60156 19.5 7.375 19.5H10.2969L9.86719 22.25H7.375C6.60156 22.25 6 21.6484 6 20.875ZM22.5 19.5C23.2305 19.5 23.875 20.1445 23.875 20.875C23.875 21.6055 23.2305 22.25 22.5 22.25H12.6602L13.0898 19.5H22.5ZM8.75 14C7.97656 14 7.375 13.3984 7.375 12.625C7.375 11.8516 7.97656 11.25 8.75 11.25H18.5469L18.1172 14H8.75Z" fill="currentColor" />
</g>
<defs>
<clipPath id="clip0_5503_11199">
<rect width="32" height="32" fill="white" />
</clipPath>
</defs>
</svg>