<svg width="20" height="20" viewBox="0 0 20 20" fill="none" xmlns="http://www.w3.org/2000/svg">
<path d="M9.5 2.1875C9.78125 1.96875 10.1875 1.96875 10.4688 2.1875L18.7188 9.1875C19.0312 9.46875 19.0938 9.9375 18.8125 10.25C18.5312 10.5625 18.0625 10.5938 17.75 10.3438L17 9.6875V15.5C17 16.9062 15.875 18 14.5 18H5.5C4.09375 18 3 16.9062 3 15.5V9.6875L2.21875 10.3438C1.90625 10.5938 1.4375 10.5625 1.15625 10.25C0.90625 9.9375 0.9375 9.46875 1.25 9.1875L9.5 2.1875ZM10 3.75L4.5 8.40625V15.5C4.5 16.0625 4.9375 16.5 5.5 16.5H7V11.75C7 11.0625 7.53125 10.5 8.25 10.5H11.75C12.4375 10.5 13 11.0625 13 11.75V16.5H14.5C15.0312 16.5 15.5 16.0625 15.5 15.5V8.40625L10 3.75ZM8.5 16.5H11.5V12H8.5V16.5Z" fill="currentColor"/>
</svg>
