<svg xmlns="http://www.w3.org/2000/svg" width="32" height="32" viewBox="0 0 32 32" fill="none"><path d="M9.43359 10.4219C11.5391 8.27344 15.0195 8.27344 17.168 10.4219C19.2305 12.4414 19.3164 15.707 17.4688 17.8984L17.2109 18.1562C16.9531 18.457 16.5234 18.5 16.2656 18.2422C15.9648 17.9844 15.9219 17.5547 16.1797 17.2539L16.3945 16.9961C17.8125 15.3633 17.7266 12.9141 16.2227 11.4102C14.5898 9.77734 12.0117 9.77734 10.3789 11.4102L5.05078 16.7383C3.41797 18.3711 3.41797 20.9492 5.05078 22.582C6.64062 24.1719 9.26172 24.1719 10.8516 22.582L11.8398 21.5938C12.0977 21.3359 12.5273 21.3359 12.8281 21.5938C13.0859 21.8516 13.0859 22.3242 12.8281 22.582L11.8398 23.5273C9.69141 25.6758 6.21094 25.6758 4.0625 23.5273C1.91406 21.3789 1.91406 17.8984 4.0625 15.75L9.43359 10.4219ZM22.0234 21.1211C19.918 23.2695 16.4375 23.2695 14.2891 21.1211C12.2266 19.1016 12.1406 15.8359 13.9883 13.6445L14.2461 13.3867C14.5039 13.0859 14.9336 13.043 15.1914 13.3008C15.4922 13.5586 15.5352 13.9883 15.2773 14.2891L15.0625 14.5469C13.6445 16.1797 13.7305 18.6289 15.2344 20.1328C16.8672 21.7656 19.4453 21.7656 21.0781 20.1328L26.4062 14.8047C28.0391 13.1719 28.0391 10.5938 26.4062 8.96094C24.8164 7.37109 22.1953 7.37109 20.6055 8.96094L19.6172 9.94922C19.3594 10.207 18.9297 10.207 18.6289 9.94922C18.3711 9.64844 18.3711 9.21875 18.6289 8.96094L19.6172 7.97266C21.7656 5.82422 25.2461 5.82422 27.3945 7.97266C29.543 10.1211 29.543 13.6016 27.3945 15.75L22.0234 21.1211Z" fill="currentColor"></path></svg>