<svg xmlns="http://www.w3.org/2000/svg" width="32" height="32" viewBox="0 0 32 32" fill="none"><g clip-path="url(#clip0_5503_11199)"><path d="M5.81641 12.2383L15.1406 19.2422C15.6562 19.6289 16.3008 19.6289 16.8164 19.2422L26.1406 12.2383C26.6562 11.8516 27 11.25 27 10.5625V22.25C27 23.7969 25.7539 25 24.25 25H7.75C6.20312 25 5 23.7969 5 22.25V10.5625C5 11.25 5.30078 11.8516 5.81641 12.2383Z" fill="currentColor" opacity="0.7"></path><path d="M24.9375 8.5C26.0547 8.5 27 9.44531 27 10.5625C27 11.25 26.6562 11.8516 26.1406 12.2383L16.8164 19.2422C16.3008 19.6289 15.6562 19.6289 15.1406 19.2422L5.81641 12.2383C5.30078 11.8516 5 11.25 5 10.5625C5 9.44531 5.90234 8.5 7.0625 8.5H24.9375Z" fill="currentColor"></path></g><defs><clipPath id="clip0_5503_11199"><rect width="32" height="32" fill="white"></rect></clipPath></defs></svg>