<svg xmlns="http://www.w3.org/2000/svg" width="32" height="32" viewBox="0 0 32 32" fill="none">
<g clipPath="url(#clip0_5503_11199)">
<path d="M24.9375 7.125C26.0547 7.125 27 8.07031 27 9.1875V24.3125C27 25.4727 26.0547 26.375 24.9375 26.375H7.0625C5.90234 26.375 5 25.4727 5 24.3125V9.1875C5 8.07031 5.90234 7.125 7.0625 7.125H24.9375ZM9.76953 9.875C8.65234 9.875 7.70703 10.8203 7.70703 11.9375C7.70703 13.0977 8.56641 14 9.76953 14C10.9297 14 11.832 13.0977 11.832 11.9375C11.832 10.8203 10.8867 9.875 9.76953 9.875ZM24.1641 23.2812C24.25 23.0664 24.25 22.7656 24.1211 22.5938L18.6211 14.3438C18.4922 14.1289 18.2773 14 18.0625 14C17.8047 14 17.5898 14.1289 17.4609 14.3438L13.4648 20.3594L12.0469 18.4258C11.918 18.2539 11.7461 18.125 11.5312 18.125C11.2734 18.125 11.1016 18.2539 10.9727 18.4258L7.96484 22.5508C7.79297 22.7656 7.79297 23.0234 7.87891 23.2812C8.00781 23.4961 8.22266 23.625 8.52344 23.625H23.5625C23.7773 23.625 24.0352 23.4961 24.1641 23.2812Z" fill="currentColor" opacity="0.7" />
<path d="M24.1641 23.2812C24.0352 23.4961 23.7773 23.625 23.5625 23.625H8.52344C8.22266 23.625 8.00781 23.4961 7.87891 23.2812C7.79297 23.0234 7.79297 22.7656 7.96484 22.5508L10.9727 18.4258C11.1016 18.2539 11.2734 18.125 11.5312 18.125C11.7461 18.125 11.918 18.2539 12.0469 18.4258L13.4648 20.3594L17.4609 14.3438C17.5898 14.1289 17.8047 14 18.0625 14C18.2773 14 18.4922 14.1289 18.6211 14.3438L24.1211 22.5938C24.25 22.7656 24.25 23.0664 24.1641 23.2812Z" fill="currentColor" />
</g>
<defs>
<clipPath id="clip0_5503_11199">
<rect width="32" height="32" fill="white" />
</clipPath>
</defs>
</svg>