<svg width="19" height="19" viewBox="0 0 19 19" fill="none" xmlns="http://www.w3.org/2000/svg">
<path d="M7.53125 4.75C9.99219 4.75 12.3477 3.80078 14.1055 2.04297L15.4414 0.707031C16.1445 0.00390625 17.375 0.496094 17.375 1.51562V6.57812C18.0078 6.89453 18.5 7.73828 18.5 8.6875C18.5 9.67188 18.0078 10.5156 17.375 10.832V15.8945C17.375 16.9141 16.1445 17.4062 15.4414 16.7031L14.1055 15.3672C12.418 13.6797 10.168 12.6953 7.8125 12.6602V16.2812C7.8125 17.3711 6.89844 18.25 5.84375 18.25H4.71875C3.62891 18.25 2.75 17.3711 2.75 16.2812V12.625C1.48438 12.625 0.5 11.6406 0.5 10.375V7C0.5 5.76953 1.48438 4.75 2.75 4.75H7.53125ZM15.6875 2.85156L15.3008 3.23828C13.2969 5.24219 10.625 6.36719 7.8125 6.4375V10.9727C10.625 11.0078 13.2969 12.168 15.3008 14.1719L15.6875 14.5586V2.85156ZM4.4375 16.2812C4.4375 16.457 4.54297 16.5625 4.71875 16.5625H5.84375C5.98438 16.5625 6.125 16.457 6.125 16.2812V12.625H4.4375V16.2812ZM2.1875 7V10.375C2.1875 10.6914 2.43359 10.9375 2.75 10.9375H6.125V6.4375H2.75C2.43359 6.4375 2.1875 6.71875 2.1875 7Z" fill="currentColor"/>
</svg>
