<svg xmlns="http://www.w3.org/2000/svg" width="37" height="37" viewBox="0 0 37 37" fill="none">
<path d="M26.9067 1.69532C28.6646 -0.132803 31.8286 1.13282 31.8286 3.66407V31.1563C31.8286 33.6875 28.6646 34.9531 26.9067 33.125L25.2896 31.3672C22.1958 28.1328 18.188 26.0938 13.8286 25.5313V32.5625C13.8286 34.7422 12.0005 36.5 9.89111 36.5H8.76611C6.58643 36.5 4.82861 34.7422 4.82861 32.5625V25.25C2.29736 25.25 0.328613 23.2813 0.328613 20.75V14C0.328613 11.5391 2.29736 9.50001 4.82861 9.50001H10.3833L12.4224 9.4297C17.3442 9.14845 21.9146 7.03907 25.2896 3.45313L26.9067 1.69532ZM29.5786 3.66407C29.5786 3.10157 28.9458 2.89063 28.5942 3.2422L26.9067 5.00001C23.9536 8.09376 20.1567 10.2734 16.0786 11.1875V23.6328C20.1567 24.5469 23.9536 26.6563 26.9067 29.8203L28.5942 31.5781C28.9458 31.9297 29.5786 31.6484 29.5786 31.1563V3.66407ZM13.8286 23.2813V11.5391C13.4067 11.6094 12.9849 11.6094 12.563 11.6797L10.4536 11.75H4.82861C3.56299 11.75 2.57861 12.8047 2.57861 14V20.75C2.57861 22.0156 3.56299 23 4.82861 23H10.4536L12.563 23.1406C12.9849 23.1406 13.4067 23.2109 13.8286 23.2813ZM7.07861 25.25V32.5625C7.07861 33.5469 7.78174 34.25 8.76611 34.25H9.89111C10.8052 34.25 11.5786 33.5469 11.5786 32.5625V25.3203L10.3833 25.25H7.07861ZM35.2036 14C35.7661 14 36.3286 14.5625 36.3286 15.125V19.625C36.3286 20.2578 35.7661 20.75 35.2036 20.75C34.5708 20.75 34.0786 20.2578 34.0786 19.625V15.125C34.0786 14.5625 34.5708 14 35.2036 14Z" fill="currentColor" />
</svg>