<svg xmlns="http://www.w3.org/2000/svg" width="12" height="16" viewBox="0 0 12 16" fill="none">
<path d="M2.25 2V14H9.75V2H2.25ZM1.5 0.5H10.5C10.71 0.5 10.885 0.575 11.025 0.725C11.175 0.865 11.25 1.04 11.25 1.25V14.75C11.25 14.96 11.175 15.14 11.025 15.29C10.885 15.43 10.71 15.5 10.5 15.5H1.5C1.29 15.5 1.11 15.43 0.96 15.29C0.82 15.14 0.75 14.96 0.75 14.75V1.25C0.75 1.04 0.82 0.865 0.96 0.725C1.11 0.575 1.29 0.5 1.5 0.5ZM6 11.75C6.21 11.75 6.385 11.825 6.525 11.975C6.675 12.115 6.75 12.29 6.75 12.5C6.75 12.71 6.675 12.89 6.525 13.04C6.385 13.18 6.21 13.25 6 13.25C5.79 13.25 5.61 13.18 5.46 13.04C5.32 12.89 5.25 12.71 5.25 12.5C5.25 12.29 5.32 12.115 5.46 11.975C5.61 11.825 5.79 11.75 6 11.75Z" fill="currentColor" />
</svg>