<svg width="14" height="16" viewBox="0 0 14 16" fill="none" xmlns="http://www.w3.org/2000/svg">
<path d="M6.77063 0.875C7.26868 0.875 7.70813 1.31445 7.70813 1.8125V2.39844C9.8468 2.80859 11.4581 4.71289 11.4581 6.96875V7.73047C11.4581 9.04883 11.8976 10.3379 12.7179 11.3926L13.1573 11.9199C13.3331 12.1543 13.3624 12.4473 13.2452 12.6816C13.1281 12.916 12.8937 13.0625 12.63 13.0625H0.911255C0.618286 13.0625 0.383911 12.916 0.266724 12.6816C0.149536 12.4473 0.178833 12.1543 0.354614 11.9199L0.794067 11.3926C1.61438 10.3379 2.08313 9.04883 2.08313 7.73047V6.96875C2.08313 4.71289 3.69446 2.80859 5.83313 2.39844V1.8125C5.83313 1.31445 6.24329 0.875 6.77063 0.875ZM6.77063 3.6875C4.95422 3.6875 3.48938 5.18164 3.48938 6.96875V7.73047C3.48938 9.13672 3.07922 10.4844 2.3175 11.6562H11.1945C10.4327 10.4844 10.0519 9.13672 10.0519 7.73047V6.96875C10.0519 5.18164 8.55774 3.6875 6.77063 3.6875ZM8.64563 14C8.64563 14.498 8.44055 14.9961 8.08899 15.3477C7.73743 15.6992 7.26868 15.875 6.77063 15.875C6.27258 15.875 5.77454 15.6992 5.42297 15.3477C5.07141 14.9961 4.89563 14.498 4.89563 14H6.77063H8.64563Z" fill="currentColor"/>
</svg>
