<svg xmlns="http://www.w3.org/2000/svg" width="37" height="33" viewBox="0 0 37 33" fill="none">
<path d="M0.995117 5.25C0.995117 2.78906 2.96387 0.75 5.49512 0.75H32.4951C34.9561 0.75 36.9951 2.78906 36.9951 5.25V27.75C36.9951 30.2812 34.9561 32.25 32.4951 32.25H5.49512C2.96387 32.25 0.995117 30.2812 0.995117 27.75V5.25ZM12.2451 7.5H34.7451V5.25C34.7451 4.05469 33.6904 3 32.4951 3H12.2451V7.5ZM9.99512 3H5.49512C4.22949 3 3.24512 4.05469 3.24512 5.25V7.5H9.99512V3ZM3.24512 9.75V27.75C3.24512 29.0156 4.22949 30 5.49512 30H32.4951C33.6904 30 34.7451 29.0156 34.7451 27.75V9.75H3.24512Z" fill="currentColor" />
</svg>