<svg width="22" height="18" viewBox="0 0 22 18" fill="none" xmlns="http://www.w3.org/2000/svg">
<path d="M18.2178 8.087C17.6311 7.0695 14.4045 1.96367 8.92281 2.12867C3.85364 2.257 0.92031 6.712 0.12281 8.087C0.0423558 8.22635 0 8.38442 0 8.54533C0 8.70624 0.0423558 8.86432 0.12281 9.00367C0.70031 10.0028 3.78948 14.962 9.18864 14.962H9.41781C14.487 14.8337 17.4295 10.3787 18.2178 9.00367C18.2983 8.86432 18.3406 8.70624 18.3406 8.54533C18.3406 8.38442 18.2983 8.22635 18.2178 8.087ZM9.37198 13.1287C5.42114 13.2203 2.84531 9.83783 2.03864 8.54533C2.95531 7.0695 5.34781 4.05367 9.01448 3.962C12.947 3.86117 15.532 7.25283 16.3478 8.54533C15.4036 10.0212 13.0386 13.037 9.37198 13.1287Z" fill="#D9D9D9"/>
<path d="M9.17031 5.33691C8.53576 5.33691 7.91546 5.52508 7.38786 5.87762C6.86025 6.23015 6.44903 6.73123 6.2062 7.31747C5.96337 7.90372 5.89983 8.54881 6.02362 9.17116C6.14742 9.79352 6.45298 10.3652 6.90168 10.8139C7.35037 11.2626 7.92204 11.5681 8.5444 11.6919C9.16675 11.8157 9.81184 11.7522 10.3981 11.5094C10.9843 11.2665 11.4854 10.8553 11.8379 10.3277C12.1905 9.80009 12.3786 9.1798 12.3786 8.54525C12.3786 7.69434 12.0406 6.87829 11.4389 6.27661C10.8373 5.67493 10.0212 5.33691 9.17031 5.33691ZM9.17031 9.92025C8.89836 9.92025 8.63252 9.83961 8.4064 9.68852C8.18028 9.53743 8.00405 9.32269 7.89998 9.07144C7.79591 8.82019 7.76868 8.54372 7.82173 8.277C7.87479 8.01027 8.00574 7.76527 8.19804 7.57298C8.39034 7.38068 8.63534 7.24972 8.90206 7.19667C9.16878 7.14361 9.44525 7.17084 9.6965 7.27491C9.94775 7.37898 10.1625 7.55522 10.3136 7.78134C10.4647 8.00746 10.5453 8.2733 10.5453 8.54525C10.5453 8.90992 10.4004 9.25966 10.1426 9.51752C9.88472 9.77538 9.53498 9.92025 9.17031 9.92025Z" fill="#D9D9D9"/>
<path d="M9.17031 5.33691C8.53576 5.33691 7.91546 5.52508 7.38786 5.87762C6.86025 6.23015 6.44903 6.73123 6.2062 7.31747C5.96337 7.90372 5.89983 8.54881 6.02362 9.17116C6.14742 9.79352 6.45298 10.3652 6.90168 10.8139C7.35037 11.2626 7.92204 11.5681 8.5444 11.6919C9.16675 11.8157 9.81184 11.7522 10.3981 11.5094C10.9843 11.2665 11.4854 10.8553 11.8379 10.3277C12.1905 9.80009 12.3786 9.1798 12.3786 8.54525C12.3786 7.69434 12.0406 6.87829 11.4389 6.27661C10.8373 5.67493 10.0212 5.33691 9.17031 5.33691Z" fill="#545454"/>
</svg>
