<svg xmlns="http://www.w3.org/2000/svg" width="11" height="14" viewBox="0 0 11 14" fill="none">
<path d="M1.3125 1.4375C1.3125 1.00586 1.66797 0.625 2.125 0.625H8.625C9.05664 0.625 9.4375 1.00586 9.4375 1.4375C9.4375 1.89453 9.05664 2.25 8.625 2.25H7.86328L8.14258 6.0332C9.08203 6.54102 9.81836 7.37891 10.1738 8.41992L10.1992 8.49609C10.2754 8.75 10.2246 9.0293 10.0723 9.23242C9.91992 9.46094 9.69141 9.5625 9.4375 9.5625H1.3125C1.0332 9.5625 0.804688 9.46094 0.652344 9.23242C0.5 9.0293 0.449219 8.75 0.525391 8.49609L0.550781 8.41992C0.90625 7.37891 1.64258 6.54102 2.58203 6.0332L2.86133 2.25H2.125C1.66797 2.25 1.3125 1.89453 1.3125 1.4375ZM6.1875 10.375V12.8125C6.1875 13.2695 5.80664 13.625 5.375 13.625C4.91797 13.625 4.5625 13.2695 4.5625 12.8125V10.375H6.1875Z" fill="currentColor"/>
</svg>