<svg xmlns="http://www.w3.org/2000/svg" width="14" height="15" viewBox="0 0 14 15" fill="none"><path d="M5.14062 4.79688C5.33203 4.66016 5.60547 4.66016 5.79688 4.79688L9.73438 7.20312C9.92578 7.3125 10.0625 7.53125 10.0625 7.75C10.0625 7.99609 9.92578 8.21484 9.73438 8.32422L5.79688 10.7305C5.60547 10.8398 5.33203 10.8672 5.14062 10.7305C4.92188 10.6211 4.8125 10.4023 4.8125 10.1562V5.34375C4.8125 5.125 4.92188 4.90625 5.14062 4.79688ZM14 7.75C14 11.6328 10.8555 14.75 7 14.75C3.11719 14.75 0 11.6328 0 7.75C0 3.89453 3.11719 0.75 7 0.75C10.8555 0.75 14 3.89453 14 7.75ZM7 2.0625C3.85547 2.0625 1.3125 4.63281 1.3125 7.75C1.3125 10.8945 3.85547 13.4375 7 13.4375C10.1172 13.4375 12.6875 10.8945 12.6875 7.75C12.6875 4.63281 10.1172 2.0625 7 2.0625Z" fill="currentColor"></path></svg>