<svg width="20" height="20" viewBox="0 0 20 20" fill="none" xmlns="http://www.w3.org/2000/svg">
<path d="M7.875 5.34375V6.9375H12.125V5.34375C12.125 4.18164 11.1621 3.21875 10 3.21875C8.80469 3.21875 7.875 4.18164 7.875 5.34375ZM6.28125 6.9375V5.34375C6.28125 3.31836 7.94141 1.625 10 1.625C12.0254 1.625 13.7188 3.31836 13.7188 5.34375V6.9375H15.8438C16.707 6.9375 17.4375 7.66797 17.4375 8.53125V15.4375C17.4375 17.1973 16.0098 18.625 14.25 18.625H5.75C3.99023 18.625 2.5625 17.1973 2.5625 15.4375V8.53125C2.5625 7.66797 3.25977 6.9375 4.15625 6.9375H6.28125ZM7.07812 8.53125C6.61328 8.53125 6.28125 8.89648 6.28125 9.32812C6.28125 9.79297 6.61328 10.125 7.07812 10.125C7.50977 10.125 7.875 9.79297 7.875 9.32812C7.875 8.89648 7.50977 8.53125 7.07812 8.53125ZM12.125 9.32812C12.125 9.79297 12.457 10.125 12.9219 10.125C13.3535 10.125 13.7188 9.79297 13.7188 9.32812C13.7188 8.89648 13.3535 8.53125 12.9219 8.53125C12.457 8.53125 12.125 8.89648 12.125 9.32812Z" fill="currentColor"/>
</svg>
