<svg width="17" height="17" viewBox="0 0 17 17" fill="none" xmlns="http://www.w3.org/2000/svg">
<path d="M1 9.15625L15 1.15625C15.3125 0.96875 15.75 0.96875 16.0625 1.1875C16.375 1.40625 16.5312 1.78125 16.4688 2.15625L14.4688 15.1562C14.375 15.7812 13.6875 16.1875 13.0938 15.9375L9.21875 14.3125L7.28125 16.6562C7.09375 16.875 6.8125 17 6.5 17C5.9375 17 5.5 16.5625 5.5 16V12.75L1.09375 10.9375C0.34375 10.625 0.28125 9.5625 1 9.15625ZM2.625 9.9375L6.46875 11.5312L6.4375 11.5L13.2812 3.84375L2.625 9.9375ZM13.0938 14.3125L14.5625 4.65625L7.875 12.125L13.0938 14.3125Z" fill="currentColor"/>
</svg>
