<svg xmlns="http://www.w3.org/2000/svg" width="32" height="32" viewBox="0 0 32 32" fill="none">
<g clipPath="url(#clip0_5503_11199)">
       <path d="M24.8516 19.9297C23.6055 23.7969 20.0391 26.375 15.957 26.375C12.9062 26.375 10.1133 24.9141 8.4375 22.5078V25.6875C8.4375 26.4609 7.79297 27.0625 7.0625 27.0625C6.28906 27.0625 5.6875 26.4609 5.6875 25.6875V19.5C5.6875 18.7695 6.28906 18.125 7.0625 18.125H12.5625C13.293 18.125 13.9375 18.7695 13.9375 19.5C13.9375 20.2734 13.293 20.875 12.5625 20.875H10.6289C11.832 22.5938 13.8086 23.625 16 23.625C18.8359 23.625 21.3711 21.8203 22.2305 19.1133C22.4453 18.3828 23.2188 17.9961 23.9492 18.2109C24.6797 18.4258 25.0664 19.1992 24.8516 19.9297Z" fill="currentColor" opacity="0.7" />
       <path d="M26.3125 7.8125V14C26.3125 14.7734 25.668 15.375 24.9375 15.375H19.4375C18.6641 15.375 18.0625 14.7734 18.0625 14C18.0625 13.2695 18.6641 12.625 19.4375 12.625H21.3281C20.125 10.9492 18.1484 9.875 16 9.875C13.1211 9.875 10.5859 11.7227 9.72656 14.4297C9.51172 15.1602 8.73828 15.5469 8.00781 15.332C7.27734 15.0742 6.89062 14.3008 7.10547 13.6133C8.35156 9.74609 11.918 7.125 16 7.125C19.0508 7.125 21.8438 8.62891 23.5625 11.0352V7.8125C23.5625 7.08203 24.1641 6.4375 24.9375 6.4375C25.668 6.4375 26.3125 7.08203 26.3125 7.8125Z" fill="currentColor" />
</g>
<defs>
       <clipPath id="clip0_5503_11199">
       <rect width="32" height="32" fill="white" />
       </clipPath>
</defs>
</svg>