<svg xmlns="http://www.w3.org/2000/svg" width="32" height="32" viewBox="0 0 32 32" fill="none"><g clip-path="url(#clip0_5503_11199)"><path d="M5.98828 17.125C5.64453 17.125 5.30078 16.9531 5.12891 16.6094C4.91406 16.3086 4.91406 15.8789 5.12891 15.5781L7.40625 11.8398C7.96484 10.9375 8.95312 10.3359 10.0273 10.3359H13.5078C12.3047 12.3125 10.8867 15.2773 10.0703 17.125H5.98828ZM21.3711 21.7227C21.3711 22.7969 20.8125 23.7852 19.9102 24.3438L16.1719 26.6211C15.8711 26.793 15.4414 26.8359 15.1406 26.6211C14.7969 26.4492 14.582 26.1055 14.582 25.7188V21.5938C16.4727 20.7773 19.4375 19.4453 21.3711 18.2422V21.7227ZM12.1328 24.9453C10.0273 27.0938 5 26.75 5 26.75C5 26.75 4.65625 21.7227 6.76172 19.6172C8.26562 18.1562 10.6719 18.1562 12.1328 19.6172C13.5938 21.0781 13.5938 23.4844 12.1328 24.9453ZM10.1133 21.6367C9.64062 21.1211 8.82422 21.1211 8.35156 21.6367C7.62109 22.3242 7.75 24 7.75 24C7.75 24 9.42578 24.1289 10.1133 23.3984C10.6289 22.9258 10.6289 22.1094 10.1133 21.6367Z" fill="currentColor" opacity="0.7"></path><path d="M14.582 21.5938C14.4102 19.1875 12.4766 17.2969 10.0703 17.168C10.9727 15.1055 12.5625 11.7109 13.8945 9.77734C17.418 4.57812 22.6602 4.40625 25.7539 5.00781C26.2695 5.09375 26.6562 5.48047 26.7422 5.99609C27.3438 9.08984 27.1719 14.332 21.9727 17.8555C20.0391 19.1445 16.6875 20.6914 14.582 21.5938ZM21.5 8.53125C20.5117 8.53125 19.7812 9.30469 19.7812 10.25C19.7812 11.2383 20.5117 11.9688 21.5 11.9688C22.4453 11.9688 23.2188 11.2383 23.2188 10.25C23.2188 9.30469 22.4453 8.53125 21.5 8.53125Z" fill="currentColor"></path></g><defs><clipPath id="clip0_5503_11199"><rect width="32" height="32" fill="white"></rect></clipPath></defs></svg>