<svg xmlns="http://www.w3.org/2000/svg" width="106.08" height="102" viewBox="0 0 106.08 102">
    <g id="noun_Carousel_1824275" transform="translate(121 259)">
        <g id="Group_5757" data-name="Group 5757" transform="translate(-121 -259)">
            <rect id="Rectangle_2358" data-name="Rectangle 2358" width="85.68" height="83.64" rx="12" fill="currentColor" />
            <path id="Path_6694" data-name="Path 6694" d="M78.348,5.03a13.26,13.26,0,0,1,6,1.51,11.4,11.4,0,0,1,4.61,4.61c1.061,2.04,1.632,4,1.632,9.466V70.8c0,5.467-.571,7.466-1.632,9.466a11.424,11.424,0,0,1-4.61,4.61c-2.04,1.061-4,1.632-9.466,1.632H20.616c-5.467,0-7.466-.571-9.466-1.632a11.138,11.138,0,0,1-4.61-4.61,13.26,13.26,0,0,1-1.51-6H57.417c7.3,0,9.914-.775,12.566-2.162a14.81,14.81,0,0,0,6.2-6.2c1.387-2.652,2.162-5.3,2.162-12.566V5.03Z" transform="translate(15.492 15.492)" fill="currentColor" fillRule="evenodd" />
        </g>
    </g>
</svg>