<svg xmlns="http://www.w3.org/2000/svg" width="41" height="38" viewBox="0 0 41 38">
  <g id="Group_7447" data-name="Group 7447" transform="translate(-1087 -520)">
    <g id="Group_3921" data-name="Group 3921" transform="translate(4229 -3091)">
      <rect id="Rectangle_1916" data-name="Rectangle 1916" width="32" height="32" transform="translate(-3142 3611)" fill="none" opacity="0"/>
      <path id="Path_5284" data-name="Path 5284" d="M-148.644,459.275c-.108-3.248-.351-6.492-.546-9.737a22.054,22.054,0,0,0-.255-2.873,4.413,4.413,0,0,0-4.449-3.624h-2.663a6.622,6.622,0,0,0-1.983-4.8,6.622,6.622,0,0,0-4.834-1.892A6.563,6.563,0,0,0-168,438.354a6.563,6.563,0,0,0-1.835,4.694c-1.049,0-2.061-.018-3.071,0a4.45,4.45,0,0,0-4.35,4.2c-.082,1.357-.177,2.712-.256,4.068-.161,2.833-.411,5.664-.467,8.5A8.53,8.53,0,0,0-175.532,466a8.53,8.53,0,0,0,6.145,2.551c4.009.023,8.018,0,12.027-.013a8.085,8.085,0,0,0,3.965-.983A8.614,8.614,0,0,0-148.644,459.275Zm-16.936-19.563a3.994,3.994,0,0,1,4.434-.184,3.625,3.625,0,0,1,1.95,3.492h-8.021a3.534,3.534,0,0,1,1.637-3.31Zm8.983,8.764a5.441,5.441,0,0,1-.506,2.132,6.187,6.187,0,0,1-.783,1.266,6.655,6.655,0,0,1-1.71,1.513,6.7,6.7,0,0,1-.686.371q-.237.111-.483.2-.124.047-.25.087-.253.082-.512.145c-.548.132-1.115.182-1.674.269a7,7,0,0,1-3.867-1.221q-.234-.161-.453-.342t-.421-.377a6.389,6.389,0,0,1-1.041-1.328,6.17,6.17,0,0,1-.775-2.148,4.321,4.321,0,0,1-.05-.719,1.554,1.554,0,0,1,.14-.644,1.258,1.258,0,0,1,.372-.471,1.2,1.2,0,0,1,.2-.126,1.25,1.25,0,0,1,.483-.122,1.33,1.33,0,0,1,.628.11,1.213,1.213,0,0,1,.306.2,1.424,1.424,0,0,1,.453.92,3.83,3.83,0,0,0,1.344,2.683,3.6,3.6,0,0,0,.493.322,4.686,4.686,0,0,0,1.215.458,4.4,4.4,0,0,0,2.53-.161,4.224,4.224,0,0,0,.432-.189,3.918,3.918,0,0,0,.654-.417q.121-.1.234-.2a3.491,3.491,0,0,0,.411-.459q.092-.124.174-.256a3.99,3.99,0,0,0,.462-1.21c.032-.142.058-.285.079-.425a1.45,1.45,0,0,1,1-1.349,1.383,1.383,0,0,1,.413-.032,1.273,1.273,0,0,1,.506.135,1.174,1.174,0,0,1,.3.222,1.26,1.26,0,0,1,.161.2,1.5,1.5,0,0,1,.2.5,1.969,1.969,0,0,1,.039.456Z" transform="translate(-2962.402 3174.658)" fill="currentColor"/>
    </g>
    <g id="Ellipse_219" data-name="Ellipse 219" transform="translate(1107 537)" fill="currentColor" stroke="#fff" stroke-width="1">
      <circle cx="10.5" cy="10.5" r="10.5" stroke="none"/>
      <circle cx="10.5" cy="10.5" r="10" fill="none"/>
    </g>
    <path id="Path_7107" data-name="Path 7107" d="M3.984-8.1H5.616v3.232H8.832v1.632H5.616V0H3.984V-3.232H.768V-4.864H3.984Z" transform="translate(1112.232 551.096)" fill="#fff"/>
  </g>
</svg>
