<svg width="20" height="20" viewBox="0 0 20 20" fill="none" xmlns="http://www.w3.org/2000/svg">
<path d="M18.125 10.375L14.5938 13.9062C12.8125 15.6562 9.96875 15.6562 8.21875 13.9062C6.5625 12.2188 6.46875 9.5625 8 7.78125L8.15625 7.59375C8.4375 7.28125 8.90625 7.25 9.21875 7.53125C9.53125 7.8125 9.5625 8.28125 9.28125 8.59375L9.15625 8.75C8.09375 9.9375 8.15625 11.7188 9.28125 12.8438C10.4375 14 12.3438 14 13.5312 12.8438L17.0625 9.3125C18.2188 8.125 18.2188 6.25 17.0625 5.0625C15.9375 3.96875 14.1562 3.90625 12.9688 4.9375L12.7812 5.09375C12.4688 5.375 12 5.34375 11.7188 5.03125C11.4375 4.71875 11.4688 4.25 11.7812 3.96875L11.9688 3.8125C13.75 2.25 16.4375 2.34375 18.125 4C19.875 5.75 19.875 8.59375 18.125 10.375ZM1.84375 9.65625L5.40625 6.125C7.15625 4.375 10 4.375 11.75 6.125C13.4375 7.78125 13.5312 10.4688 11.9688 12.25L11.7812 12.4375C11.5312 12.75 11.0312 12.8125 10.7188 12.5312C10.4062 12.25 10.375 11.7812 10.6562 11.4688L10.8438 11.2812C11.875 10.0938 11.8125 8.3125 10.6875 7.1875C9.53125 6 7.625 6 6.46875 7.1875L2.90625 10.7188C1.75 11.875 1.75 13.7812 2.90625 14.9688C4.03125 16.0625 5.8125 16.125 7 15.0938L7.1875 14.9375C7.5 14.6562 7.96875 14.6875 8.25 15C8.53125 15.3125 8.5 15.7812 8.1875 16.0625L8 16.2188C6.21875 17.7812 3.53125 17.6875 1.84375 16.0312C0.09375 14.2812 0.09375 11.4062 1.84375 9.65625Z" fill="currentColor"/>
</svg>
