<?xml version="1.0" encoding="UTF-8"?>
<svg xmlns="http://www.w3.org/2000/svg" width="45" height="44" viewBox="0 0 45 44" fill="currentColor">
<path d="M24.9585 1.54688C24.5076 0.601562 23.5548 0 22.5085 0C21.4621 0 20.5178 0.601562 20.0585 1.54688L14.5885 12.9164L2.37252 14.7383C1.35169 14.893 0.500996 15.6148 0.186239 16.6031C-0.128518 17.5914 0.12669 18.6828 0.858287 19.4133L9.72252 28.2734L7.62982 40.7945C7.45968 41.8258 7.88502 42.8742 8.72721 43.4844C9.5694 44.0945 10.6838 44.1719 11.6026 43.682L22.517 37.7953L33.4314 43.682C34.3501 44.1719 35.4645 44.1031 36.3067 43.4844C37.1489 42.8656 37.5743 41.8258 37.4041 40.7945L35.3029 28.2734L44.1671 19.4133C44.8987 18.6828 45.1625 17.5914 44.8392 16.6031C44.5159 15.6148 43.6737 14.893 42.6529 14.7383L30.4284 12.9164L24.9585 1.54688Z" fill="currentColor"/>
</svg>