<svg width="17" height="18" viewBox="0 0 17 18" fill="none" xmlns="http://www.w3.org/2000/svg">
<path d="M7.4375 1.1875C7.4375 0.623047 7.90234 0.125 8.5 0.125C9.06445 0.125 9.5625 0.623047 9.5625 1.1875V2.78125C9.5625 3.37891 9.06445 3.84375 8.5 3.84375C7.90234 3.84375 7.4375 3.37891 7.4375 2.78125V1.1875ZM11.6875 8.625C11.6875 10.3848 10.2598 11.8125 8.5 11.8125C6.70703 11.8125 5.3125 10.3848 5.3125 8.625C5.3125 6.86523 6.70703 5.4375 8.5 5.4375C10.2598 5.4375 11.6875 6.86523 11.6875 8.625ZM0 8.625C0 8.06055 0.464844 7.5625 1.0625 7.5625H2.65625C3.2207 7.5625 3.71875 8.06055 3.71875 8.625C3.71875 9.22266 3.2207 9.6875 2.65625 9.6875H1.0625C0.464844 9.6875 0 9.22266 0 8.625ZM15.9375 7.5625C16.502 7.5625 17 8.06055 17 8.625C17 9.22266 16.502 9.6875 15.9375 9.6875H14.3438C13.7461 9.6875 13.2812 9.22266 13.2812 8.625C13.2812 8.06055 13.7461 7.5625 14.3438 7.5625H15.9375ZM8.5 17.125C7.90234 17.125 7.4375 16.6602 7.4375 16.0625V14.4688C7.4375 13.9043 7.90234 13.4062 8.5 13.4062C9.06445 13.4062 9.5625 13.9043 9.5625 14.4688V16.0625C9.5625 16.6602 9.06445 17.125 8.5 17.125ZM2.42383 14.7012C1.99219 14.3027 1.99219 13.6055 2.42383 13.207L3.48633 12.1445C3.88477 11.7129 4.58203 11.7129 4.98047 12.1445C5.41211 12.543 5.41211 13.2402 4.98047 13.6387L3.91797 14.7012C3.51953 15.1328 2.82227 15.1328 2.42383 14.7012ZM13.0488 2.58203C13.4473 2.15039 14.1445 2.15039 14.543 2.58203C14.9746 2.98047 14.9746 3.67773 14.543 4.07617L13.4805 5.13867C13.082 5.57031 12.3848 5.57031 11.9863 5.13867C11.5547 4.74023 11.5547 4.04297 11.9863 3.64453L13.0488 2.58203ZM14.543 14.7012C14.1445 15.1328 13.4473 15.1328 13.0488 14.7012L11.9863 13.6387C11.5547 13.2402 11.5547 12.543 11.9863 12.1445C12.3848 11.7129 13.082 11.7129 13.4805 12.1445L14.543 13.207C14.9746 13.6055 14.9746 14.3027 14.543 14.7012ZM2.42383 4.07617C1.99219 3.67773 1.99219 2.98047 2.42383 2.58203C2.82227 2.15039 3.51953 2.15039 3.91797 2.58203L4.98047 3.64453C5.41211 4.04297 5.41211 4.74023 4.98047 5.13867C4.58203 5.57031 3.88477 5.57031 3.48633 5.13867L2.42383 4.07617Z" fill="currentColor"/>
</svg>
