<svg width="20" height="20" viewBox="0 0 20 20" fill="none" xmlns="http://www.w3.org/2000/svg">
<path d="M16.5 10C16.5 7.6875 15.25 5.5625 13.25 4.375C11.2188 3.21875 8.75 3.21875 6.75 4.375C4.71875 5.5625 3.5 7.6875 3.5 10C3.5 12.3438 4.71875 14.4688 6.75 15.6562C8.75 16.8125 11.2188 16.8125 13.25 15.6562C15.25 14.4688 16.5 12.3438 16.5 10ZM2 10C2 7.15625 3.5 4.53125 6 3.09375C8.46875 1.65625 11.5 1.65625 14 3.09375C16.4688 4.53125 18 7.15625 18 10C18 12.875 16.4688 15.5 14 16.9375C11.5 18.375 8.46875 18.375 6 16.9375C3.5 15.5 2 12.875 2 10ZM7.28125 7.1875C7.53125 6.46875 8.1875 6 8.9375 6H10.75C11.8438 6 12.75 6.90625 12.75 8C12.75 8.6875 12.3438 9.34375 11.75 9.6875L10.75 10.2812C10.7188 10.6875 10.4062 11 10 11C9.5625 11 9.25 10.6875 9.25 10.25V9.84375C9.25 9.5625 9.375 9.3125 9.625 9.1875L11 8.40625C11.1562 8.3125 11.25 8.15625 11.25 8C11.25 7.71875 11.0312 7.53125 10.75 7.53125H8.9375C8.84375 7.53125 8.75 7.59375 8.71875 7.6875L8.6875 7.71875C8.5625 8.125 8.125 8.3125 7.75 8.1875C7.34375 8.03125 7.15625 7.59375 7.28125 7.21875V7.1875ZM9 13C9 12.4688 9.4375 12 10 12C10.5312 12 11 12.4688 11 13C11 13.5625 10.5312 14 10 14C9.4375 14 9 13.5625 9 13Z" fill="currentColor"/>
</svg>
