<svg xmlns="http://www.w3.org/2000/svg" width="13" height="11" viewBox="0 0 13 11" fill="none">
<path d="M11.5625 3.46094C12.8047 4.70312 12.8047 6.69531 11.5625 7.9375L8.9375 10.5859C8.72656 10.8203 8.375 10.8203 8.14062 10.6094C7.92969 10.375 7.92969 10.0234 8.14062 9.8125L10.7656 7.14062C11.5625 6.34375 11.5625 5.05469 10.7656 4.25781L7.76562 1.21094C7.55469 1 7.55469 0.648438 7.78906 0.414062C8 0.203125 8.35156 0.203125 8.5625 0.4375L11.5625 3.46094ZM0.5 4.89062V1.375C0.5 0.765625 0.992188 0.25 1.625 0.25H5.11719C5.51562 0.25 5.89062 0.414062 6.17188 0.695312L10.1094 4.63281C10.6953 5.21875 10.6953 6.17969 10.1094 6.76562L6.99219 9.88281C6.40625 10.4688 5.44531 10.4688 4.85938 9.88281L0.921875 5.94531C0.640625 5.66406 0.5 5.28906 0.5 4.89062ZM3.125 2.125C2.70312 2.125 2.375 2.47656 2.375 2.875C2.375 3.29688 2.70312 3.625 3.125 3.625C3.52344 3.625 3.875 3.29688 3.875 2.875C3.875 2.47656 3.52344 2.125 3.125 2.125Z" fill="currentColor"/>
</svg>