<svg xmlns="http://www.w3.org/2000/svg" width="15" height="15" viewBox="0 0 24 24" className="me-1">
    <g id="Group_5459" data-name="Group 5459" transform="translate(-0.327 -2.327)">
        <g id="Group_5314" data-name="Group 5314" transform="translate(0.327 2.327)">
            <path id="Path_5337" data-name="Path 5337" d="M-81.977,67.249a12,12,0,0,0-12,12,12,12,0,0,0,12,12,12,12,0,0,0,12-12A12,12,0,0,0-81.977,67.249Z" transform="translate(93.977 -67.249)" fill="#fff"></path>
            <path id="Path_5338" data-name="Path 5338" d="M-69.017,88.464l-3.96-3.96a1.225,1.225,0,0,1-.36-.84V77.687a1.2,1.2,0,0,1,1.2-1.2,1.2,1.2,0,0,1,1.2,1.2v5.5l3.6,3.6a1.188,1.188,0,0,1,0,1.68,1.188,1.188,0,0,1-1.68,0Z" transform="translate(84.113 -71.664)" fill="#fd8d45"></path>
        </g>
    </g>
</svg> 