<svg xmlns="http://www.w3.org/2000/svg" width="32" height="32" viewBox="0 0 32 32" fill="none">
<g clipPath="url(#clip0_5503_11199)">
       <path d="M24.1875 6.125C25.3047 6.125 26.25 7.07031 26.25 8.1875V23.3125C26.25 24.4727 25.3047 25.375 24.1875 25.375H9.0625C7.90234 25.375 7 24.4727 7 23.3125V8.1875C7 7.07031 7.90234 6.125 9.0625 6.125H24.1875ZM23.5 19.875V8.875H9.75V19.875H23.5Z" fill="currentColor" opacity="0.7" />
       <path d="M16.625 15.75C18.1289 15.75 19.375 14.5469 19.375 13C19.375 11.4961 18.1289 10.25 16.625 10.25C15.0781 10.25 13.875 11.4961 13.875 13C13.875 14.5469 15.0781 15.75 16.625 15.75ZM23.5 19.875H21.4375C21.4375 18.3711 20.1914 17.125 18.6875 17.125H14.5195C13.0156 17.125 11.8125 18.3711 11.8125 19.875H9.75V8.875H23.5V19.875Z" fill="currentColor" />
</g>
<defs>
       <clipPath id="clip0_5503_11199">
       <rect width="32" height="32" fill="white" />
       </clipPath>
</defs>
</svg>