<svg width="23" height="23" viewBox="0 0 23 23" fill="none" xmlns="http://www.w3.org/2000/svg">
<path d="M9.58332 15.7636V8.19668C9.58286 8.10172 9.60718 8.00839 9.65371 7.92655C9.70025 7.84471 9.76728 7.77739 9.84771 7.7317C9.92815 7.68602 10.019 7.66365 10.1107 7.66698C10.2024 7.67031 10.2915 7.69919 10.3687 7.7506L16.0561 11.5331C16.1283 11.5807 16.1877 11.6465 16.2289 11.7242C16.2701 11.8019 16.2916 11.8891 16.2916 11.9777C16.2916 12.0663 16.2701 12.1535 16.2289 12.2312C16.1877 12.309 16.1283 12.3747 16.0561 12.4223L10.3687 16.2077C10.2917 16.259 10.2029 16.2879 10.1114 16.2913C10.02 16.2948 9.9293 16.2726 9.84895 16.2273C9.7686 16.182 9.70153 16.1151 9.65479 16.0336C9.60805 15.9522 9.58336 15.8583 9.58332 15.7636Z" fill="currentColor"/>
<path d="M11.9791 2.46082C10.0966 2.46082 8.25633 3.01906 6.69105 4.06495C5.12577 5.11084 3.90578 6.5974 3.18536 8.33664C2.46494 10.0759 2.27644 11.9897 2.64371 13.8361C3.01098 15.6825 3.91751 17.3785 5.24867 18.7096C6.57983 20.0408 8.27584 20.9473 10.1222 21.3146C11.9686 21.6818 13.8824 21.4934 15.6217 20.7729C17.3609 20.0525 18.8475 18.8325 19.8933 17.2672C20.9392 15.702 21.4975 13.8617 21.4975 11.9791C21.4975 9.45473 20.4946 7.03371 18.7096 5.24868C16.9246 3.46365 14.5036 2.46082 11.9791 2.46082ZM0.958313 11.9791C0.958313 9.79943 1.60467 7.66867 2.81566 5.8563C4.02664 4.04394 5.74786 2.63137 7.76166 1.79723C9.77545 0.963088 11.9914 0.744839 14.1292 1.17008C16.267 1.59532 18.2308 2.64495 19.772 4.18624C21.3133 5.72754 22.363 7.69126 22.7882 9.82909C23.2135 11.9669 22.9952 14.1828 22.1611 16.1966C21.3269 18.2104 19.9144 19.9317 18.102 21.1426C16.2896 22.3536 14.1589 23 11.9791 23C9.05624 23 6.25305 21.8389 4.18624 19.7721C2.11943 17.7052 0.958313 14.9021 0.958313 11.9791Z" fill="currentColor"/>
</svg>
