<svg xmlns="http://www.w3.org/2000/svg" width="32" height="32" viewBox="0 0 32 32" fill="none">
<g clipPath="url(#clip0_5503_11199)">
<path d="M10.5 11.25C10.5 12.0234 9.85547 12.625 9.125 12.625C8.35156 12.625 7.75 12.0234 7.75 11.25C7.75 10.5195 8.35156 9.875 9.125 9.875C9.85547 9.875 10.5 10.5195 10.5 11.25ZM7.75 26.375C6.20312 26.375 5 25.1719 5 23.625V15.375H27V23.625C27 25.1719 25.7539 26.375 24.25 26.375H7.75Z" fill="currentColor" opacity="0.7" />
<path d="M5 9.875C5 8.37109 6.20312 7.125 7.75 7.125H24.25C25.7539 7.125 27 8.37109 27 9.875V15.375H5V9.875ZM9.125 12.625C9.85547 12.625 10.5 12.0234 10.5 11.25C10.5 10.5195 9.85547 9.875 9.125 9.875C8.35156 9.875 7.75 10.5195 7.75 11.25C7.75 12.0234 8.35156 12.625 9.125 12.625ZM12.9062 10.2188C12.3047 10.2188 11.875 10.6914 11.875 11.25C11.875 11.8516 12.3047 12.2812 12.9062 12.2812H23.2188C23.7773 12.2812 24.25 11.8516 24.25 11.25C24.25 10.6914 23.7773 10.2188 23.2188 10.2188H12.9062Z" fill="currentColor" />
</g>
<defs>
<clipPath id="clip0_5503_11199">
<rect width="32" height="32" fill="white" />
</clipPath>
</defs>
</svg>