<svg width="20" height="20" viewBox="0 0 20 20" fill="none" xmlns="http://www.w3.org/2000/svg">
<path d="M2 4.8125C2.03125 4.53125 2.09375 4.28125 2.21875 4.0625C2.40625 3.75 2.65625 3.46875 3 3.28125C3.21875 3.15625 3.5 3.0625 3.78125 3.03125C3.84375 3.03125 3.90625 3 4 3H16C17.0938 3 18 3.90625 18 5V7V15C18 16.125 17.0938 17 16 17H4C2.875 17 2 16.125 2 15V7V5C2 4.9375 2 4.875 2 4.8125ZM3.5 7V15C3.5 15.2812 3.71875 15.5 4 15.5H16C16.25 15.5 16.5 15.2812 16.5 15V7H3.5Z" fill="currentColor"/>
</svg>
