<svg width="104" height="134" viewBox="0 0 104 134" fill="none" xmlns="http://www.w3.org/2000/svg">
<path d="M8.88281 98.6374L52.222 120.691L93.9154 98.6374V12.3979H8.88281V98.6374Z" fill="white"/>
<path d="M94.8018 12.7271L8.01367 100.173L52.9986 122.447L94.8018 101.051V12.7271Z" fill="#F2F3F2"/>
<path d="M6.03516 41.1446V100.503L7.57123 101.271L50.9104 123.324L52.227 123.983L53.5437 123.324L95.3468 101.271L96.8829 100.503V9.54541H6.03516V41.1446ZM8.88786 98.857V12.3981H94.0302V98.857L52.227 120.911L8.88786 98.857Z" fill="#DCDEDC"/>
<path d="M51.4561 13.8245C51.8949 13.8245 52.3338 13.8245 52.7727 13.9342L51.4561 16.4577C49.4811 16.348 47.7256 17.8841 47.6159 19.859C47.5062 21.834 49.0422 23.5895 51.0172 23.6992H51.4561C52.3338 23.6992 53.2116 23.3701 53.8699 22.8215L55.2962 25.2353C54.1991 26.0033 52.8824 26.4422 51.4561 26.4422C47.945 26.5519 44.9826 23.9187 44.8729 20.4076C44.7632 16.8966 47.3965 13.9342 50.9075 13.8245H51.4561ZM55.9546 19.2007L57.6004 21.9437L55.9546 24.577L54.4185 21.9437H51.2366L52.8824 19.2007H55.9546ZM53.3213 18.2132C53.3213 17.7744 53.431 17.3355 53.6505 17.0063C53.8699 16.6772 54.3088 16.348 54.6379 16.1286L54.8574 16.0189C55.2962 15.7994 55.406 15.6897 55.406 15.4703C55.406 15.2508 55.0768 15.0314 54.8574 15.0314C54.4185 15.0314 54.0893 15.2508 53.8699 15.6897L53.3213 15.1411C53.431 14.9217 53.6505 14.7022 53.8699 14.4828C54.1991 14.2633 54.5282 14.2633 54.8574 14.2633C55.1865 14.2633 55.6254 14.3731 55.8448 14.5925C56.0643 14.8119 56.2837 15.1411 56.2837 15.4703C56.2837 16.0189 55.9546 16.4577 55.2962 16.6772L54.9671 16.8966C54.6379 17.1161 54.4185 17.2258 54.3088 17.5549H56.2837V18.323L53.3213 18.2132ZM51.4561 31.9282L61.8794 26.0033V9.54541H40.923V25.8936L51.4561 31.9282ZM98.9646 70.7689H3.94755L0.436523 78.4492L3.94755 86.1296H98.9646L102.366 78.4492L98.9646 70.7689Z" fill="#FF492C"/>
<path d="M27.7559 65.8315C27.7047 65.8315 27.6609 65.8132 27.6243 65.7766C27.5877 65.7401 27.5694 65.6962 27.5694 65.645V55.2655C27.5694 55.2143 27.5877 55.1704 27.6243 55.1338C27.6609 55.0973 27.7047 55.079 27.7559 55.079H29.5553C29.6065 55.079 29.6504 55.0973 29.687 55.1338C29.7236 55.1704 29.7419 55.2143 29.7419 55.2655V63.9004C29.7419 63.9516 29.7675 63.9772 29.8187 63.9772H34.8438C34.895 63.9772 34.9353 63.9919 34.9645 64.0211C35.0011 64.0577 35.0194 64.1016 35.0194 64.1528V65.645C35.0194 65.6962 35.0011 65.7401 34.9645 65.7766C34.9353 65.8132 34.895 65.8315 34.8438 65.8315H27.7559ZM43.2154 61.0697C43.2739 61.4573 43.2922 61.8926 43.2703 62.3753C43.263 62.4997 43.1971 62.5618 43.0728 62.5618H38.3219C38.2634 62.5618 38.2451 62.5875 38.2671 62.6387C38.2963 62.8435 38.3512 63.0483 38.4316 63.2531C38.7023 63.8236 39.2472 64.1089 40.0665 64.1089C40.7175 64.1016 41.2332 63.8346 41.6135 63.3079C41.6574 63.2494 41.7049 63.2202 41.7561 63.2202C41.7854 63.2202 41.8183 63.2421 41.8549 63.286L42.9631 64.3722C43.0143 64.4234 43.0399 64.471 43.0399 64.5149C43.0399 64.5295 43.0216 64.5697 42.985 64.6355C42.6412 65.0525 42.206 65.378 41.6793 65.612C41.1454 65.8388 40.5602 65.9522 39.9238 65.9522C39.0461 65.9522 38.3 65.7547 37.6856 65.3597C37.0784 64.9574 36.6432 64.3978 36.3799 63.681C36.1605 63.169 36.0507 62.4997 36.0507 61.6731C36.0507 61.1099 36.1275 60.6125 36.2811 60.1809C36.5152 59.4495 36.9285 58.8716 37.521 58.4474C38.1061 58.0158 38.8047 57.8 39.6166 57.8C40.6407 57.8 41.4636 58.0963 42.0853 58.6888C42.6997 59.2812 43.0764 60.0749 43.2154 61.0697ZM39.6276 59.6762C38.9839 59.6762 38.5597 59.9761 38.3548 60.5759C38.3183 60.7076 38.2817 60.8722 38.2451 61.0697C38.2451 61.1209 38.2707 61.1465 38.3219 61.1465H40.9881C41.0466 61.1465 41.0649 61.1209 41.043 61.0697C40.9918 60.7698 40.9662 60.6271 40.9662 60.6418C40.8784 60.3345 40.7175 60.0968 40.4834 59.9286C40.2566 59.7603 39.9714 59.6762 39.6276 59.6762ZM47.681 57.811C48.3466 57.811 48.9391 57.928 49.4585 58.1621C49.9851 58.3889 50.3947 58.7034 50.6873 59.1057C50.9799 59.5007 51.1262 59.9469 51.1262 60.4443V65.645C51.1262 65.6962 51.1079 65.7401 51.0713 65.7766C51.0348 65.8132 50.9909 65.8315 50.9397 65.8315H49.1403C49.0891 65.8315 49.0452 65.8132 49.0086 65.7766C48.972 65.7401 48.9537 65.6962 48.9537 65.645V65.1403C48.9537 65.111 48.9428 65.0891 48.9208 65.0744C48.9062 65.0671 48.8879 65.0781 48.866 65.1073C48.4344 65.6706 47.7432 65.9522 46.7923 65.9522C45.995 65.9522 45.3476 65.7583 44.8502 65.3707C44.3602 64.983 44.1151 64.4088 44.1151 63.6481C44.1151 62.8581 44.3931 62.2473 44.949 61.8158C45.4976 61.3769 46.2839 61.1574 47.3079 61.1574H48.8769C48.9281 61.1574 48.9537 61.1318 48.9537 61.0806V60.7515C48.9537 60.4077 48.8513 60.1407 48.6465 59.9505C48.4417 59.7677 48.1345 59.6762 47.7249 59.6762C47.4104 59.6762 47.147 59.7311 46.9349 59.8408C46.7228 59.9505 46.5875 60.1078 46.5289 60.3126C46.4997 60.4296 46.4338 60.4808 46.3314 60.4662L44.4662 60.2248C44.3492 60.2029 44.2943 60.1553 44.3016 60.0822C44.3455 59.6579 44.5174 59.2703 44.8173 58.9192C45.1172 58.5681 45.5159 58.2974 46.0133 58.1072C46.5107 57.9097 47.0666 57.811 47.681 57.811ZM47.3738 64.3393C47.8127 64.3393 48.1857 64.2223 48.4929 63.9882C48.8001 63.7541 48.9537 63.4506 48.9537 63.0775V62.5289C48.9537 62.4777 48.9281 62.4521 48.8769 62.4521H47.7688C47.3079 62.4521 46.9495 62.5399 46.6935 62.7155C46.4302 62.891 46.2985 63.136 46.2985 63.4506C46.2985 63.7285 46.3973 63.948 46.5948 64.1089C46.785 64.2625 47.0446 64.3393 47.3738 64.3393ZM57.5448 55.2655C57.5448 55.2143 57.5631 55.1704 57.5996 55.1338C57.6362 55.0973 57.6801 55.079 57.7313 55.079H59.5197C59.5709 55.079 59.6148 55.0973 59.6514 55.1338C59.688 55.1704 59.7062 55.2143 59.7062 55.2655V65.645C59.7062 65.6962 59.688 65.7401 59.6514 65.7766C59.6148 65.8132 59.5709 65.8315 59.5197 65.8315H57.7313C57.6801 65.8315 57.6362 65.8132 57.5996 65.7766C57.5631 65.7401 57.5448 65.6962 57.5448 65.645V65.1403C57.5448 65.111 57.5338 65.0927 57.5119 65.0854C57.4899 65.0781 57.468 65.0854 57.446 65.1073C57.0218 65.6706 56.4329 65.9522 55.6795 65.9522C54.9627 65.9522 54.3483 65.7547 53.8363 65.3597C53.3169 64.9574 52.9439 64.4088 52.7171 63.7139C52.5416 63.1799 52.4538 62.5582 52.4538 61.8487C52.4538 61.1245 52.5489 60.4918 52.7391 59.9505C52.9731 59.2922 53.3425 58.7729 53.8472 58.3925C54.3519 58.0048 54.981 57.811 55.7344 57.811C56.4659 57.811 57.0364 58.067 57.446 58.579C57.468 58.6083 57.4899 58.6193 57.5119 58.6119C57.5338 58.6046 57.5448 58.5827 57.5448 58.5461V55.2655ZM57.2156 63.4396C57.4204 63.0592 57.5228 62.5399 57.5228 61.8816C57.5228 61.194 57.4131 60.6564 57.1937 60.2687C56.9523 59.8737 56.6085 59.6762 56.1623 59.6762C55.6795 59.6762 55.3138 59.8737 55.0651 60.2687C54.8091 60.671 54.6811 61.216 54.6811 61.9035C54.6811 62.518 54.7908 63.03 55.0103 63.4396C55.2663 63.8785 55.643 64.0979 56.1404 64.0979C56.6012 64.0979 56.9596 63.8785 57.2156 63.4396ZM68.3302 61.0697C68.3887 61.4573 68.407 61.8926 68.3851 62.3753C68.3777 62.4997 68.3119 62.5618 68.1876 62.5618H63.4367C63.3782 62.5618 63.3599 62.5875 63.3818 62.6387C63.4111 62.8435 63.466 63.0483 63.5464 63.2531C63.8171 63.8236 64.362 64.1089 65.1812 64.1089C65.8322 64.1016 66.3479 63.8346 66.7283 63.3079C66.7722 63.2494 66.8197 63.2202 66.8709 63.2202C66.9002 63.2202 66.9331 63.2421 66.9697 63.286L68.0778 64.3722C68.129 64.4234 68.1546 64.471 68.1546 64.5149C68.1546 64.5295 68.1364 64.5697 68.0998 64.6355C67.756 65.0525 67.3208 65.378 66.7941 65.612C66.2602 65.8388 65.675 65.9522 65.0386 65.9522C64.1609 65.9522 63.4148 65.7547 62.8003 65.3597C62.1932 64.9574 61.758 64.3978 61.4947 63.681C61.2752 63.169 61.1655 62.4997 61.1655 61.6731C61.1655 61.1099 61.2423 60.6125 61.3959 60.1809C61.63 59.4495 62.0433 58.8716 62.6358 58.4474C63.2209 58.0158 63.9195 57.8 64.7314 57.8C65.7554 57.8 66.5783 58.0963 67.2001 58.6888C67.8145 59.2812 68.1912 60.0749 68.3302 61.0697ZM64.7424 59.6762C64.0987 59.6762 63.6744 59.9761 63.4696 60.5759C63.433 60.7076 63.3965 60.8722 63.3599 61.0697C63.3599 61.1209 63.3855 61.1465 63.4367 61.1465H66.1029C66.1614 61.1465 66.1797 61.1209 66.1577 61.0697C66.1065 60.7698 66.0809 60.6271 66.0809 60.6418C65.9932 60.3345 65.8322 60.0968 65.5982 59.9286C65.3714 59.7603 65.0862 59.6762 64.7424 59.6762ZM73.6516 57.8329C74.0246 57.8329 74.3172 57.9024 74.5293 58.0414C74.6098 58.0853 74.6427 58.1621 74.6281 58.2718L74.2989 60.0273C74.2916 60.1517 74.2221 60.1883 74.0905 60.1371C73.9369 60.0858 73.7577 60.0602 73.5528 60.0602C73.4651 60.0602 73.3517 60.0676 73.2127 60.0822C72.8397 60.1188 72.5251 60.2541 72.2691 60.4882C72.0131 60.7295 71.8851 61.0514 71.8851 61.4537V65.645C71.8851 65.6962 71.8705 65.7401 71.8412 65.7766C71.8046 65.8132 71.7608 65.8315 71.7096 65.8315H69.9102C69.859 65.8315 69.8151 65.8132 69.7785 65.7766C69.7419 65.7401 69.7236 65.6962 69.7236 65.645V58.1182C69.7236 58.067 69.7419 58.0231 69.7785 57.9865C69.8151 57.95 69.859 57.9317 69.9102 57.9317H71.7096C71.7608 57.9317 71.8046 57.95 71.8412 57.9865C71.8705 58.0231 71.8851 58.067 71.8851 58.1182V58.6997C71.8851 58.7363 71.8961 58.7582 71.918 58.7656C71.94 58.7729 71.9546 58.7692 71.9619 58.7546C72.3862 58.1402 72.9494 57.8329 73.6516 57.8329ZM20.7668 39.839C20.818 39.7585 20.8912 39.7183 20.9863 39.7183H22.7857C22.8369 39.7183 22.8807 39.7365 22.9173 39.7731C22.9539 39.8097 22.9722 39.8536 22.9722 39.9048V50.2842C22.9722 50.3354 22.9539 50.3793 22.9173 50.4159C22.8807 50.4525 22.8369 50.4708 22.7857 50.4708H20.9863C20.9351 50.4708 20.8912 50.4525 20.8546 50.4159C20.818 50.3793 20.7997 50.3354 20.7997 50.2842V43.5146C20.7997 43.4707 20.7888 43.4487 20.7668 43.4487C20.7522 43.4487 20.7339 43.4634 20.712 43.4926L19.0771 46.0491C19.0259 46.1295 18.9564 46.1698 18.8687 46.1698H17.958C17.8702 46.1698 17.8007 46.1295 17.7495 46.0491L16.1147 43.4926C16.0928 43.4634 16.0745 43.4524 16.0599 43.4597C16.0379 43.467 16.0269 43.489 16.0269 43.5255V50.2842C16.0269 50.3354 16.0087 50.3793 15.9721 50.4159C15.9355 50.4525 15.8916 50.4708 15.8404 50.4708H14.041C13.9898 50.4708 13.9459 50.4525 13.9094 50.4159C13.8728 50.3793 13.8545 50.3354 13.8545 50.2842V39.9048C13.8545 39.8536 13.8728 39.8097 13.9094 39.7731C13.9459 39.7365 13.9898 39.7183 14.041 39.7183H15.8404C15.9355 39.7183 16.0087 39.7585 16.0599 39.839L18.364 43.4158C18.3932 43.4816 18.4225 43.4816 18.4517 43.4158L20.7668 39.839ZM28.1948 50.5915C27.3317 50.5915 26.5929 50.3684 25.9785 49.9222C25.3641 49.4687 24.9435 48.8542 24.7167 48.0789C24.5777 47.5961 24.5083 47.0731 24.5083 46.5099C24.5083 45.9028 24.5777 45.3578 24.7167 44.8751C24.9508 44.1217 25.375 43.5292 25.9895 43.0976C26.6039 42.6661 27.3427 42.4503 28.2058 42.4503C29.047 42.4503 29.7638 42.6624 30.3563 43.0866C30.9488 43.5109 31.3694 44.1034 31.6181 44.8641C31.779 45.3761 31.8595 45.9138 31.8595 46.477C31.8595 47.0329 31.79 47.5486 31.651 48.024C31.4242 48.8286 31.0073 49.4577 30.4002 49.9112C29.7858 50.3647 29.0506 50.5915 28.1948 50.5915ZM28.1948 48.7372C28.5313 48.7372 28.8166 48.6348 29.0506 48.43C29.2847 48.2252 29.4529 47.9436 29.5553 47.5851C29.6358 47.256 29.676 46.8976 29.676 46.5099C29.676 46.0783 29.6358 45.7126 29.5553 45.4127C29.4456 45.0689 29.2737 44.7983 29.0397 44.6008C28.7983 44.4106 28.5094 44.3155 28.1729 44.3155C27.8291 44.3155 27.5402 44.4106 27.3061 44.6008C27.0793 44.7983 26.9148 45.0689 26.8124 45.4127C26.7246 45.6614 26.6807 46.0271 26.6807 46.5099C26.6807 46.9707 26.7173 47.3291 26.7904 47.5851C26.8928 47.9436 27.0647 48.2252 27.3061 48.43C27.5475 48.6348 27.8437 48.7372 28.1948 48.7372ZM42.0195 42.4503C42.8168 42.4503 43.4385 42.6917 43.8847 43.1744C44.3382 43.6572 44.565 44.3338 44.565 45.2042V50.2842C44.565 50.3354 44.5467 50.3793 44.5101 50.4159C44.4735 50.4525 44.4296 50.4708 44.3784 50.4708H42.579C42.5278 50.4708 42.4839 50.4525 42.4474 50.4159C42.4181 50.3793 42.4035 50.3354 42.4035 50.2842V45.676C42.4035 45.2591 42.2938 44.9263 42.0743 44.6776C41.8622 44.4362 41.5769 44.3155 41.2185 44.3155C40.8601 44.3155 40.5675 44.4362 40.3408 44.6776C40.114 44.9263 40.0006 45.2554 40.0006 45.6651V50.2842C40.0006 50.3354 39.9823 50.3793 39.9458 50.4159C39.9092 50.4525 39.8653 50.4708 39.8141 50.4708H38.0367C37.9855 50.4708 37.9416 50.4525 37.905 50.4159C37.8684 50.3793 37.8501 50.3354 37.8501 50.2842V45.676C37.8501 45.2664 37.7368 44.9372 37.51 44.6886C37.2906 44.4399 37.0016 44.3155 36.6432 44.3155C36.3141 44.3155 36.0398 44.4106 35.8203 44.6008C35.6009 44.7983 35.4692 45.0689 35.4253 45.4127V50.2842C35.4253 50.3354 35.407 50.3793 35.3705 50.4159C35.3339 50.4525 35.29 50.4708 35.2388 50.4708H33.4394C33.3882 50.4708 33.348 50.4525 33.3187 50.4159C33.2822 50.3793 33.2639 50.3354 33.2639 50.2842V42.7575C33.2639 42.7063 33.2822 42.6624 33.3187 42.6258C33.348 42.5893 33.3882 42.571 33.4394 42.571H35.2388C35.29 42.571 35.3339 42.5893 35.3705 42.6258C35.407 42.6624 35.4253 42.7063 35.4253 42.7575V43.3609C35.4253 43.3902 35.4363 43.4085 35.4582 43.4158C35.4802 43.4304 35.4985 43.4231 35.5131 43.3939C35.9374 42.7648 36.5884 42.4503 37.4661 42.4503C37.9781 42.4503 38.428 42.56 38.8157 42.7794C39.196 42.9916 39.4886 43.2988 39.6934 43.7011C39.7227 43.7596 39.7593 43.7596 39.8031 43.7011C40.0299 43.2768 40.3335 42.9623 40.7138 42.7575C41.1015 42.5527 41.5367 42.4503 42.0195 42.4503ZM53.0243 45.7089C53.0902 46.0966 53.1121 46.5318 53.0902 47.0146C53.0828 47.139 53.017 47.2011 52.8927 47.2011H48.1418C48.0833 47.2011 48.065 47.2267 48.087 47.2779C48.1162 47.4827 48.1711 47.6876 48.2515 47.8924C48.5149 48.4629 49.0561 48.7482 49.8754 48.7482C50.5337 48.7409 51.053 48.4739 51.4334 47.9472C51.47 47.8887 51.5139 47.8594 51.5651 47.8594C51.6016 47.8594 51.6382 47.8814 51.6748 47.9253L52.783 49.0115C52.8342 49.0627 52.8598 49.1102 52.8598 49.1541C52.8598 49.1688 52.8378 49.209 52.7939 49.2748C52.4574 49.6918 52.0222 50.0173 51.4883 50.2513C50.9616 50.4781 50.3801 50.5915 49.7437 50.5915C48.8587 50.5915 48.1126 50.394 47.5054 49.999C46.8983 49.5967 46.4594 49.0371 46.1888 48.3203C45.9767 47.8082 45.8706 47.139 45.8706 46.3124C45.8706 45.7492 45.9474 45.2518 46.101 44.8202C46.3351 44.0888 46.7484 43.5109 47.3409 43.0866C47.926 42.6551 48.6246 42.4393 49.4365 42.4393C50.4606 42.4393 51.2798 42.7355 51.8942 43.328C52.516 43.9205 52.8927 44.7142 53.0243 45.7089ZM49.4475 44.3155C48.8038 44.3155 48.3795 44.6154 48.1747 45.2152C48.1308 45.3469 48.0943 45.5114 48.065 45.7089C48.065 45.7601 48.0906 45.7857 48.1418 45.7857H50.797C50.8629 45.7857 50.8848 45.7601 50.8629 45.7089C50.8117 45.409 50.7861 45.2664 50.7861 45.281C50.691 44.9738 50.53 44.7361 50.3033 44.5679C50.0692 44.3996 49.784 44.3155 49.4475 44.3155ZM58.5432 42.4503C59.3625 42.4503 60.0244 42.7026 60.5291 43.2073C61.0265 43.7047 61.2752 44.385 61.2752 45.2481V50.2842C61.2752 50.3354 61.2569 50.3793 61.2204 50.4159C61.1838 50.4525 61.1399 50.4708 61.0887 50.4708H59.3003C59.2491 50.4708 59.2052 50.4525 59.1686 50.4159C59.132 50.3793 59.1138 50.3354 59.1138 50.2842V45.698C59.1138 45.2884 58.9967 44.9555 58.7627 44.6995C58.5359 44.4435 58.2323 44.3155 57.852 44.3155C57.4716 44.3155 57.1681 44.4435 56.9413 44.6995C56.7072 44.9555 56.5902 45.2884 56.5902 45.698V50.2842C56.5902 50.3354 56.5719 50.3793 56.5354 50.4159C56.4988 50.4525 56.4549 50.4708 56.4037 50.4708H54.6153C54.5641 50.4708 54.5202 50.4525 54.4836 50.4159C54.447 50.3793 54.4287 50.3354 54.4287 50.2842V42.7575C54.4287 42.7063 54.447 42.6624 54.4836 42.6258C54.5202 42.5893 54.5641 42.571 54.6153 42.571H56.4037C56.4549 42.571 56.4988 42.5893 56.5354 42.6258C56.5719 42.6624 56.5902 42.7063 56.5902 42.7575V43.2951C56.5902 43.3244 56.6012 43.3463 56.6231 43.3609C56.6451 43.3683 56.6597 43.3609 56.667 43.339C57.0913 42.7465 57.7167 42.4503 58.5432 42.4503ZM67.3647 44.129C67.3647 44.1802 67.3464 44.2241 67.3098 44.2606C67.2732 44.2972 67.2293 44.3155 67.1781 44.3155H65.6969C65.6457 44.3155 65.6201 44.3411 65.6201 44.3923V47.64C65.6201 47.9838 65.6896 48.2361 65.8286 48.3971C65.9676 48.558 66.1907 48.6385 66.4979 48.6385H67.0026C67.0538 48.6385 67.0977 48.6567 67.1343 48.6933C67.1708 48.7299 67.1891 48.7738 67.1891 48.825V50.2842C67.1891 50.4013 67.1269 50.4671 67.0026 50.4817C66.5783 50.5037 66.2711 50.5147 66.0809 50.5147C65.2324 50.5147 64.5997 50.3757 64.1828 50.0977C63.7586 49.8124 63.5428 49.2821 63.5355 48.5068V44.3923C63.5355 44.3411 63.5099 44.3155 63.4587 44.3155H62.5809C62.5297 44.3155 62.4858 44.2972 62.4492 44.2606C62.4127 44.2241 62.3944 44.1802 62.3944 44.129V42.7575C62.3944 42.7063 62.4127 42.6624 62.4492 42.6258C62.4858 42.5893 62.5297 42.571 62.5809 42.571H63.4587C63.5099 42.571 63.5355 42.5454 63.5355 42.4942V40.6728C63.5355 40.6216 63.5537 40.5777 63.5903 40.5412C63.6269 40.5046 63.6708 40.4863 63.722 40.4863H65.4446C65.4958 40.4863 65.536 40.5046 65.5653 40.5412C65.6018 40.5777 65.6201 40.6216 65.6201 40.6728V42.4942C65.6201 42.5454 65.6457 42.571 65.6969 42.571H67.1781C67.2293 42.571 67.2732 42.5893 67.3098 42.6258C67.3464 42.6624 67.3647 42.7063 67.3647 42.7575V44.129ZM73.2785 42.7575C73.2785 42.7063 73.2932 42.6624 73.3224 42.6258C73.359 42.5893 73.4029 42.571 73.4541 42.571H75.2535C75.3047 42.571 75.3486 42.5893 75.3852 42.6258C75.4217 42.6624 75.44 42.7063 75.44 42.7575V50.2842C75.44 50.3354 75.4217 50.3793 75.3852 50.4159C75.3486 50.4525 75.3047 50.4708 75.2535 50.4708H73.4541C73.4029 50.4708 73.359 50.4525 73.3224 50.4159C73.2932 50.3793 73.2785 50.3354 73.2785 50.2842V49.7686C73.2785 49.732 73.2676 49.7137 73.2456 49.7137C73.2237 49.7064 73.2017 49.7174 73.1798 49.7466C72.7702 50.3025 72.1375 50.5805 71.2817 50.5805C70.499 50.5805 69.859 50.3428 69.3616 49.8673C68.8568 49.3992 68.6045 48.7409 68.6045 47.8924V42.7575C68.6045 42.7063 68.6228 42.6624 68.6594 42.6258C68.6959 42.5893 68.7398 42.571 68.791 42.571H70.5685C70.6197 42.571 70.6636 42.5893 70.7001 42.6258C70.7367 42.6624 70.755 42.7063 70.755 42.7575V47.3547C70.755 47.7644 70.8647 48.0972 71.0842 48.3532C71.3036 48.6092 71.6072 48.7372 71.9948 48.7372C72.3459 48.7372 72.6349 48.6311 72.8616 48.419C73.0884 48.2069 73.2273 47.9326 73.2785 47.5961V42.7575ZM85.7975 42.4503C86.5948 42.4503 87.2166 42.6917 87.6628 43.1744C88.1163 43.6572 88.343 44.3338 88.343 45.2042V50.2842C88.343 50.3354 88.3247 50.3793 88.2882 50.4159C88.2516 50.4525 88.2077 50.4708 88.1565 50.4708H86.3571C86.3059 50.4708 86.262 50.4525 86.2254 50.4159C86.1962 50.3793 86.1816 50.3354 86.1816 50.2842V45.676C86.1816 45.2591 86.0718 44.9263 85.8524 44.6776C85.6403 44.4362 85.355 44.3155 84.9966 44.3155C84.6382 44.3155 84.3456 44.4362 84.1188 44.6776C83.8921 44.9263 83.7787 45.2554 83.7787 45.6651V50.2842C83.7787 50.3354 83.7604 50.3793 83.7238 50.4159C83.6873 50.4525 83.6434 50.4708 83.5922 50.4708H81.8147C81.7635 50.4708 81.7196 50.4525 81.683 50.4159C81.6465 50.3793 81.6282 50.3354 81.6282 50.2842V45.676C81.6282 45.2664 81.5148 44.9372 81.2881 44.6886C81.0686 44.4399 80.7797 44.3155 80.4213 44.3155C80.0921 44.3155 79.8178 44.4106 79.5984 44.6008C79.3789 44.7983 79.2473 45.0689 79.2034 45.4127V50.2842C79.2034 50.3354 79.1851 50.3793 79.1485 50.4159C79.112 50.4525 79.0681 50.4708 79.0169 50.4708H77.2175C77.1663 50.4708 77.1224 50.4525 77.0858 50.4159C77.0565 50.3793 77.0419 50.3354 77.0419 50.2842V42.7575C77.0419 42.7063 77.0565 42.6624 77.0858 42.6258C77.1224 42.5893 77.1663 42.571 77.2175 42.571H79.0169C79.0681 42.571 79.112 42.5893 79.1485 42.6258C79.1851 42.6624 79.2034 42.7063 79.2034 42.7575V43.3609C79.2034 43.3902 79.2144 43.4085 79.2363 43.4158C79.2583 43.4304 79.2765 43.4231 79.2912 43.3939C79.7154 42.7648 80.3664 42.4503 81.2442 42.4503C81.7562 42.4503 82.206 42.56 82.5937 42.7794C82.9741 42.9916 83.2667 43.2988 83.4715 43.7011C83.5007 43.7596 83.5373 43.7596 83.5812 43.7011C83.808 43.2768 84.1115 42.9623 84.4919 42.7575C84.8795 42.5527 85.3148 42.4503 85.7975 42.4503Z" fill="#252530"/>
<path d="M33.4194 82.8159C32.8489 82.8159 32.3515 82.7244 31.9272 82.5416C31.503 82.3587 31.1738 82.1027 30.9397 81.7735C30.713 81.4444 30.5996 81.0567 30.5996 80.6105V80.3362C30.5996 80.2996 30.6142 80.2667 30.6435 80.2375C30.6654 80.2155 30.6947 80.2046 30.7313 80.2046H31.7078C31.7443 80.2046 31.7773 80.2155 31.8065 80.2375C31.8285 80.2667 31.8394 80.2996 31.8394 80.3362V80.5447C31.8394 80.8812 31.9894 81.1591 32.2893 81.3785C32.5892 81.6053 32.9988 81.7187 33.5181 81.7187C33.9643 81.7187 34.3008 81.6236 34.5276 81.4334C34.7543 81.2432 34.8677 80.9982 34.8677 80.6983C34.8677 80.4935 34.8055 80.3179 34.6812 80.1716C34.5568 80.0327 34.3813 79.9047 34.1545 79.7876C33.9205 79.6706 33.573 79.5243 33.1122 79.3487C32.5928 79.1586 32.1723 78.9794 31.8504 78.8111C31.5286 78.6429 31.2616 78.4125 31.0495 78.1199C30.83 77.8346 30.7203 77.4762 30.7203 77.0446C30.7203 76.4009 30.9544 75.8926 31.4225 75.5195C31.8906 75.1465 32.516 74.96 33.2987 74.96C33.8473 74.96 34.3337 75.0551 34.758 75.2452C35.1749 75.4354 35.5004 75.7024 35.7345 76.0462C35.9685 76.3827 36.0856 76.774 36.0856 77.2202V77.4067C36.0856 77.4433 36.071 77.4762 36.0417 77.5055C36.0197 77.5274 35.9905 77.5384 35.9539 77.5384H34.9664C34.9299 77.5384 34.9006 77.5274 34.8787 77.5055C34.8494 77.4762 34.8348 77.4433 34.8348 77.4067V77.286C34.8348 76.9422 34.6958 76.6533 34.4178 76.4192C34.1326 76.1778 33.7412 76.0572 33.2438 76.0572C32.8415 76.0572 32.5307 76.1413 32.3112 76.3095C32.0845 76.4778 31.9711 76.7155 31.9711 77.0227C31.9711 77.2421 32.0296 77.4213 32.1467 77.5603C32.2637 77.6993 32.4392 77.8236 32.6733 77.9334C32.9074 78.0504 33.2695 78.1967 33.7595 78.3722C34.2789 78.5697 34.6958 78.7489 35.0103 78.9099C35.3175 79.0708 35.5845 79.2939 35.8113 79.5791C36.0307 79.8717 36.1404 80.2338 36.1404 80.6654C36.1404 81.3237 35.8954 81.8467 35.4053 82.2344C34.9226 82.622 34.2606 82.8159 33.4194 82.8159ZM40.1123 82.8159C39.571 82.8159 39.0919 82.7098 38.675 82.4977C38.258 82.2856 37.9362 81.9857 37.7094 81.598C37.4754 81.203 37.3583 80.7495 37.3583 80.2375V75.1794C37.3583 75.1428 37.373 75.1136 37.4022 75.0916C37.4242 75.0624 37.4534 75.0477 37.49 75.0477H38.4994C38.536 75.0477 38.5689 75.0624 38.5982 75.0916C38.6201 75.1136 38.6311 75.1428 38.6311 75.1794V80.2594C38.6311 80.691 38.7664 81.0421 39.037 81.3127C39.3077 81.5834 39.6661 81.7187 40.1123 81.7187C40.5585 81.7187 40.9169 81.5834 41.1875 81.3127C41.4582 81.0421 41.5935 80.691 41.5935 80.2594V75.1794C41.5935 75.1428 41.6081 75.1136 41.6374 75.0916C41.6593 75.0624 41.6886 75.0477 41.7252 75.0477H42.7346C42.7712 75.0477 42.8041 75.0624 42.8333 75.0916C42.8553 75.1136 42.8662 75.1428 42.8662 75.1794V80.2375C42.8662 80.7495 42.7529 81.203 42.5261 81.598C42.2994 81.9857 41.9775 82.2856 41.5606 82.4977C41.1437 82.7098 40.6609 82.8159 40.1123 82.8159ZM49.3507 75.1355C49.3872 75.077 49.4384 75.0477 49.5043 75.0477H50.5137C50.5503 75.0477 50.5832 75.0624 50.6124 75.0916C50.6344 75.1136 50.6454 75.1428 50.6454 75.1794V82.5964C50.6454 82.633 50.6344 82.6623 50.6124 82.6842C50.5832 82.7135 50.5503 82.7281 50.5137 82.7281H49.5043C49.4677 82.7281 49.4348 82.7135 49.4055 82.6842C49.3836 82.6623 49.3726 82.633 49.3726 82.5964V77.3628C49.3726 77.3409 49.3616 77.3262 49.3397 77.3189C49.3251 77.3116 49.3141 77.3189 49.3068 77.3409L47.9353 79.4475C47.8987 79.506 47.8475 79.5353 47.7817 79.5353H47.277C47.2111 79.5353 47.1599 79.506 47.1234 79.4475L45.7409 77.3518C45.7336 77.3299 45.719 77.3226 45.697 77.3299C45.6824 77.3372 45.6751 77.3518 45.6751 77.3738V82.5964C45.6751 82.633 45.6641 82.6623 45.6421 82.6842C45.6129 82.7135 45.58 82.7281 45.5434 82.7281H44.534C44.4974 82.7281 44.4681 82.7135 44.4462 82.6842C44.4169 82.6623 44.4023 82.633 44.4023 82.5964V75.1794C44.4023 75.1428 44.4169 75.1136 44.4462 75.0916C44.4681 75.0624 44.4974 75.0477 44.534 75.0477H45.5434C45.6092 75.0477 45.6604 75.077 45.697 75.1355L47.4854 77.8456C47.5001 77.8602 47.5147 77.8675 47.5293 77.8675C47.544 77.8675 47.5549 77.8602 47.5622 77.8456L49.3507 75.1355ZM57.1956 75.1355C57.2322 75.077 57.2834 75.0477 57.3492 75.0477H58.3586C58.3952 75.0477 58.4245 75.0624 58.4464 75.0916C58.4757 75.1136 58.4903 75.1428 58.4903 75.1794V82.5964C58.4903 82.633 58.4757 82.6623 58.4464 82.6842C58.4245 82.7135 58.3952 82.7281 58.3586 82.7281H57.3492C57.3126 82.7281 57.2834 82.7135 57.2614 82.6842C57.2322 82.6623 57.2176 82.633 57.2176 82.5964V77.3628C57.2176 77.3409 57.2102 77.3262 57.1956 77.3189C57.1737 77.3116 57.159 77.3189 57.1517 77.3409L55.7802 79.4475C55.7437 79.506 55.6924 79.5353 55.6266 79.5353H55.1219C55.0561 79.5353 55.0049 79.506 54.9683 79.4475L53.5858 77.3518C53.5785 77.3299 53.5676 77.3226 53.5529 77.3299C53.531 77.3372 53.52 77.3518 53.52 77.3738V82.5964C53.52 82.633 53.509 82.6623 53.4871 82.6842C53.4578 82.7135 53.4249 82.7281 53.3883 82.7281H52.3789C52.3424 82.7281 52.3131 82.7135 52.2911 82.6842C52.2619 82.6623 52.2473 82.633 52.2473 82.5964V75.1794C52.2473 75.1428 52.2619 75.1136 52.2911 75.0916C52.3131 75.0624 52.3424 75.0477 52.3789 75.0477H53.3883C53.4542 75.0477 53.5054 75.077 53.5419 75.1355L55.3304 77.8456C55.345 77.8602 55.3596 77.8675 55.3743 77.8675C55.3889 77.8675 55.3999 77.8602 55.4072 77.8456L57.1956 75.1355ZM65.2929 76.0133C65.2929 76.0498 65.2819 76.0791 65.26 76.101C65.2307 76.1303 65.1978 76.1449 65.1612 76.1449H61.4198C61.3832 76.1449 61.3649 76.1632 61.3649 76.1998V78.2515C61.3649 78.2881 61.3832 78.3064 61.4198 78.3064H63.9324C63.969 78.3064 64.0019 78.3174 64.0311 78.3393C64.0531 78.3686 64.064 78.4015 64.064 78.4381V79.2719C64.064 79.3085 64.0531 79.3414 64.0311 79.3707C64.0019 79.3926 63.969 79.4036 63.9324 79.4036H61.4198C61.3832 79.4036 61.3649 79.4219 61.3649 79.4585V81.576C61.3649 81.6126 61.3832 81.6309 61.4198 81.6309H65.1612C65.1978 81.6309 65.2307 81.6455 65.26 81.6748C65.2819 81.6967 65.2929 81.726 65.2929 81.7626V82.5964C65.2929 82.633 65.2819 82.6623 65.26 82.6842C65.2307 82.7135 65.1978 82.7281 65.1612 82.7281H60.2239C60.1873 82.7281 60.158 82.7135 60.1361 82.6842C60.1068 82.6623 60.0922 82.633 60.0922 82.5964V75.1794C60.0922 75.1428 60.1068 75.1136 60.1361 75.0916C60.158 75.0624 60.1873 75.0477 60.2239 75.0477H65.1612C65.1978 75.0477 65.2307 75.0624 65.26 75.0916C65.2819 75.1136 65.2929 75.1428 65.2929 75.1794V76.0133ZM70.8996 82.7281C70.8264 82.7281 70.7752 82.6952 70.746 82.6293L69.2977 79.4694C69.283 79.4402 69.2611 79.4255 69.2318 79.4255H67.9152C67.8786 79.4255 67.8603 79.4438 67.8603 79.4804V82.5964C67.8603 82.633 67.8457 82.6623 67.8165 82.6842C67.7945 82.7135 67.7652 82.7281 67.7287 82.7281H66.7193C66.6827 82.7281 66.6534 82.7135 66.6315 82.6842C66.6022 82.6623 66.5876 82.633 66.5876 82.5964V75.1794C66.5876 75.1428 66.6022 75.1136 66.6315 75.0916C66.6534 75.0624 66.6827 75.0477 66.7193 75.0477H69.7365C70.1827 75.0477 70.5777 75.1392 70.9215 75.322C71.2653 75.5122 71.5323 75.7755 71.7225 76.112C71.9126 76.4558 72.0077 76.8471 72.0077 77.286C72.0077 77.7907 71.8761 78.2186 71.6127 78.5697C71.3567 78.9281 70.9983 79.1768 70.5375 79.3158C70.5229 79.3158 70.5119 79.3231 70.5046 79.3378C70.4973 79.3524 70.4973 79.367 70.5046 79.3817L72.0516 82.5745C72.0662 82.6038 72.0736 82.6257 72.0736 82.6403C72.0736 82.6988 72.0333 82.7281 71.9529 82.7281H70.8996ZM67.9152 76.1449C67.8786 76.1449 67.8603 76.1632 67.8603 76.1998V78.3832C67.8603 78.4198 67.8786 78.4381 67.9152 78.4381H69.561C69.9121 78.4381 70.1937 78.332 70.4058 78.1199C70.6253 77.9151 70.735 77.6408 70.735 77.297C70.735 76.9532 70.6253 76.6752 70.4058 76.4631C70.1937 76.251 69.9121 76.1449 69.561 76.1449H67.9152Z" fill="white"/>
<path d="M36.7428 102.544C36.7209 102.566 36.7136 102.588 36.7209 102.61C36.7355 102.632 36.7574 102.643 36.7867 102.643H41.0987C41.1499 102.643 41.1938 102.661 41.2303 102.697C41.2742 102.734 41.2962 102.778 41.2962 102.829V104.376C41.2962 104.427 41.2742 104.471 41.2303 104.508C41.1938 104.544 41.1499 104.563 41.0987 104.563H33.945C33.8864 104.563 33.8389 104.544 33.8023 104.508C33.7658 104.471 33.7475 104.427 33.7475 104.376V102.906C33.7475 102.811 33.7804 102.73 33.8462 102.664C34.3656 102.16 34.8959 101.608 35.4371 101.008C35.9784 100.408 36.3186 100.035 36.4575 99.8886C36.7501 99.5375 37.05 99.201 37.3572 98.8792C38.3228 97.8112 38.8055 97.0176 38.8055 96.4982C38.8055 96.1252 38.6739 95.818 38.4105 95.5766C38.1472 95.3425 37.8034 95.2255 37.3792 95.2255C36.9549 95.2255 36.6111 95.3425 36.3478 95.5766C36.0772 95.818 35.9419 96.1362 35.9419 96.5312V96.9261C35.9419 96.9773 35.9236 97.0212 35.887 97.0578C35.8504 97.0944 35.8065 97.1127 35.7553 97.1127H33.8791C33.8279 97.1127 33.784 97.0944 33.7475 97.0578C33.7036 97.0212 33.6816 96.9773 33.6816 96.9261V96.1801C33.7182 95.6095 33.9011 95.1011 34.2302 94.655C34.5594 94.2161 34.9946 93.8796 35.5359 93.6455C36.0845 93.4115 36.6989 93.2944 37.3792 93.2944C38.1326 93.2944 38.7873 93.4371 39.3432 93.7223C39.8991 94.0003 40.327 94.377 40.6269 94.8524C40.9341 95.3352 41.0877 95.8655 41.0877 96.4434C41.0877 96.8896 40.9743 97.3467 40.7476 97.8149C40.5281 98.283 40.1953 98.7877 39.7491 99.329C39.42 99.7386 39.0652 100.148 38.6848 100.558C38.3045 100.96 37.7376 101.542 36.9842 102.302L36.7428 102.544ZM46.464 104.738C45.2936 104.738 44.372 104.413 43.699 103.762C43.0188 103.111 42.6786 102.222 42.6786 101.095V96.8932C42.6786 95.7887 43.0188 94.9146 43.699 94.2709C44.372 93.6199 45.2936 93.2944 46.464 93.2944C47.627 93.2944 48.5523 93.6199 49.2399 94.2709C49.9201 94.9146 50.2602 95.7887 50.2602 96.8932V101.095C50.2602 102.222 49.9201 103.111 49.2399 103.762C48.5523 104.413 47.627 104.738 46.464 104.738ZM46.464 102.818C46.9394 102.818 47.3161 102.672 47.5941 102.379C47.8793 102.087 48.022 101.695 48.022 101.205V96.8274C48.022 96.3446 47.8793 95.957 47.5941 95.6644C47.3161 95.3718 46.9394 95.2255 46.464 95.2255C45.9958 95.2255 45.6228 95.3718 45.3448 95.6644C45.0595 95.957 44.9169 96.3446 44.9169 96.8274V101.205C44.9169 101.695 45.0595 102.087 45.3448 102.379C45.6228 102.672 45.9958 102.818 46.464 102.818ZM54.7149 102.544C54.6929 102.566 54.6893 102.588 54.7039 102.61C54.7112 102.632 54.7331 102.643 54.7697 102.643H59.0817C59.1329 102.643 59.1768 102.661 59.2134 102.697C59.2499 102.734 59.2682 102.778 59.2682 102.829V104.376C59.2682 104.427 59.2499 104.471 59.2134 104.508C59.1768 104.544 59.1329 104.563 59.0817 104.563H51.917C51.8658 104.563 51.8219 104.544 51.7853 104.508C51.7488 104.471 51.7305 104.427 51.7305 104.376V102.906C51.7305 102.811 51.7597 102.73 51.8183 102.664C52.3449 102.16 52.8752 101.608 53.4092 101.008C53.9505 100.408 54.2906 100.035 54.4296 99.8886C54.7295 99.5375 55.033 99.201 55.3403 98.8792C56.3058 97.8112 56.7885 97.0176 56.7885 96.4982C56.7885 96.1252 56.6569 95.818 56.3936 95.5766C56.1229 95.3425 55.7755 95.2255 55.3512 95.2255C54.927 95.2255 54.5832 95.3425 54.3199 95.5766C54.0565 95.818 53.9249 96.1362 53.9249 96.5312V96.9261C53.9249 96.9773 53.9066 97.0212 53.87 97.0578C53.8334 97.0944 53.7859 97.1127 53.7274 97.1127H51.8512C51.8 97.1127 51.7561 97.0944 51.7195 97.0578C51.6829 97.0212 51.6647 96.9773 51.6647 96.9261V96.1801C51.6939 95.6095 51.8731 95.1011 52.2023 94.655C52.5314 94.2161 52.9703 93.8796 53.5189 93.6455C54.0675 93.4115 54.6783 93.2944 55.3512 93.2944C56.1046 93.2944 56.7593 93.4371 57.3152 93.7223C57.8784 94.0003 58.31 94.377 58.6099 94.8524C58.9098 95.3352 59.0597 95.8655 59.0597 96.4434C59.0597 96.8896 58.95 97.3467 58.7306 97.8149C58.5038 98.283 58.1674 98.7877 57.7212 99.329C57.392 99.7386 57.0372 100.148 56.6569 100.558C56.2765 100.96 55.7096 101.542 54.9562 102.302L54.7149 102.544ZM68.6053 99.713C68.6565 99.713 68.7041 99.7313 68.748 99.7679C68.7845 99.8045 68.8028 99.8483 68.8028 99.8995V101.512C68.8028 101.564 68.7845 101.608 68.748 101.644C68.7041 101.681 68.6565 101.699 68.6053 101.699H67.9251C67.8739 101.699 67.8483 101.725 67.8483 101.776V104.376C67.8483 104.427 67.83 104.471 67.7934 104.508C67.7495 104.544 67.702 104.563 67.6508 104.563H65.7965C65.738 104.563 65.6905 104.544 65.6539 104.508C65.6173 104.471 65.599 104.427 65.599 104.376V101.776C65.599 101.725 65.5734 101.699 65.5222 101.699H60.6397C60.5885 101.699 60.541 101.681 60.4971 101.644C60.4605 101.608 60.4422 101.564 60.4422 101.512V100.24C60.4422 100.174 60.4605 100.093 60.4971 99.9983L63.3607 93.5687C63.4046 93.4736 63.4778 93.4261 63.5802 93.4261H65.5661C65.6393 93.4261 65.6905 93.4444 65.7197 93.481C65.749 93.5175 65.7453 93.5724 65.7087 93.6455L63.0535 99.6143C63.0462 99.6362 63.0462 99.6582 63.0535 99.6801C63.0682 99.702 63.0864 99.713 63.1084 99.713H65.5222C65.5734 99.713 65.599 99.6838 65.599 99.6253V97.6613C65.599 97.6028 65.6173 97.5552 65.6539 97.5186C65.6905 97.4821 65.738 97.4638 65.7965 97.4638H67.6508C67.702 97.4638 67.7495 97.4821 67.7934 97.5186C67.83 97.5552 67.8483 97.6028 67.8483 97.6613V99.6253C67.8483 99.6838 67.8739 99.713 67.9251 99.713H68.6053Z" fill="#252530"/>
</svg>
