<svg width="91" height="119" viewBox="0 0 91 119" fill="none" xmlns="http://www.w3.org/2000/svg">
<mask id="mask0_11770_15689" style="mask-type:luminance" maskUnits="userSpaceOnUse" x="0" y="0" width="91" height="119">
<path d="M90.9451 0H0V118.035H90.9451V0Z" fill="white"/>
</mask>
<g mask="url(#mask0_11770_15689)">
<path d="M7.84375 86.9777L46.0601 106.425L82.8251 86.9777V10.9321H7.84375V86.9777Z" fill="white"/>
<path d="M83.5997 11.2236L7.07031 88.3334L46.7379 107.974L83.5997 89.1074V11.2236Z" fill="#F2F3F2"/>
<path d="M5.32422 36.2821V88.6239L6.67872 89.3011L44.895 108.748L46.056 109.329L47.217 108.748L84.0788 89.3011L85.4333 88.6239V8.41797H5.32422V36.2821ZM7.83972 87.1726V10.9335H82.9178V87.1726L46.056 106.62L7.83972 87.1726Z" fill="#DCDEDC"/>
<path d="M44.9888 12.1913C45.3758 12.1913 45.7628 12.1913 46.1498 12.288L44.9888 14.5133C43.2473 14.4165 41.6993 15.771 41.6026 17.5125C41.5058 19.254 42.8603 20.802 44.6018 20.8988H44.9888C45.7628 20.8988 46.5368 20.6085 47.1173 20.1248L48.3751 22.2533C47.4076 22.9305 46.2466 23.3175 44.9888 23.3175C41.8928 23.4143 39.2806 21.0923 39.1838 17.9963C39.0871 14.9003 41.4091 12.288 44.5051 12.1913H44.9888ZM48.9556 16.932L50.4068 19.3508L48.9556 21.6728L47.6011 19.3508H44.7953L46.2466 16.932H48.9556ZM46.6336 16.0613C46.6336 15.6743 46.7303 15.2873 46.9238 14.997C47.1173 14.7068 47.5043 14.4165 47.7946 14.223L47.9881 14.1263C48.3751 13.9328 48.4718 13.836 48.4718 13.6425C48.4718 13.449 48.1816 13.2555 47.9881 13.2555C47.6011 13.2555 47.3108 13.449 47.1173 13.836L46.6336 13.3523C46.7303 13.1588 46.9238 12.9653 47.1173 12.7718C47.4076 12.5783 47.6978 12.5783 47.9881 12.5783C48.2783 12.5783 48.6653 12.675 48.8588 12.8685C49.0523 13.062 49.2458 13.3523 49.2458 13.6425C49.2458 14.1263 48.9556 14.5133 48.3751 14.7068L48.0848 14.9003C47.7946 15.0938 47.6011 15.1905 47.5043 15.4808H49.2458V16.158L46.6336 16.0613ZM44.9888 28.155L54.1801 22.9305V8.41797H35.7008V22.8338L44.9888 28.155ZM86.8816 62.4046H3.096L0 69.1771L3.096 75.9496H86.8816L89.8809 69.1771L86.8816 62.4046Z" fill="#FF492C"/>
<path d="M38.8131 66.2573C38.8131 66.2912 38.7995 66.3183 38.7723 66.3387C38.752 66.3658 38.7249 66.3794 38.6909 66.3794H35.2312C35.1973 66.3794 35.1804 66.3963 35.1804 66.4302V68.3331C35.1804 68.367 35.1973 68.384 35.2312 68.384H37.5615C37.5954 68.384 37.6259 68.3941 37.653 68.4145C37.6734 68.4416 37.6836 68.4721 37.6836 68.5061V69.2794C37.6836 69.3133 37.6734 69.3439 37.653 69.371C37.6259 69.3913 37.5954 69.4015 37.5615 69.4015H35.2312C35.1973 69.4015 35.1804 69.4185 35.1804 69.4524V72.3626C35.1804 72.3965 35.1668 72.4237 35.1397 72.444C35.1193 72.4712 35.0922 72.4847 35.0583 72.4847H34.1221C34.0882 72.4847 34.0611 72.4712 34.0407 72.444C34.0136 72.4237 34 72.3965 34 72.3626V65.4839C34 65.45 34.0136 65.4229 34.0407 65.4025C34.0611 65.3754 34.0882 65.3618 34.1221 65.3618H38.6909C38.7249 65.3618 38.752 65.3754 38.7723 65.4025C38.7995 65.4229 38.8131 65.45 38.8131 65.4839V66.2573ZM43.4531 72.4847C43.3853 72.4847 43.3412 72.4508 43.3208 72.383L42.985 71.2942C42.9715 71.267 42.9545 71.2535 42.9342 71.2535H40.2478C40.2275 71.2535 40.2105 71.267 40.1969 71.2942L39.8611 72.383C39.8408 72.4508 39.7967 72.4847 39.7289 72.4847H38.7113C38.6706 72.4847 38.6401 72.4712 38.6197 72.444C38.5994 72.4237 38.596 72.3898 38.6095 72.3423L40.8176 65.4636C40.838 65.3957 40.8821 65.3618 40.9499 65.3618H42.2219C42.2897 65.3618 42.3338 65.3957 42.3542 65.4636L44.5724 72.3423C44.5792 72.3558 44.5826 72.3728 44.5826 72.3931C44.5826 72.4542 44.5453 72.4847 44.4707 72.4847H43.4531ZM40.5124 70.2664C40.5056 70.3072 40.5192 70.3275 40.5531 70.3275H42.6187C42.6594 70.3275 42.673 70.3072 42.6594 70.2664L41.6113 66.8576C41.6046 66.8305 41.5944 66.8169 41.5808 66.8169C41.5672 66.8169 41.5571 66.8305 41.5503 66.8576L40.5124 70.2664ZM45.7528 72.4847C45.7189 72.4847 45.6917 72.4712 45.6714 72.444C45.6443 72.4237 45.6307 72.3965 45.6307 72.3626V65.4839C45.6307 65.45 45.6443 65.4229 45.6714 65.4025C45.6917 65.3754 45.7189 65.3618 45.7528 65.3618H46.689C46.7229 65.3618 46.7534 65.3754 46.7805 65.4025C46.8009 65.4229 46.8111 65.45 46.8111 65.4839V71.4163C46.8111 71.4502 46.828 71.4672 46.8619 71.4672H50.2708C50.3047 71.4672 50.3318 71.4807 50.3522 71.5079C50.3793 71.5282 50.3929 71.5554 50.3929 71.5893V72.3626C50.3929 72.3965 50.3793 72.4237 50.3522 72.444C50.3318 72.4712 50.3047 72.4847 50.2708 72.4847H45.7528ZM51.5631 72.4847C51.5291 72.4847 51.502 72.4712 51.4817 72.444C51.4545 72.4237 51.441 72.3965 51.441 72.3626V65.4839C51.441 65.45 51.4545 65.4229 51.4817 65.4025C51.502 65.3754 51.5291 65.3618 51.5631 65.3618H52.4992C52.5331 65.3618 52.5637 65.3754 52.5908 65.4025C52.6111 65.4229 52.6213 65.45 52.6213 65.4839V71.4163C52.6213 71.4502 52.6383 71.4672 52.6722 71.4672H56.081C56.1149 71.4672 56.1455 71.4807 56.1726 71.5079C56.193 71.5282 56.2031 71.5554 56.2031 71.5893V72.3626C56.2031 72.3965 56.193 72.4237 56.1726 72.444C56.1455 72.4712 56.1149 72.4847 56.081 72.4847H51.5631Z" fill="white"/>
<path d="M24.4965 58.0495C24.4514 58.0495 24.4127 58.0333 24.3804 58.0011C24.3482 57.9688 24.332 57.9302 24.332 57.8851V48.7324C24.332 48.6873 24.3482 48.6486 24.3804 48.6163C24.4127 48.5841 24.4514 48.5681 24.4965 48.5681H26.0832C26.1284 48.5681 26.1671 48.5841 26.1993 48.6163C26.2316 48.6486 26.2477 48.6873 26.2477 48.7324V56.3467C26.2477 56.3918 26.2703 56.4145 26.3154 56.4145H30.7466C30.7917 56.4145 30.8272 56.4274 30.853 56.4532C30.8853 56.4854 30.9014 56.524 30.9014 56.5692V57.8851C30.9014 57.9302 30.8853 57.9688 30.853 58.0011C30.8272 58.0333 30.7917 58.0495 30.7466 58.0495H24.4965ZM38.1286 53.8506C38.1802 54.1925 38.1963 54.5762 38.177 55.0019C38.1705 55.1116 38.1125 55.1664 38.0028 55.1664H33.8136C33.762 55.1664 33.7458 55.189 33.7652 55.2341C33.791 55.4147 33.8394 55.5952 33.9103 55.7758C34.149 56.2789 34.6295 56.5305 35.3519 56.5305C35.9259 56.524 36.3807 56.2886 36.7161 55.8242C36.7548 55.7726 36.7967 55.7468 36.8418 55.7468C36.8676 55.7468 36.8967 55.7663 36.9289 55.805L37.9061 56.7627C37.9512 56.8078 37.9738 56.8498 37.9738 56.8885C37.9738 56.9014 37.9577 56.9368 37.9254 56.9949C37.6223 57.3625 37.2385 57.6496 36.7741 57.856C36.3033 58.0559 35.7873 58.1559 35.2261 58.1559C34.4521 58.1559 33.7942 57.9817 33.2524 57.6334C32.7171 57.2787 32.3333 56.7854 32.1011 56.1533C31.9076 55.7018 31.8108 55.1115 31.8108 54.3826C31.8108 53.886 31.8786 53.4474 32.014 53.0668C32.2204 52.4218 32.5848 51.9123 33.1073 51.5382C33.6233 51.1576 34.2393 50.9674 34.9552 50.9674C35.8582 50.9674 36.5838 51.2286 37.1321 51.751C37.6739 52.2735 38.0061 52.9734 38.1286 53.8506ZM34.9649 52.6218C34.3973 52.6218 34.0232 52.8862 33.8426 53.4151C33.8103 53.5312 33.7781 53.6765 33.7458 53.8506C33.7458 53.8958 33.7684 53.9183 33.8136 53.9183H36.1646C36.2162 53.9183 36.2323 53.8958 36.213 53.8506C36.1678 53.5862 36.1452 53.4604 36.1452 53.4733C36.0678 53.2024 35.9259 52.9927 35.7195 52.8443C35.5196 52.696 35.268 52.6218 34.9649 52.6218ZM42.0663 50.9771C42.6533 50.9771 43.1757 51.0803 43.6337 51.2867C44.0981 51.4867 44.4593 51.764 44.7173 52.1188C44.9753 52.4671 45.1043 52.8604 45.1043 53.299V57.8851C45.1043 57.9302 45.0882 57.9688 45.0559 58.0011C45.0237 58.0333 44.985 58.0495 44.9398 58.0495H43.3531C43.308 58.0495 43.2693 58.0333 43.237 58.0011C43.2048 57.9688 43.1886 57.9302 43.1886 57.8851V57.4399C43.1886 57.4141 43.179 57.3949 43.1596 57.382C43.1467 57.3755 43.1306 57.3851 43.1112 57.4109C42.7307 57.9076 42.1212 58.1559 41.2827 58.1559C40.5796 58.1559 40.0088 57.9851 39.5702 57.6432C39.138 57.3014 38.922 56.7949 38.922 56.1241C38.922 55.4275 39.1671 54.889 39.6573 54.5084C40.141 54.1214 40.8344 53.9279 41.7374 53.9279H43.1209C43.1661 53.9279 43.1886 53.9053 43.1886 53.8602V53.57C43.1886 53.2669 43.0983 53.0315 42.9177 52.8638C42.7371 52.7025 42.4662 52.6218 42.105 52.6218C41.8277 52.6218 41.5955 52.6702 41.4084 52.7669C41.2214 52.8637 41.1021 53.0023 41.0505 53.1829C41.0247 53.2861 40.9666 53.3314 40.8763 53.3185L39.2316 53.1055C39.1284 53.0862 39.08 53.0444 39.0864 52.9799C39.1251 52.6058 39.2767 52.2639 39.5412 51.9543C39.8056 51.6447 40.1571 51.406 40.5957 51.2383C41.0343 51.0641 41.5245 50.9771 42.0663 50.9771ZM41.7954 56.7337C42.1824 56.7337 42.5114 56.6305 42.7823 56.4241C43.0532 56.2177 43.1886 55.95 43.1886 55.621V55.1373C43.1886 55.0921 43.1661 55.0696 43.1209 55.0696H42.1437C41.7374 55.0696 41.4213 55.147 41.1956 55.3018C40.9634 55.4566 40.8473 55.6727 40.8473 55.9501C40.8473 56.1952 40.9344 56.3886 41.1085 56.5305C41.2762 56.6659 41.5052 56.7337 41.7954 56.7337ZM50.7642 48.7324C50.7642 48.6873 50.7803 48.6486 50.8126 48.6163C50.8448 48.5841 50.8835 48.5681 50.9287 48.5681H52.5057C52.5508 48.5681 52.5895 48.5841 52.6218 48.6163C52.654 48.6486 52.6702 48.6873 52.6702 48.7324V57.8851C52.6702 57.9302 52.654 57.9688 52.6218 58.0011C52.5895 58.0333 52.5508 58.0495 52.5057 58.0495H50.9287C50.8835 58.0495 50.8448 58.0333 50.8126 58.0011C50.7803 57.9688 50.7642 57.9302 50.7642 57.8851V57.4399C50.7642 57.4141 50.7545 57.3981 50.7351 57.3917C50.7158 57.3852 50.6965 57.3916 50.6771 57.4109C50.303 57.9076 49.7838 58.1559 49.1194 58.1559C48.4873 58.1559 47.9455 57.9817 47.494 57.6334C47.0361 57.2787 46.7071 56.795 46.5072 56.1823C46.3524 55.7114 46.275 55.1631 46.275 54.5374C46.275 53.8989 46.3588 53.3411 46.5265 52.8638C46.7329 52.2833 47.0586 51.8252 47.5037 51.4898C47.9487 51.148 48.5034 50.9771 49.1678 50.9771C49.8128 50.9771 50.3159 51.2029 50.6771 51.6544C50.6965 51.6802 50.7158 51.6898 50.7351 51.6833C50.7545 51.6769 50.7642 51.6576 50.7642 51.6254V48.7324ZM50.4739 55.9403C50.6545 55.6049 50.7448 55.1471 50.7448 54.5666C50.7448 53.9603 50.6481 53.4861 50.4546 53.1442C50.2417 52.7959 49.9386 52.6218 49.5451 52.6218C49.1194 52.6218 48.7969 52.7959 48.5776 53.1442C48.3519 53.499 48.239 53.9795 48.239 54.5858C48.239 55.1276 48.3357 55.5791 48.5292 55.9403C48.755 56.3273 49.0872 56.5209 49.5258 56.5209C49.9321 56.5209 50.2482 56.3273 50.4739 55.9403ZM60.2747 53.8506C60.3263 54.1925 60.3424 54.5762 60.3231 55.0019C60.3166 55.1116 60.2586 55.1664 60.1489 55.1664H55.9597C55.9081 55.1664 55.8919 55.189 55.9113 55.2341C55.9371 55.4147 55.9855 55.5952 56.0564 55.7758C56.2951 56.2789 56.7756 56.5305 57.498 56.5305C58.072 56.524 58.5268 56.2886 58.8622 55.8242C58.9009 55.7726 58.9428 55.7468 58.9879 55.7468C59.0137 55.7468 59.0428 55.7663 59.075 55.805L60.0522 56.7627C60.0973 56.8078 60.1199 56.8498 60.1199 56.8885C60.1199 56.9014 60.1038 56.9368 60.0715 56.9949C59.7684 57.3625 59.3846 57.6496 58.9202 57.856C58.4494 58.0559 57.9334 58.1559 57.3722 58.1559C56.5982 58.1559 55.9403 57.9817 55.3985 57.6334C54.8632 57.2787 54.4794 56.7854 54.2472 56.1533C54.0537 55.7018 53.9569 55.1115 53.9569 54.3826C53.9569 53.886 54.0247 53.4474 54.1601 53.0668C54.3665 52.4218 54.7309 51.9123 55.2534 51.5382C55.7694 51.1576 56.3854 50.9674 57.1013 50.9674C58.0043 50.9674 58.7299 51.2286 59.2782 51.751C59.82 52.2735 60.1522 52.9734 60.2747 53.8506ZM57.111 52.6218C56.5434 52.6218 56.1693 52.8862 55.9887 53.4151C55.9564 53.5312 55.9242 53.6765 55.8919 53.8506C55.8919 53.8958 55.9145 53.9183 55.9597 53.9183H58.3107C58.3623 53.9183 58.3784 53.8958 58.3591 53.8506C58.3139 53.5862 58.2913 53.4604 58.2913 53.4733C58.2139 53.2024 58.072 52.9927 57.8656 52.8443C57.6657 52.696 57.4141 52.6218 57.111 52.6218ZM64.9671 50.9964C65.296 50.9964 65.554 51.0577 65.7411 51.1802C65.812 51.2189 65.8411 51.2866 65.8282 51.3834L65.5379 52.9314C65.5315 53.041 65.4702 53.0733 65.3541 53.0281C65.2186 52.983 65.0606 52.9604 64.88 52.9604C64.8026 52.9604 64.7026 52.967 64.5801 52.9799C64.2511 53.0121 63.9738 53.1313 63.748 53.3377C63.5223 53.5506 63.4094 53.8345 63.4094 54.1892V57.8851C63.4094 57.9302 63.3965 57.9688 63.3707 58.0011C63.3385 58.0333 63.2998 58.0495 63.2546 58.0495H61.6679C61.6228 58.0495 61.5841 58.0333 61.5518 58.0011C61.5196 57.9688 61.5034 57.9302 61.5034 57.8851V51.248C61.5034 51.2029 61.5196 51.1642 61.5518 51.1319C61.5841 51.0997 61.6228 51.0835 61.6679 51.0835H63.2546C63.2998 51.0835 63.3385 51.0997 63.3707 51.1319C63.3965 51.1642 63.4094 51.2029 63.4094 51.248V51.7607C63.4094 51.793 63.4191 51.8124 63.4384 51.8189C63.4578 51.8253 63.4707 51.8221 63.4771 51.8092C63.8512 51.2674 64.3479 50.9964 64.9671 50.9964ZM18.3335 35.1295C18.3787 35.0585 18.4432 35.0229 18.527 35.0229H20.1137C20.1589 35.0229 20.1976 35.0392 20.2298 35.0714C20.2621 35.1037 20.2782 35.1424 20.2782 35.1875V44.34C20.2782 44.3851 20.2621 44.4239 20.2298 44.4562C20.1976 44.4884 20.1589 44.5045 20.1137 44.5045H18.527C18.4819 44.5045 18.4432 44.4884 18.4109 44.4562C18.3787 44.4239 18.3626 44.3851 18.3626 44.34V38.3705C18.3626 38.3318 18.3529 38.3125 18.3335 38.3125C18.3206 38.3125 18.3045 38.3254 18.2852 38.3512L16.8436 40.6054C16.7984 40.6764 16.7372 40.7118 16.6598 40.7118H15.8567C15.7793 40.7118 15.7181 40.6764 15.6729 40.6054L14.2313 38.3512C14.212 38.3254 14.1959 38.3158 14.183 38.3222C14.1636 38.3287 14.1539 38.3479 14.1539 38.3802V44.34C14.1539 44.3851 14.1378 44.4239 14.1056 44.4562C14.0733 44.4884 14.0346 44.5045 13.9895 44.5045H12.4028C12.3576 44.5045 12.3189 44.4884 12.2867 44.4562C12.2544 44.4239 12.2383 44.3851 12.2383 44.34V35.1875C12.2383 35.1424 12.2544 35.1037 12.2867 35.0714C12.3189 35.0392 12.3576 35.0229 12.4028 35.0229H13.9895C14.0733 35.0229 14.1378 35.0585 14.183 35.1295L16.2147 38.2835C16.2405 38.3416 16.2663 38.3416 16.2921 38.2835L18.3335 35.1295ZM24.8835 44.611C24.1224 44.611 23.471 44.4141 22.9292 44.0207C22.3874 43.6208 22.0165 43.0791 21.8165 42.3954C21.694 41.9697 21.6327 41.5084 21.6327 41.0118C21.6327 40.4764 21.694 39.996 21.8165 39.5703C22.0229 38.9059 22.397 38.3834 22.9388 38.0028C23.4806 37.6223 24.1321 37.432 24.8932 37.432C25.6349 37.432 26.267 37.6191 26.7895 37.9932C27.3119 38.3673 27.6828 38.8898 27.9021 39.5606C28.044 40.0121 28.115 40.4861 28.115 40.9827C28.115 41.4729 28.0537 41.9278 27.9312 42.347C27.7312 43.0565 27.3635 43.6112 26.8282 44.0111C26.2864 44.411 25.6382 44.611 24.8835 44.611ZM24.8835 42.9758C25.1802 42.9758 25.4318 42.8855 25.6382 42.7049C25.8446 42.5243 25.9929 42.276 26.0832 41.9599C26.1542 41.6697 26.1896 41.3536 26.1896 41.0118C26.1896 40.6312 26.1542 40.3087 26.0832 40.0443C25.9865 39.7411 25.8349 39.5026 25.6285 39.3284C25.4156 39.1607 25.1609 39.0769 24.8642 39.0769C24.561 39.0769 24.3062 39.1607 24.0998 39.3284C23.8999 39.5026 23.7548 39.7411 23.6645 40.0443C23.5871 40.2636 23.5484 40.5861 23.5484 41.0118C23.5484 41.4181 23.5806 41.7342 23.6451 41.9599C23.7354 42.276 23.887 42.5243 24.0998 42.7049C24.3127 42.8855 24.5739 42.9758 24.8835 42.9758ZM37.074 37.432C37.7771 37.432 38.3253 37.6449 38.7188 38.0706C39.1187 38.4963 39.3186 39.093 39.3186 39.8605V44.34C39.3186 44.3851 39.3025 44.4239 39.2703 44.4562C39.238 44.4884 39.1993 44.5045 39.1542 44.5045H37.5675C37.5223 44.5045 37.4836 44.4884 37.4514 44.4562C37.4256 44.4239 37.4127 44.3851 37.4127 44.34V40.2766C37.4127 39.9089 37.3159 39.6153 37.1224 39.396C36.9354 39.1832 36.6838 39.0769 36.3678 39.0769C36.0517 39.0769 35.7937 39.1832 35.5938 39.396C35.3938 39.6153 35.2938 39.9056 35.2938 40.2668V44.34C35.2938 44.3851 35.2777 44.4239 35.2455 44.4562C35.2132 44.4884 35.1745 44.5045 35.1294 44.5045H33.562C33.5169 44.5045 33.4782 44.4884 33.4459 44.4562C33.4137 44.4239 33.3975 44.3851 33.3975 44.34V40.2766C33.3975 39.9154 33.2976 39.6251 33.0976 39.4058C32.9041 39.1865 32.6493 39.0769 32.3333 39.0769C32.043 39.0769 31.8012 39.1607 31.6077 39.3284C31.4142 39.5026 31.2981 39.7411 31.2594 40.0443V44.34C31.2594 44.3851 31.2432 44.4239 31.211 44.4562C31.1787 44.4884 31.14 44.5045 31.0949 44.5045H29.5082C29.463 44.5045 29.4276 44.4884 29.4018 44.4562C29.3695 44.4239 29.3534 44.3851 29.3534 44.34V37.7029C29.3534 37.6578 29.3695 37.6191 29.4018 37.5868C29.4276 37.5546 29.463 37.5384 29.5082 37.5384H31.0949C31.14 37.5384 31.1787 37.5546 31.211 37.5868C31.2432 37.6191 31.2594 37.6578 31.2594 37.7029V38.2351C31.2594 38.2609 31.269 38.2771 31.2884 38.2835C31.3077 38.2964 31.3239 38.2899 31.3368 38.2641C31.7109 37.7094 32.2849 37.432 33.0589 37.432C33.5104 37.432 33.9071 37.5289 34.2489 37.7224C34.5843 37.9094 34.8423 38.1802 35.0229 38.535C35.0487 38.5866 35.081 38.5866 35.1197 38.535C35.3196 38.1609 35.5873 37.8835 35.9227 37.7029C36.2646 37.5223 36.6483 37.432 37.074 37.432ZM46.7781 40.3055C46.8361 40.6473 46.8555 41.0311 46.8361 41.4568C46.8297 41.5665 46.7716 41.6213 46.662 41.6213H42.4727C42.4211 41.6213 42.405 41.6439 42.4243 41.689C42.4501 41.8696 42.4985 42.0503 42.5694 42.2309C42.8016 42.734 43.2789 42.9855 44.0013 42.9855C44.5818 42.979 45.0398 42.7437 45.3752 42.2793C45.4074 42.2277 45.4461 42.2019 45.4913 42.2019C45.5235 42.2019 45.5558 42.2211 45.588 42.2598L46.5652 43.2178C46.6104 43.2629 46.6329 43.3047 46.6329 43.3434C46.6329 43.3563 46.6136 43.3919 46.5749 43.45C46.2782 43.8176 45.8944 44.1046 45.4236 44.311C44.9592 44.511 44.4464 44.611 43.8852 44.611C43.1048 44.611 42.4469 44.4368 41.9115 44.0885C41.3762 43.7338 40.9892 43.2403 40.7505 42.6082C40.5635 42.1567 40.47 41.5666 40.47 40.8377C40.47 40.3411 40.5377 39.9025 40.6731 39.5219C40.8795 38.8769 41.244 38.3673 41.7664 37.9932C42.2824 37.6126 42.8984 37.4223 43.6143 37.4223C44.5173 37.4223 45.2397 37.6837 45.7815 38.2061C46.3298 38.7286 46.662 39.4283 46.7781 40.3055ZM43.624 39.0769C43.0564 39.0769 42.6823 39.3413 42.5017 39.8702C42.463 39.9863 42.4308 40.1313 42.405 40.3055C42.405 40.3506 42.4275 40.3732 42.4727 40.3732H44.814C44.8721 40.3732 44.8914 40.3506 44.8721 40.3055C44.8269 40.041 44.8044 39.9153 44.8044 39.9282C44.7205 39.6573 44.5786 39.4477 44.3787 39.2994C44.1723 39.151 43.9207 39.0769 43.624 39.0769ZM51.6446 37.432C52.367 37.432 52.9507 37.6546 53.3958 38.0997C53.8344 38.5383 54.0537 39.1381 54.0537 39.8992V44.34C54.0537 44.3851 54.0376 44.4239 54.0053 44.4562C53.9731 44.4884 53.9344 44.5045 53.8892 44.5045H52.3122C52.267 44.5045 52.2283 44.4884 52.1961 44.4562C52.1638 44.4239 52.1477 44.3851 52.1477 44.34V40.2958C52.1477 39.9346 52.0445 39.6412 51.8381 39.4155C51.6382 39.1897 51.3705 39.0769 51.0351 39.0769C50.6997 39.0769 50.432 39.1897 50.2321 39.4155C50.0257 39.6412 49.9225 39.9346 49.9225 40.2958V44.34C49.9225 44.3851 49.9063 44.4239 49.8741 44.4562C49.8418 44.4884 49.8031 44.5045 49.758 44.5045H48.1809C48.1358 44.5045 48.0971 44.4884 48.0648 44.4562C48.0326 44.4239 48.0165 44.3851 48.0165 44.34V37.7029C48.0165 37.6578 48.0326 37.6191 48.0648 37.5868C48.0971 37.5546 48.1358 37.5384 48.1809 37.5384H49.758C49.8031 37.5384 49.8418 37.5546 49.8741 37.5868C49.9063 37.6191 49.9225 37.6578 49.9225 37.7029V38.1771C49.9225 38.2029 49.9321 38.2222 49.9515 38.2351C49.9708 38.2416 49.9837 38.2351 49.9902 38.2158C50.3643 37.6933 50.9158 37.432 51.6446 37.432ZM59.4233 38.9123C59.4233 38.9574 59.4072 38.9962 59.3749 39.0285C59.3427 39.0607 59.304 39.0769 59.2588 39.0769H57.9527C57.9076 39.0769 57.885 39.0994 57.885 39.1446V42.0084C57.885 42.3115 57.9463 42.534 58.0688 42.6759C58.1914 42.8178 58.3881 42.8887 58.659 42.8887H59.104C59.1492 42.8887 59.1879 42.9048 59.2201 42.9371C59.2524 42.9693 59.2685 43.008 59.2685 43.0532V44.34C59.2685 44.4432 59.2137 44.5012 59.104 44.5141C58.7299 44.5335 58.459 44.5433 58.2913 44.5433C57.5431 44.5433 56.9852 44.4206 56.6176 44.1755C56.2435 43.9239 56.0532 43.4564 56.0467 42.7727V39.1446C56.0467 39.0994 56.0242 39.0769 55.979 39.0769H55.205C55.1599 39.0769 55.1212 39.0607 55.0889 39.0285C55.0567 38.9962 55.0405 38.9574 55.0405 38.9123V37.7029C55.0405 37.6578 55.0567 37.6191 55.0889 37.5868C55.1212 37.5546 55.1599 37.5384 55.205 37.5384H55.979C56.0242 37.5384 56.0467 37.5159 56.0467 37.4707V35.8647C56.0467 35.8195 56.0629 35.7808 56.0951 35.7486C56.1274 35.7163 56.1661 35.7002 56.2112 35.7002H57.7302C57.7753 35.7002 57.8108 35.7163 57.8366 35.7486C57.8689 35.7808 57.885 35.8195 57.885 35.8647V37.4707C57.885 37.5159 57.9076 37.5384 57.9527 37.5384H59.2588C59.304 37.5384 59.3427 37.5546 59.3749 37.5868C59.4072 37.6191 59.4233 37.6578 59.4233 37.7029V38.9123ZM64.6381 37.7029C64.6381 37.6578 64.651 37.6191 64.6768 37.5868C64.7091 37.5546 64.7478 37.5384 64.7929 37.5384H66.3796C66.4248 37.5384 66.4635 37.5546 66.4957 37.5868C66.528 37.6191 66.5441 37.6578 66.5441 37.7029V44.34C66.5441 44.3851 66.528 44.4239 66.4957 44.4562C66.4635 44.4884 66.4248 44.5045 66.3796 44.5045H64.7929C64.7478 44.5045 64.7091 44.4884 64.6768 44.4562C64.651 44.4239 64.6381 44.3851 64.6381 44.34V43.8853C64.6381 43.8531 64.6285 43.8369 64.6091 43.8369C64.5898 43.8304 64.5704 43.8402 64.5511 43.866C64.1899 44.3562 63.6319 44.6012 62.8773 44.6012C62.1871 44.6012 61.6228 44.3917 61.1842 43.9724C60.7391 43.5596 60.5166 42.9791 60.5166 42.2309V37.7029C60.5166 37.6578 60.5327 37.6191 60.565 37.5868C60.5972 37.5546 60.6359 37.5384 60.6811 37.5384H62.2484C62.2936 37.5384 62.3323 37.5546 62.3645 37.5868C62.3968 37.6191 62.4129 37.6578 62.4129 37.7029V41.7567C62.4129 42.1179 62.5096 42.4114 62.7031 42.6372C62.8966 42.8629 63.1643 42.9758 63.5062 42.9758C63.8158 42.9758 64.0705 42.8824 64.2705 42.6953C64.4704 42.5083 64.593 42.2664 64.6381 41.9697V37.7029ZM75.6773 37.432C76.3804 37.432 76.9286 37.6449 77.3221 38.0706C77.722 38.4963 77.9219 39.093 77.9219 39.8605V44.34C77.9219 44.3851 77.9058 44.4239 77.8736 44.4562C77.8413 44.4884 77.8026 44.5045 77.7575 44.5045H76.1708C76.1256 44.5045 76.0869 44.4884 76.0547 44.4562C76.0289 44.4239 76.016 44.3851 76.016 44.34V40.2766C76.016 39.9089 75.9192 39.6153 75.7257 39.396C75.5387 39.1832 75.2871 39.0769 74.9711 39.0769C74.655 39.0769 74.397 39.1832 74.1971 39.396C73.9971 39.6153 73.8971 39.9056 73.8971 40.2668V44.34C73.8971 44.3851 73.881 44.4239 73.8488 44.4562C73.8165 44.4884 73.7778 44.5045 73.7327 44.5045H72.1653C72.1202 44.5045 72.0814 44.4884 72.0492 44.4562C72.0169 44.4239 72.0008 44.3851 72.0008 44.34V40.2766C72.0008 39.9154 71.9008 39.6251 71.7009 39.4058C71.5074 39.1865 71.2526 39.0769 70.9366 39.0769C70.6463 39.0769 70.4045 39.1607 70.211 39.3284C70.0175 39.5026 69.9014 39.7411 69.8627 40.0443V44.34C69.8627 44.3851 69.8465 44.4239 69.8143 44.4562C69.782 44.4884 69.7433 44.5045 69.6982 44.5045H68.1115C68.0663 44.5045 68.0276 44.4884 67.9954 44.4562C67.9696 44.4239 67.9567 44.3851 67.9567 44.34V37.7029C67.9567 37.6578 67.9696 37.6191 67.9954 37.5868C68.0276 37.5546 68.0663 37.5384 68.1115 37.5384H69.6982C69.7433 37.5384 69.782 37.5546 69.8143 37.5868C69.8465 37.6191 69.8627 37.6578 69.8627 37.7029V38.2351C69.8627 38.2609 69.8723 38.2771 69.8917 38.2835C69.911 38.2964 69.9271 38.2899 69.94 38.2641C70.3141 37.7094 70.8882 37.432 71.6622 37.432C72.1137 37.432 72.5104 37.5289 72.8522 37.7224C73.1876 37.9094 73.4456 38.1802 73.6262 38.535C73.652 38.5866 73.6843 38.5866 73.723 38.535C73.9229 38.1609 74.1906 37.8835 74.526 37.7029C74.8679 37.5223 75.2516 37.432 75.6773 37.432Z" fill="#252530"/>
<path d="M32.4025 90.4232C32.3831 90.4425 32.3767 90.4619 32.3831 90.4812C32.396 90.5006 32.4154 90.5102 32.4412 90.5102H36.2434C36.2886 90.5102 36.3273 90.5264 36.3595 90.5586C36.3982 90.5909 36.4176 90.6296 36.4176 90.6747V92.0389C36.4176 92.084 36.3982 92.1227 36.3595 92.155C36.3273 92.1872 36.2886 92.2034 36.2434 92.2034H29.9353C29.8837 92.2034 29.8418 92.1872 29.8095 92.155C29.7773 92.1227 29.7612 92.084 29.7612 92.0389V90.7424C29.7612 90.6586 29.7902 90.5876 29.8482 90.5296C30.3062 90.0845 30.7738 89.5976 31.2511 89.0687C31.7284 88.5398 32.0284 88.2108 32.1509 88.0818C32.4089 87.7722 32.6734 87.4755 32.9443 87.1917C33.7957 86.25 34.2214 85.5502 34.2214 85.0922C34.2214 84.7633 34.1053 84.4924 33.8731 84.2795C33.6409 84.0731 33.3377 83.9699 32.9636 83.9699C32.5895 83.9699 32.2864 84.0731 32.0542 84.2795C31.8155 84.4924 31.6962 84.773 31.6962 85.1213V85.4696C31.6962 85.5147 31.6801 85.5534 31.6478 85.5857C31.6156 85.6179 31.5769 85.634 31.5317 85.634H29.8773C29.8321 85.634 29.7934 85.6179 29.7612 85.5857C29.7225 85.5534 29.7031 85.5147 29.7031 85.4696V84.8117C29.7354 84.3086 29.8966 83.8603 30.1869 83.4668C30.4771 83.0798 30.8609 82.7831 31.3382 82.5767C31.822 82.3703 32.3638 82.2671 32.9636 82.2671C33.628 82.2671 34.2052 82.3929 34.6954 82.6445C35.1856 82.8896 35.563 83.2217 35.8274 83.641C36.0983 84.0667 36.2338 84.5343 36.2338 85.0439C36.2338 85.4373 36.1338 85.8404 35.9338 86.2532C35.7403 86.666 35.4469 87.1111 35.0534 87.5884C34.7632 87.9496 34.4503 88.3108 34.1149 88.672C33.7795 89.0267 33.2797 89.5395 32.6153 90.2103L32.4025 90.4232ZM40.9745 92.3582C39.9425 92.3582 39.1298 92.0711 38.5364 91.4971C37.9366 90.923 37.6366 90.1394 37.6366 89.1461V85.4405C37.6366 84.4666 37.9366 83.6958 38.5364 83.1282C39.1298 82.5542 39.9425 82.2671 40.9745 82.2671C42.0001 82.2671 42.816 82.5542 43.4223 83.1282C44.0221 83.6958 44.3221 84.4666 44.3221 85.4405V89.1461C44.3221 90.1394 44.0221 90.923 43.4223 91.4971C42.816 92.0711 42.0001 92.3582 40.9745 92.3582ZM40.9745 90.665C41.3938 90.665 41.7259 90.536 41.971 90.278C42.2226 90.02 42.3484 89.675 42.3484 89.2428V85.3825C42.3484 84.9568 42.2226 84.6149 41.971 84.3569C41.7259 84.0989 41.3938 83.9699 40.9745 83.9699C40.5617 83.9699 40.2328 84.0989 39.9877 84.3569C39.7361 84.6149 39.6103 84.9568 39.6103 85.3825V89.2428C39.6103 89.675 39.7361 90.02 39.9877 90.278C40.2328 90.536 40.5617 90.665 40.9745 90.665ZM48.2501 90.4232C48.2308 90.4425 48.2275 90.4619 48.2404 90.4812C48.2469 90.5006 48.2662 90.5102 48.2985 90.5102H52.1008C52.1459 90.5102 52.1846 90.5264 52.2169 90.5586C52.2491 90.5909 52.2653 90.6296 52.2653 90.6747V92.0389C52.2653 92.084 52.2491 92.1227 52.2169 92.155C52.1846 92.1872 52.1459 92.2034 52.1008 92.2034H45.783C45.7378 92.2034 45.6991 92.1872 45.6669 92.155C45.6346 92.1227 45.6185 92.084 45.6185 92.0389V90.7424C45.6185 90.6586 45.6443 90.5876 45.6959 90.5296C46.1603 90.0845 46.6279 89.5976 47.0988 89.0687C47.5761 88.5398 47.876 88.2108 47.9986 88.0818C48.263 87.7722 48.5307 87.4755 48.8016 87.1917C49.653 86.25 50.0787 85.5502 50.0787 85.0922C50.0787 84.7633 49.9626 84.4924 49.7304 84.2795C49.4918 84.0731 49.1854 83.9699 48.8113 83.9699C48.4372 83.9699 48.134 84.0731 47.9018 84.2795C47.6696 84.4924 47.5535 84.773 47.5535 85.1213V85.4696C47.5535 85.5147 47.5374 85.5534 47.5051 85.5857C47.4729 85.6179 47.431 85.634 47.3794 85.634H45.7249C45.6798 85.634 45.6411 85.6179 45.6088 85.5857C45.5766 85.5534 45.5605 85.5147 45.5605 85.4696V84.8117C45.5863 84.3086 45.7443 83.8603 46.0345 83.4668C46.3248 83.0798 46.7118 82.7831 47.1955 82.5767C47.6793 82.3703 48.2179 82.2671 48.8113 82.2671C49.4756 82.2671 50.0529 82.3929 50.5431 82.6445C51.0398 82.8896 51.4203 83.2217 51.6848 83.641C51.9492 84.0667 52.0814 84.5343 52.0814 85.0439C52.0814 85.4373 51.9847 85.8404 51.7912 86.2532C51.5912 86.666 51.2945 87.1111 50.9011 87.5884C50.6108 87.9496 50.298 88.3108 49.9626 88.672C49.6272 89.0267 49.1273 89.5395 48.463 90.2103L48.2501 90.4232ZM60.4987 87.927C60.5438 87.927 60.5858 87.9431 60.6245 87.9754C60.6567 88.0076 60.6728 88.0463 60.6728 88.0915V89.5137C60.6728 89.5589 60.6567 89.5976 60.6245 89.6298C60.5858 89.6621 60.5438 89.6782 60.4987 89.6782H59.8988C59.8537 89.6782 59.8311 89.7008 59.8311 89.7459V92.0389C59.8311 92.084 59.815 92.1227 59.7827 92.155C59.744 92.1872 59.7021 92.2034 59.657 92.2034H58.0219C57.9703 92.2034 57.9284 92.1872 57.8961 92.155C57.8639 92.1227 57.8477 92.084 57.8477 92.0389V89.7459C57.8477 89.7008 57.8252 89.6782 57.78 89.6782H53.4746C53.4295 89.6782 53.3876 89.6621 53.3489 89.6298C53.3166 89.5976 53.3005 89.5589 53.3005 89.5137V88.3914C53.3005 88.3334 53.3166 88.2624 53.3489 88.1786L55.874 82.509C55.9127 82.4252 55.9772 82.3832 56.0675 82.3832H57.8187C57.8832 82.3832 57.9284 82.3994 57.9542 82.4316C57.98 82.4639 57.9767 82.5122 57.9445 82.5767L55.6031 87.8399C55.5967 87.8593 55.5967 87.8786 55.6031 87.898C55.616 87.9173 55.6322 87.927 55.6515 87.927H57.78C57.8252 87.927 57.8477 87.9012 57.8477 87.8496V86.1178C57.8477 86.0662 57.8639 86.0243 57.8961 85.992C57.9284 85.9598 57.9703 85.9436 58.0219 85.9436H59.657C59.7021 85.9436 59.744 85.9598 59.7827 85.992C59.815 86.0243 59.8311 86.0662 59.8311 86.1178V87.8496C59.8311 87.9012 59.8537 87.927 59.8988 87.927H60.4987Z" fill="#252530"/>
</g>
</svg>
